<svg id="Capa_1" xmlns="http://www.w3.org/2000/svg" xmlns:xlink="http://www.w3.org/1999/xlink" viewBox="0 0 127.8 127.8"><style>.st0{fill:#549fa0}.st1{clip-path:url(#XMLID_2_)}.st2{clip-path:url(#XMLID_3_)}.st3{fill-rule:evenodd;clip-rule:evenodd;fill:#d48454}.st4{clip-path:url(#XMLID_3_);fill:#965626}.st5{fill:#f0d6ac}.st6{fill:#6d402b}</style><g id="XMLID_426_"><path id="XMLID_447_" class="st0" d="M127.8 105.4c0 12.4-10 22.4-22.4 22.4h-83C10 127.8 0 117.8 0 105.4v-83C0 10 10 0 22.4 0h83.1c12.4 0 22.4 10 22.4 22.4v83z"/><g id="XMLID_427_"><defs><path id="XMLID_428_" d="M127.8 105.4c0 12.4-10 22.4-22.4 22.4h-83C10 127.8 0 117.8 0 105.4v-83C0 10 10 0 22.4 0h83.1c12.4 0 22.4 10 22.4 22.4v83z"/></defs><clipPath id="XMLID_2_"><use xlink:href="#XMLID_428_" overflow="visible"/></clipPath><g id="XMLID_429_" class="st1"><g id="XMLID_436_"><defs><path id="XMLID_438_" d="M53.2 89.4c6.7-.6 14.5-1 22.6.3 24.7 2 26.3 26.6 29 39.7-27.7.2-54.3.4-80 .5 0-16.2 8-38.7 28.4-40.5z"/></defs><clipPath id="XMLID_3_"><use xlink:href="#XMLID_438_" overflow="visible"/></clipPath><g id="XMLID_445_" class="st2"><path id="XMLID_446_" class="st3" d="M53.2 89.4c6.7-.6 14.5-1 22.6.3 24.7 2 26.3 26.6 29 39.7-26.7.2-53.3.4-80 .5 0-16.2 8-38.7 28.4-40.5z"/></g><path id="XMLID_444_" class="st4" d="M24.1 94.1h80.8v4.1H24.1z"/><path id="XMLID_443_" class="st4" d="M24.1 101.3h80.8v4.1H24.1z"/><path id="XMLID_442_" class="st4" d="M24.1 108.5h80.8v4.1H24.1z"/><path id="XMLID_441_" class="st4" d="M24.1 115.6h80.8v4.1H24.1z"/><path id="XMLID_440_" class="st4" d="M24.1 123.5h80.8v4.1H24.1z"/><path id="XMLID_439_" class="st4" d="M24.1 83.6h80.8v8.5H24.1z"/></g><g id="XMLID_430_"><path id="XMLID_435_" class="st5" d="M40 34.1l-3.4 29.1 8 17.5s6.5 13.8 8.5 15.3c1.9 1.5 12.8 3.6 13.8 3.4 1-.2 7-3.2 7.8-4.4.7-1.2 5.6-10.9 5.6-10.9s3.6-6.3 4.4-7c.7-.7 5.1-9.2 5.6-12.1.5-2.9-1.9-23-1.9-23.8s-3.9-11.6-3.9-11.6l-37.8-2.2-6.7 6.7z"/><g id="Capa_1_2_"><path id="XMLID_431_" class="st6" d="M100.5 56c-.2-.1-.4-.3-.6-.4-1-.7-.9-.8-.2-2 .5-.7 1.2-1.8 2-3.6.6-1.4.7-2.3.4-2.8-.3-.5-.9-.8-1.6-1-.8-.3-1.8-.6-2.7-1.5-1.4-1.4-1-2.3-.4-3.6.5-1 1.1-2.2.9-3.8-.3-3.6-1.2-3.9-3-4.6-.2-.1-.3-.1-.5-.2-.9-.3-1.3-.6-1.4-.9-.1-.3 0-.7.3-1.3l.1-.2c.5-1.2-.8-4-1.6-5.2-.4-.6-.7-.8-.8-.8v-.3c.2-1.7.1-2.7-.2-3.2-.3-.6-.9-.6-1.5-.7-.8-.1-1.8-.2-2.9-1.4-1.1-1.2-2-1.4-2.9-1.7-.8-.2-1.7-.4-3-1.4-1.5-1.2-2.4-1.1-3.1-1.1-.5 0-.8.1-1.2-.5-.3-.5-.6-1-.8-1.6-.5-1.2-1.1-2.6-3-3.7-2.1-1.2-6-1.1-6.9-.5-.3.2-.3.3-.3.5 0 .3.4.5.5.5.9.4 1.5 1.9 1.9 3.2-.7-.9-1.8-2.1-3.9-3.6-3.5-2.4-10.1-1.2-11.6-.3-.3.2-.4.4-.3.6.1.3.4.4.8.4 2.7.3 5.7 4.1 6.3 6.5.2.6.1 1.1-.1 1.2-.1.1-.5.2-1.8-.6-5.2-3.3-11.1-2.6-16.1 1.8-2.7 2.4-1.6 4-1 4.9.1.2.3.4.3.5 0 0-.2.2-1.7.3-3.9.2-5.2 3.8-6.2 6.4-.3 1-.7 1.8-1 2.3-.8 1-.1 1.7.3 2.2.3.3.5.5.4.7 0 .1-.2.4-.9.8-2 1-2 4.1-1.9 6.6 0 1.3.1 2.5-.2 3.1-.6 1.6.8 3.1 2.3 4.8.5.6 1.1 1.2 1.5 1.8.8 1-.3 2.4-1.6 4.1-1.4 1.8-2.9 3.8-2.8 6.1.1 2.5 1.4 3.8 2.7 5.2 1 1.1 2.1 2.3 2.7 4.1 1 3.5 5.8 4.7 7.5 5.1.2.1.4.1.6.2.1 2.6.3 5.3.8 6.3.2.4.4 1.2.7 2.2 1.1 4.2 3.1 12 8.9 15.7 6.7 4.3 10.7 6.1 11.1 6.3.1.1.4.3.9.3.2 0 .4-.1.7-.2 0 0 4.2-2.1 11.1-7 5.6-4 7.3-11.9 8.1-16.1.2-1 .4-1.8.5-2.3.1-.3.2-.8.3-1.4 0 .2 0 .4.1.5.1.3.2.5.5.6.2.1.4.1.6.1.9 0 2.2-.6 3.8-1.4 1-.5 2.1-1 3.2-1.4 3.7-1.3 2.5-5.6 2.5-5.7l-.2-.6-.3.5c0 .1-1 1.6-2.3 1-.1 0-.2-.1-.2-.2-.4-1.4 2.8-6.3 6.2-11.4v-.1c2-3.1 2.7-4.7 2.5-5.7 0-.6-.6-1-1.3-1.4zM86.1 68.9c0 .1-2.1 6.2-2.7 8-.3.9-1.3 2-2.8 3.1-.7.5-1.5.7-2.3.5-1.3-.3-2.9-.8-3.9-1.6-.6-.5-1.3-1.2-1.9-2-1.3-1.3-2.5-2.6-3.5-2.9-1.7-.5-3.4.1-4.2.7-.4.3-.7.6-.9 1-.2-.3-.5-.7-.9-1-.9-.6-2.6-1.1-4.3-.5-1 .3-2.1 1.7-3.2 3.1-.7.8-1.3 1.5-1.9 2.1-.9.8-2.5 1.5-3.7 1.8-.8.2-1.7.1-2.4-.4-1.6-1.1-2.6-2.1-3-2.9-.5-1.2-1.1-3.5-1.5-5.1-.2-.9-.4-1.6-.4-1.6l-.2-.9c-.1-1-.2-2.2 0-3.8.4-2.8.1-3.7-.3-5.3-.2-.7-.4-1.4-.6-2.4-.4-2-.1-4 .1-6 .2-1.6.4-3.2.3-4.7-.2-2.6 1.4-5.1 2.6-6.9.4-.6.7-1 .9-1.5.6-1.1 2.4-2 3.9-2.7.5-.3 1-.5 1.4-.7.4.8.9 1.4 1.5 1.9.2.2.4.3.5.4 1.5 1.3 1.6 1.3 4.6 1.2 1.3 0 3-.1 5.6-.1 8.2 0 16.4-.7 19.7-1.6.1.7.5 2.5 1.8 4.9 1.6 3.1 2 16.6 1.3 18.3-.5 1.2-.3 2.1-.1 3.1.1.6.2 1.2.2 1.9 0 .9 0 1.6.1 2.2.2.1.2.2.2.4zM68.2 93.2c-.2.1-.6.1-.8-.1-.1-.1-.1-.3 0-.7.2-.6.9-1.1 1.5-1.6.8-.6 1.7-1.3 1.5-2.2-.3-1.1-4.9-1.1-6.3-1.1-1.4 0-6 .2-6.2 1.4-.2.9.8 1.5 1.6 2.1.7.5 1.4 1 1.6 1.6.1.3.1.5 0 .7-.2.2-.5.1-.8.1-.6-.4-5.3-4.1-7.3-5.1-3.3-1.5-4.2-3.3-4.4-4 .8.1 2.5-.1 3.7-.8 1.4-.9 3.1-1.3 6.5-1.6 3.8-.4 4.7-2 4.9-2.6.1-.1.2-.1.2-.1.4.8 1.6 2.2 5.1 2.4 3.4.1 5.1.5 6.6 1.3 1.1.6 2.7.7 3.5.7-.5 1-2.3 3.9-3.9 4.1-2.1.4-6.5 4.9-7 5.5z"/></g></g></g></g></g></svg>