<?xml version="1.0" encoding="UTF-8" standalone="no"?>
<svg width="20px" height="34px" viewBox="0 0 20 34" version="1.1" xmlns="http://www.w3.org/2000/svg" xmlns:xlink="http://www.w3.org/1999/xlink">
  <g>
    <polygon points="7 6 13 6 13 0 7 0"></polygon>
    <polygon points="0 13 6 13 6 7 0 7"></polygon>
    <polygon points="14 13 20 13 20 7 14 7"></polygon>
    <polygon points="0 20 6 20 6 14 0 14"></polygon>
    <polygon points="7 20 13 20 13 14 7 14"></polygon>
    <polygon points="14 20 20 20 20 14 14 14"></polygon>
    <polygon points="0 27 6 27 6 21 0 21"></polygon>
    <polygon points="14 27 20 27 20 21 14 21"></polygon>
    <polygon points="0 34 6 34 6 28 0 28"></polygon>
    <polygon points="14 34 20 34 20 28 14 28"></polygon>
  </g>
</svg>
