<?xml version="1.0" encoding="UTF-8" standalone="no"?>
<svg width="20px" height="34px" viewBox="0 0 20 34" version="1.1" xmlns="http://www.w3.org/2000/svg" xmlns:xlink="http://www.w3.org/1999/xlink">
  <g>
    <polygon points="0 20 6 20 6 14 0 14"></polygon>
    <polygon points="0 27 6 27 6 21 0 21"></polygon>
    <polygon points="14 34 20 34 20 28 14 28"></polygon>
    <polygon points="7 34 13.0005 34 13.0005 28 7 28"></polygon>
    <polygon points="7 6 13 6 13 0 7 0"></polygon>
    <polygon points="0 13 6 13 6 7 0 7"></polygon>
    <polygon points="14 6 20 6 20 0 14 0"></polygon>
    <polygon points="0 20 6 20 6 14 0 14"></polygon>
    <polygon points="0 27 6 27 6 21 0 21"></polygon>
  </g>
</svg>
