<svg id="Capa_1" xmlns="http://www.w3.org/2000/svg" xmlns:xlink="http://www.w3.org/1999/xlink" viewBox="0 0 127.8 127.8"><style>.st0{fill:#7ab3ab}.st1{clip-path:url(#XMLID_2_)}.st2{fill:#55453c}.st2,.st3,.st4,.st5{fill-rule:evenodd;clip-rule:evenodd}.st3{fill:#f0d6ac}.st4{fill:#d27e41}.st5{fill:#010002}</style><g id="XMLID_41_"><path id="XMLID_58_" class="st0" d="M127.8 105.4c0 12.4-10 22.4-22.4 22.4h-83C10 127.8 0 117.8 0 105.4v-83C0 10 10 0 22.4 0h83.1c12.4 0 22.4 10 22.4 22.4v83z"/><g id="XMLID_42_"><defs><path id="XMLID_43_" d="M127.8 105.4c0 12.4-10 22.4-22.4 22.4h-83C10 127.8 0 117.8 0 105.4v-83C0 10 10 0 22.4 0h83.1c12.4 0 22.4 10 22.4 22.4v83z"/></defs><clipPath id="XMLID_2_"><use xlink:href="#XMLID_43_" overflow="visible"/></clipPath><g id="XMLID_44_" class="st1"><path id="XMLID_57_" class="st2" d="M61.3 95.3c5.8-.6 4.3-.6 11.4.6 21.5 1.9 21.3 22.6 23.6 35.3-23.2.2-33.4 0-56.6.2 0-15.7 3.9-34.4 21.6-36.1z"/><path id="XMLID_56_" class="st3" d="M52.6 98.1c-.1 4.4 8.6 18.1 15.4 15.1 7.7-3.4 12.8-9 12.8-15.9-9-2.6-18.6-4.8-28.2.8z"/><path id="XMLID_55_" class="st3" d="M72.8 66.8l-13.9-1.3c-.1.6 2 29 2.3 32.4.4 3.3 2.5 4.2 4.8 4.2 2.4 0 4.8-.8 5.1-4.6l1.7-30.7z"/><path id="XMLID_54_" class="st3" d="M94.8 71.4c.3-2.8-.3-8.9 0-11.7 1.1-.7 6.1-1.5 7.5 2 1.6 4.8-2.1 8.4-3.5 9.5-1.5.5-3.4.4-4 .2z"/><path id="XMLID_53_" class="st3" d="M31.9 39h63.3l.6 22.2c.6 23.2-20.7 32.1-31.4 32.9-11.4.8-36.7-16.8-34.6-36.2L31.9 39z"/><path id="XMLID_52_" class="st4" d="M66.3 79c-.9 0-1.3.5-1.3.5s-.3-.5-1.2-.5c-.9 0-3.8 2.1-4.8 3 .4.2 1.5.7 1.9 1.3.4.5 1.7 2.5 4.1 2.5 2.4 0 3.7-2 4.1-2.5.4-.5 1.5-1.1 1.9-1.3-.9-.9-3.8-3-4.7-3z"/><path id="XMLID_51_" class="st5" d="M84.2 19.5c9 19.9-17.1 27.2-30.7 31.9C35.9 57.3 32.9 69 42.4 84c4.5 7 5.2 3.5-3.3 1.9s-15.8-23-16.5-31.5C19.7 19.3 49.8 2.2 79.6 17c1.4.8 3.9 1.1 4.6 2.5z"/><path id="XMLID_50_" class="st5" d="M56.5 11.4C104.6 9.2 112 41.9 103.6 56c-7.9 13.3-12.7 16.2-19.5 16.9 0 .1 20.9-29-12.2-29h-1.2L56.5 11.4z"/><path id="XMLID_48_" class="st3" d="M33.1 71c-.3-3-1.7-9.8-2-12.8-1.2-.8-6.8-1.7-8.3 2.1-1.8 5.3 2.3 9.2 3.8 10.3 1.7.7 5.9.6 6.5.4z"/><path id="XMLID_46_" class="st3" d="M40.5 118.6c-.2 1.7-1.7 11.9-1.1 13H47c-.7-1.3.6-7.9.6-9.9-4.4 0-4.8-1.1-7.1-3.1z"/><path id="XMLID_45_" class="st3" d="M94.8 118.4c.2 1.7 1.7 11.9 1.1 13h-7.6c.7-1.3-.6-7.9-.6-9.9 4.4 0 4.8-1.1 7.1-3.1z"/></g></g></g></svg>