<svg id="Capa_1" xmlns="http://www.w3.org/2000/svg" xmlns:xlink="http://www.w3.org/1999/xlink" viewBox="0 0 127.8 127.8"><style>.st0{fill:#dda7b2}.st1{clip-path:url(#XMLID_2_)}.st2{fill-rule:evenodd;clip-rule:evenodd;fill:#5a3608}.st3{fill:#efd8aa}.st3,.st4,.st5,.st6{fill-rule:evenodd;clip-rule:evenodd}.st4{clip-path:url(#XMLID_3_);fill:#c6aa76}.st5{fill:#bc7771}.st6{fill:#cf7400}</style><g id="XMLID_73_"><path id="XMLID_88_" class="st0" d="M127.8 105.4c0 12.4-10 22.4-22.4 22.4h-83C10 127.8 0 117.8 0 105.4v-83C0 10 10 0 22.4 0h83.1c12.4 0 22.4 10 22.4 22.4v83z"/><g id="XMLID_74_"><defs><path id="XMLID_75_" d="M127.8 105.4c0 12.4-10 22.4-22.4 22.4h-83C10 127.8 0 117.8 0 105.4v-83C0 10 10 0 22.4 0h83.1c12.4 0 22.4 10 22.4 22.4v83z"/></defs><clipPath id="XMLID_2_"><use xlink:href="#XMLID_75_" overflow="visible"/></clipPath><g id="XMLID_76_" class="st1"><path id="XMLID_87_" class="st2" d="M25.3 49.7c0 13.8 4 21.4 4 28.6-8 0-18.3-1.8-13.3 15.2 3 10.2 9.8 4.6 4 9.1-2.7 2.1-5.8 10 5.2 10 .9 0 .1 18.4 20.5 9.6 2.5-1.1 6.4-6.1 6.8-9.2 2.4-1.3 1.9-12.4 11.3-10.7 16 3 9 24 35.7 17.7 5.5-1.3 16.5-14.7 9.4-18.7-.1 0 6-4.2 3.5-10.7-2.6-6.8-7.1-.1-3.1-7.1 2.2-3.9-1.5-14.5-10.6-11.3 0-.1 6-9.3 6.3-10.4 4.6-15.8 1.7-34.6-9.2-45.9-4.4-4.6-9.7-6.8-15.4-8.2-31.5-7.6-55.1 3-55.1 42z"/><path id="XMLID_86_" class="st3" d="M72.5 85.5l-11.7-.9c-.1.4.6 20 .9 22.3 1 6.6 9.8 8.4 10.7-1.1l.1-20.3z"/><g id="XMLID_83_"><defs><path id="XMLID_84_" d="M72.5 85.5l-11.7-.9c-.1.4.6 20 .9 22.3 1 6.6 9.8 8.4 10.7-1.1l.1-20.3z"/></defs><clipPath id="XMLID_3_"><use xlink:href="#XMLID_84_" overflow="visible"/></clipPath><path id="XMLID_85_" class="st4" d="M74 84.9l-14.7-.3c-.1.1.8 7.2 1.1 8.1 1.2 2.4 12.4 3 13.5-.4l.1-7.4z"/></g><path id="XMLID_82_" class="st3" d="M61.3 100c4.2-2 6.5-1 10.9.1 4.8 1.2 14.5 9.2 17.5 29.9H46.3s-4-20.7 15-30z"/><path id="XMLID_81_" class="st3" d="M83.7 37.3c5.9 5.8 5.5 17.5 3.4 25.3-2.9 10.6-.6 19.5-13.9 26-10.2 5-18.7-1.7-22.4-8.9-3.8-7.1-2.9-13.7-4.2-15.8-3-5.1.7-19.8 2.2-25.1 0 0 12.4-2.2 17.1-10.1 4.8 7.9 14.5 8.8 17.8 8.6z"/><path id="XMLID_80_" class="st5" d="M69 73.7c-1.1 0-1.6.4-1.6.4s-.5-.4-1.6-.4c-.7 0-2.4.7-3.8 1.3-.8.4-2.5-.1-2.9.1.5.2 2.7 1.5 3.2 1.9.5.4 2.1 1.9 5.1 1.9 2.9 0 4.5-1.5 5.1-1.9.5-.4 2.5-1.1 2.6-1.7-.3-.2-1.2.3-1.8 0-1.5-.8-3.6-1.6-4.3-1.6z"/><path id="XMLID_79_" class="st3" d="M86.1 66.1c1.5-1.2 10.6-2.6 6.3-5.6-1.1-.8 1.2-7.6-2.1-.7-.7 1.4-3.1 5.4-4.2 6.3z"/><path id="XMLID_78_" class="st3" d="M47.5 66.2c-1.5-1.2-10.6-2.5-6.3-5.6 1.1-.8-1.2-7.6 2.1-.7.7 1.4 3.1 5.4 4.2 6.3z"/><path id="XMLID_77_" class="st6" d="M52.1 130.6l30.5-.2s-.3-8.4-2.4-10.5c-1-8.7-.4-14.4-.4-14.4l-1.1-1.3s-.6 6.8.1 15.7c-10 6.1-21.4.6-24.3-.3 1-8.4 0-15 0-15s-.1.1-1.2 1.1c.5 5.3-.8 13.4-.8 13.4s-2.8 5.4-.4 11"/></g></g></g></svg>