<svg id="Capa_1" xmlns="http://www.w3.org/2000/svg" xmlns:xlink="http://www.w3.org/1999/xlink" viewBox="0 0 127.8 127.8"><style>.st0{fill:#cdd1d0}.st1{clip-path:url(#XMLID_2_)}.st2{fill:#3d3c3a}.st2,.st3,.st4,.st5,.st6,.st7{fill-rule:evenodd;clip-rule:evenodd}.st3{fill:#191919}.st4{fill:#fff}.st5{fill:#010002}.st6{fill:#cbcbcb}.st7{fill:#cca263}.st8{fill:#f0d6ac}.st9{fill:#211915}.st10{fill:#911718}</style><g id="XMLID_369_"><path id="XMLID_397_" class="st0" d="M127.8 105.4c0 12.4-10 22.4-22.4 22.4h-83C10 127.8 0 117.8 0 105.4v-83C0 10 10 0 22.4 0h83.1c12.4 0 22.4 10 22.4 22.4v83z"/><g id="XMLID_370_"><defs><path id="XMLID_371_" d="M127.8 105.4c0 12.4-10 22.4-22.4 22.4h-83C10 127.8 0 117.8 0 105.4v-83C0 10 10 0 22.4 0h83.1c12.4 0 22.4 10 22.4 22.4v83z"/></defs><clipPath id="XMLID_2_"><use xlink:href="#XMLID_371_" overflow="visible"/></clipPath><g id="XMLID_372_" class="st1"><path id="XMLID_396_" class="st2" d="M54.6 93.7c5.8-.5 12.9-1.9 19.7.2 20.6 6.5 26.1 25.4 28.5 35.5-23.2.1-51.4-.1-74.6 0-.1-12.3 13.5-31.3 26.4-35.7z"/><g id="XMLID_387_"><path id="XMLID_395_" class="st3" d="M64.6 127.5L73 99.9c.6 1.8 9.6 6.1 8.3 7.4-1.2 1.2-2.9 2.2-2.6 2.7.6.9 4.1 1.9 6.1 3.5 1 .8-12 14.3-19.6 15.5l-.8.4.2-1.9z"/><path id="XMLID_394_" class="st3" d="M64.2 127.5l-8.4-27.6c-.6 1.8-9.7 6.1-8.4 7.4 1.2 1.2 3 2.2 2.6 2.7-.6.9-4.1 1.9-6.1 3.5-1 .8 12.1 14.3 19.7 15.5l.8.4-.2-1.9z"/><path id="XMLID_393_" class="st4" d="M67.8 103.3l-13.2-1.5c.7 8.6.3 17 8.6 24.8 1 .9.7 1.2 1.6.9 2.7-1.1 4.2-3.4 6.1-5.9.7-.9 3-9.1 3.8-18.1l-6.9-.2z"/><path id="XMLID_392_" class="st5" d="M68.3 102.8l-7.6.1c.2 2.3 3.1 12.4 6.5 3.1.2-.9 1.1-2.2 1.1-3.2z"/><path id="XMLID_391_" class="st6" d="M72.3 100l-7.2 3.3c.9 1.1 6.8 6.2 6.8 6.2 1.1-1.7 6.7-9.9.4-9.5z"/><path id="XMLID_390_" class="st6" d="M57 99.4l7.2 3.3c-.9 1.1-6.8 6.2-6.8 6.2-1-1.8-6.6-9.9-.4-9.5z"/><path id="XMLID_389_" class="st7" d="M73.4 89.7l-17.5-.5c-.1.2.9 10.3 1.3 11.5 1.5 3.4 14.7 4.3 16-.6l.2-10.4z"/><path id="XMLID_388_" class="st5" d="M65.2 108.3l-2.2.8c-.2.3-4.2 13-3.8 14.1.5 1.4 4.8 5.3 5.3 5.3 1 0 6.3-5.4 6-6.1l-5.3-14.1z"/></g><g id="XMLID_373_"><path id="XMLID_386_" class="st8" d="M40.8 45.6s-2.5 9.4-.6 12c1.8 2.6 4.6 20.9 5.3 22.3.7 1.3 18.1 10 18.8 9.6.7-.4 12.8-2.9 12.8-2.9l3.7-4.8L86 63l-.7-6.7s2.8-10.6 2.8-13.5c0-2.9-2.6-10.8-4.2-11-1.6-.2-13.2.8-14.2 1-.8.1-28.9 12.8-28.9 12.8z"/><path id="XMLID_385_" class="st8" d="M39.7 63.6s-3.1 1.6-3.7-2.8c-.6-4.4-2-11.3 2.7-10.6 4.8.6 4.5 7.4 4.5 7.4l-3.5 6z"/><path id="XMLID_384_" class="st8" d="M86.8 63.1s3.1 1.6 3.6-2.8 1.8-11.2-3-10.7C82.6 50.2 83 57 83 57l3.8 6.1z"/><path id="XMLID_381_" class="st9" d="M89.5 70.4c.9-3.6-.5-4.6-.1-6 .5-1.4-1.7-5.3-2.1-6.8-.5-1.5-1.9-1.4-1.9-1.4s-1.5 7.4-1.8 9c-.9 5.7-7.6 10.9-8.1 9.2-1.1-4-10.2-4.4-11.4-3-3.7-1.3-10.9-1.1-11.9 3-.5 1.8-7.2-3.4-8.1-9.2-.3-1.6-1.8-9-1.8-9s-1.5-.1-1.9 1.4c-.5 1.5-2.6 5.4-2.1 6.8.5 1.4-1 2.3-.1 6 .9 3.6-.7 4.9-.3 6.3.4 1.4 1.3 8 4 12.1s3.1 9.1 6.9 10.9c3.8 1.8 10.2 3.9 10.9 4.8.7 1 3.4 1.8 4 2.9.1.1.1-.2.2-.9 0 .7.1 1 .2.9.6-1.1 3.2-1.9 4-2.9.7-1 7.1-3 10.9-4.8 3.8-1.8 4.2-6.8 6.8-10.9 2.7-4.1 3.6-10.7 4-12.1.3-1.4-1.2-2.7-.3-6.3zm-17.9 9c-.7 1.2-5.8 1.1-7.8.4-2 .7-7.1.8-7.8-.4-.7-1.2-1.2-2.2 1.2-3.5 1.2-.7 4.4-2 6.6-2.2 2.2.2 5.4 1.6 6.6 2.2 2.4 1.4 1.9 2.3 1.2 3.5z"/><path id="XMLID_375_" class="st10" d="M88 50.3s-1.7.1-4.1-.6c-2.4-.7-3.9-1-7.7-1.1-3.7-.1-8.5 2.4-8.7 2.6-.4-.8-1.8-1.1-3.1-1.1s-2.7.3-3.1 1.1c-.3-.2-5-2.7-8.7-2.6-3.7.1-5.3.4-7.7 1.1-2.4.7-4.1.6-4.1.6-.1 1.4.3 2.3 1 2.8s1 1.8 1.2 3.4c.6 5.7 7.2 6.1 7.2 6.1s5.9.9 9-1.9c4.1-3.4 2.7-7.2 2.6-7.5-.1-.2-.1-.7.2-1.2.7-.8 1.7-1.1 2.5-1.1s1.8.3 2.5 1.1c.3.5.3 1 .2 1.2-.2.2-1.5 4 2.6 7.5 3.1 2.8 9 1.9 9 1.9s6.6-.4 7.1-6.1c.2-1.6.5-2.9 1.2-3.4.6-.5 1-1.4.9-2.8zm-45.7 1.8c-.5 0-.4-.7-.5-.8l.8-.1s.2.9-.3.9zm16.5 7.6c-2.4 2.6-8.6 3.1-12.6.7-2.2-1.4-2.6-5.6-2.5-6.4.1-1.2 1.2-4.5 8.4-4.5 0 0 4.2-.3 7.1 2 1.9 1.6 1.9 5.7-.4 8.2zm23.8.6c-4.1 2.4-10.2 1.9-12.6-.7-2.3-2.5-2.3-6.6-.4-8.2 2.9-2.3 7.1-2 7.1-2 7.1 0 8.2 3.4 8.4 4.5.1.9-.1 5-2.5 6.4zm3.7-8.2c-.5 0-.3-.9-.3-.9l.8.1c-.1 0 0 .8-.5.8z"/><path id="XMLID_374_" class="st9" d="M66.8 45.2C59.4 47.5 52 47.6 52 47.6l1.1-1.7-8.1 3.2-1.5-2.1c-2.5 1.2-3.4 10.7-3.4 10.7L38.7 50s-2.8 1.2-2.2.4c.6-.7.2-6.5.2-6.5h-4.1s3.3-2.2 2.2-8.9c-1.1-6.7 9.8-16.2 14.4-19.3 4.6-3.1 18.6-4.2 22.4-2.6l.7.3s-.7-2.9-2.6-3.1c-1.9-.2 4.1-.2 4.4 3.1.3 3.3 2.7-.5 5.7-1.1 3-.5 2.5.2 2.5.2s-4.9 1.4-3.6 2.2c0 0 5 .5 7.4 3.5 2.4 2.9 5.7 8.8 6.6 9 .9.1-2.4 0-2.4 0s1.7 1.1 2 4.7c.4 3.6-3.2 13.2-3.9 14.3-.7 1.1-1.8 2.9-1.8 2.9s-1.3-1.2-1.1-4.2c.2-3-1.6-5.6-1.6-5.6s-3.6 3-10.4 5.4c-5.7 1.9-7.7 2.2-9.9 2.1"/></g></g></g></g></svg>