<?xml version="1.0" encoding="UTF-8" standalone="no"?>
<svg width="20px" height="34px" viewBox="0 0 20 34" version="1.1" xmlns="http://www.w3.org/2000/svg" xmlns:xlink="http://www.w3.org/1999/xlink">
    <!-- Generator: Sketch 45.1 (43504) - http://www.bohemiancoding.com/sketch -->
    <title>Group 9</title>
    <desc>Created with Sketch.</desc>
    <defs></defs>
    <g id="Page-1" stroke="none" stroke-width="1" fill="none" fill-rule="evenodd">
        <g id="Desktop-Copy-3" transform="translate(-386.000000, -744.000000)">
            <g id="Group-9" transform="translate(386.000000, 744.000000)">
                <polygon id="Fill-126" fill="#DDDDDD" points="0 20 6 20 6 14 0 14"></polygon>
                <polygon id="Fill-127" fill="#DDDDDD" points="14 20 20 20 20 14 14 14"></polygon>
                <polygon id="Fill-130" fill="#DDDDDD" points="0 27 6 27 6 21 0 21"></polygon>
                <polygon id="Fill-132" fill="#DDDDDD" points="14 27 20 27 20 21 14 21"></polygon>
                <polygon id="Fill-135" fill="#DDDDDD" points="0 34 6 34 6 28 0 28"></polygon>
                <polygon id="Fill-136" fill="#DDDDDD" points="14 34 20 34 20 28 14 28"></polygon>
                <polygon id="Fill-173" fill="#54A94A" points="7 6 13 6 13 0 7 0"></polygon>
                <polygon id="Fill-175" fill="#54A94A" points="0 13 6 13 6 7 0 7"></polygon>
                <polygon id="Fill-176" fill="#54A94A" points="14 13 20 13 20 7 14 7"></polygon>
                <polygon id="Fill-179" fill="#54A94A" points="0 20 6 20 6 14 0 14"></polygon>
                <polygon id="Fill-180" fill="#54A94A" points="7 20 13 20 13 14 7 14"></polygon>
                <polygon id="Fill-181" fill="#54A94A" points="14 20 20 20 20 14 14 14"></polygon>
                <polygon id="Fill-184" fill="#54A94A" points="0 27 6 27 6 21 0 21"></polygon>
                <polygon id="Fill-185" fill="#54A94A" points="14 27 20 27 20 21 14 21"></polygon>
                <polygon id="Fill-189" fill="#54A94A" points="0 34 6 34 6 28 0 28"></polygon>
                <polygon id="Fill-190" fill="#54A94A" points="14 34 20 34 20 28 14 28"></polygon>
            </g>
        </g>
    </g>
</svg>