<?xml version="1.0" encoding="UTF-8" standalone="no"?>
<svg width="292px" height="220px" viewBox="0 0 292 220" version="1.1" xmlns="http://www.w3.org/2000/svg" xmlns:xlink="http://www.w3.org/1999/xlink">
    <!-- Generator: Sketch 45.1 (43504) - http://www.bohemiancoding.com/sketch -->
    <title>logo</title>
    <desc>Created with Sketch.</desc>
    <defs></defs>
    <g id="Page-1" stroke="none" stroke-width="1" fill="none" fill-rule="evenodd">
        <g id="Desktop-Copy-3" transform="translate(-344.000000, -80.000000)">
            <g id="Page-1" transform="translate(344.000000, 80.000000)">
                <polygon id="Fill-1" fill="#444444" points="13 12 25.001 12 25.001 0 13 0"></polygon>
                <polygon id="Fill-2" fill="#444444" points="27 12 39 12 39 0 27 0"></polygon>
                <polygon id="Fill-3" fill="#444444" points="41 12 53 12 53 0 41 0"></polygon>
                <polygon id="Fill-4" fill="#444444" points="55 12 67 12 67 0 55 0"></polygon>
                <polygon id="Fill-5" fill="#444444" points="69 12 81 12 81 0 69 0"></polygon>
                <polygon id="Fill-6" fill="#444444" points="83 12 95.001 12 95.001 0 83 0"></polygon>
                <polygon id="Fill-7" fill="#444444" points="97 12 109 12 109 0 97 0"></polygon>
                <polygon id="Fill-8" fill="#444444" points="13 26 25 26 25 14 13 14"></polygon>
                <polygon id="Fill-9" fill="#444444" points="27 26 39 26 39 14 27 14"></polygon>
                <polygon id="Fill-10" fill="#444444" points="41 26 53 26 53 14 41 14"></polygon>
                <polygon id="Fill-11" fill="#444444" points="111 26 123 26 123 14 111 14"></polygon>
                <polygon id="Fill-12" fill="#444444" points="125 26 137 26 137 14 125 14"></polygon>
                <polygon id="Fill-13" fill="#444444" points="139 26 151 26 151 14 139 14"></polygon>
                <polygon id="Fill-14" fill="#444444" points="27 40 39 40 39 28 27 28"></polygon>
                <polygon id="Fill-15" fill="#444444" points="125 40 137 40 137 28 125 28"></polygon>
                <polygon id="Fill-16" fill="#444444" points="27 54 39 54 39 42 27 42"></polygon>
                <polygon id="Fill-17" fill="#444444" points="125 54 137 54 137 42 125 42"></polygon>
                <polygon id="Fill-18" fill="#444444" points="27 68 39 68 39 56 27 56"></polygon>
                <polygon id="Fill-19" fill="#444444" points="125 68 137 68 137 56 125 56"></polygon>
                <polygon id="Fill-20" fill="#444444" points="41 82 53 82 53 70 41 70"></polygon>
                <polygon id="Fill-21" fill="#DDDDDD" points="55 26 67 26 67 14 55 14"></polygon>
                <polygon id="Fill-22" fill="#DDDDDD" points="69 26 81 26 81 14 69 14"></polygon>
                <polygon id="Fill-23" fill="#DDDDDD" points="83 26 95 26 95 14 83 14"></polygon>
                <polygon id="Fill-24" fill="#DDDDDD" points="97 26 109 26 109 14 97 14"></polygon>
                <polygon id="Fill-25" fill="#DDDDDD" points="41 40 53 40 53 28 41 28"></polygon>
                <polygon id="Fill-26" fill="#DDDDDD" points="55 40 67 40 67 28 55 28"></polygon>
                <polygon id="Fill-27" fill="#4A90E2" points="69 40 81 40 81 28 69 28"></polygon>
                <polygon id="Fill-28" fill="#FFFFFF" points="83 40 95 40 95 28 83 28"></polygon>
                <polygon id="Fill-29" fill="#DDDDDD" points="97 40 109 40 109 28 97 28"></polygon>
                <polygon id="Fill-30" fill="#DDDDDD" points="111 40 123 40 123 28 111 28"></polygon>
                <polygon id="Fill-31" fill="#DDDDDD" points="41 54 53 54 53 42 41 42"></polygon>
                <polygon id="Fill-32" fill="#4A90E2" points="55 54 67 54 67 42 55 42"></polygon>
                <polygon id="Fill-33" fill="#4A90E2" points="69 54 81 54 81 42 69 42"></polygon>
                <polygon id="Fill-34" fill="#4A90E2" points="83 54 95 54 95 42 83 42"></polygon>
                <polygon id="Fill-35" fill="#FFFFFF" points="97 54 109 54 109 42 97 42"></polygon>
                <polygon id="Fill-36" fill="#DDDDDD" points="111 54 123 54 123 42 111 42"></polygon>
                <polygon id="Fill-37" fill="#DDDDDD" points="41 68 53 68 53 56 41 56"></polygon>
                <polygon id="Fill-38" fill="#DDDDDD" points="55 68 67 68 67 56 55 56"></polygon>
                <polygon id="Fill-39" fill="#4A90E2" points="69 68 81 68 81 56 69 56"></polygon>
                <polygon id="Fill-40" fill="#DDDDDD" points="83 68 95 68 95 56 83 56"></polygon>
                <polygon id="Fill-41" fill="#DDDDDD" points="97 68 109 68 109 56 97 56"></polygon>
                <polygon id="Fill-42" fill="#DDDDDD" points="111 68 123 68 123 56 111 56"></polygon>
                <polygon id="Fill-43" fill="#DDDDDD" points="55 82 67 82 67 70 55 70"></polygon>
                <polygon id="Fill-44" fill="#DDDDDD" points="69 82 81 82 81 70 69 70"></polygon>
                <polygon id="Fill-45" fill="#DDDDDD" points="83 82 95 82 95 70 83 70"></polygon>
                <polygon id="Fill-46" fill="#DDDDDD" points="97 82 109 82 109 70 97 70"></polygon>
                <polygon id="Fill-47" fill="#444444" points="111 82 123 82 123 70 111 70"></polygon>
                <polygon id="Fill-48" fill="#444444" points="55 96 67 96 67 84 55 84"></polygon>
                <polygon id="Fill-49" fill="#444444" points="69 96 81 96 81 84 69 84"></polygon>
                <polygon id="Fill-50" fill="#444444" points="83 96 95 96 95 84 83 84"></polygon>
                <polygon id="Fill-51" fill="#444444" points="97 96 109 96 109 84 97 84"></polygon>
                <polygon id="Fill-52" fill="#444444" points="265 12 277.001 12 277.001 0 265 0"></polygon>
                <polygon id="Fill-53" fill="#444444" points="251 12 263 12 263 0 251 0"></polygon>
                <polygon id="Fill-54" fill="#444444" points="237 12 249.001 12 249.001 0 237 0"></polygon>
                <polygon id="Fill-55" fill="#444444" points="223 12 235 12 235 0 223 0"></polygon>
                <polygon id="Fill-56" fill="#444444" points="209 12 221.001 12 221.001 0 209 0"></polygon>
                <polygon id="Fill-57" fill="#444444" points="195 12 207 12 207 0 195 0"></polygon>
                <polygon id="Fill-58" fill="#444444" points="181 12 193 12 193 0 181 0"></polygon>
                <polygon id="Fill-59" fill="#444444" points="265 26 277 26 277 14 265 14"></polygon>
                <polygon id="Fill-60" fill="#444444" points="251 26 263 26 263 14 251 14"></polygon>
                <polygon id="Fill-61" fill="#444444" points="237 26 249 26 249 14 237 14"></polygon>
                <polygon id="Fill-62" fill="#444444" points="167 26 179 26 179 14 167 14"></polygon>
                <polygon id="Fill-63" fill="#444444" points="153 26 165 26 165 14 153 14"></polygon>
                <polygon id="Fill-64" fill="#444444" points="251 40 263 40 263 28 251 28"></polygon>
                <polygon id="Fill-65" fill="#444444" points="153 40 165 40 165 28 153 28"></polygon>
                <polygon id="Fill-66" fill="#444444" points="251 54 263 54 263 42 251 42"></polygon>
                <polygon id="Fill-67" fill="#444444" points="153 54 165 54 165 42 153 42"></polygon>
                <polygon id="Fill-68" fill="#444444" points="251 68 263 68 263 56 251 56"></polygon>
                <polygon id="Fill-69" fill="#444444" points="153 68 165 68 165 56 153 56"></polygon>
                <polygon id="Fill-70" fill="#444444" points="237 82 249 82 249 70 237 70"></polygon>
                <polygon id="Fill-71" fill="#DDDDDD" points="223 26 235 26 235 14 223 14"></polygon>
                <polygon id="Fill-72" fill="#DDDDDD" points="209 26 221 26 221 14 209 14"></polygon>
                <polygon id="Fill-73" fill="#DDDDDD" points="195 26 207 26 207 14 195 14"></polygon>
                <polygon id="Fill-74" fill="#DDDDDD" points="181 26 193 26 193 14 181 14"></polygon>
                <polygon id="Fill-75" fill="#DDDDDD" points="237 40 249 40 249 28 237 28"></polygon>
                <polygon id="Fill-76" fill="#DDDDDD" points="223 40 235 40 235 28 223 28"></polygon>
                <polygon id="Fill-77" fill="#FFFFFF" points="209 40 221 40 221 28 209 28"></polygon>
                <polygon id="Fill-78" fill="#4A90E2" points="195 40 207 40 207 28 195 28"></polygon>
                <polygon id="Fill-79" fill="#DDDDDD" points="181 40 193 40 193 28 181 28"></polygon>
                <polygon id="Fill-80" fill="#DDDDDD" points="167 40 179 40 179 28 167 28"></polygon>
                <polygon id="Fill-81" fill="#DDDDDD" points="237 54 249 54 249 42 237 42"></polygon>
                <polygon id="Fill-82" fill="#FFFFFF" points="223 54 235 54 235 42 223 42"></polygon>
                <polygon id="Fill-83" fill="#4A90E2" points="209 54 221 54 221 42 209 42"></polygon>
                <polygon id="Fill-84" fill="#4A90E2" points="195 54 207 54 207 42 195 42"></polygon>
                <polygon id="Fill-85" fill="#4A90E2" points="181 54 193 54 193 42 181 42"></polygon>
                <polygon id="Fill-86" fill="#DDDDDD" points="167 54 179 54 179 42 167 42"></polygon>
                <polygon id="Fill-87" fill="#DDDDDD" points="237 68 249 68 249 56 237 56"></polygon>
                <polygon id="Fill-88" fill="#DDDDDD" points="223 68 235 68 235 56 223 56"></polygon>
                <polygon id="Fill-89" fill="#DDDDDD" points="209 68 221 68 221 56 209 56"></polygon>
                <polygon id="Fill-90" fill="#4A90E2" points="195 68 207 68 207 56 195 56"></polygon>
                <polygon id="Fill-91" fill="#DDDDDD" points="181 68 193 68 193 56 181 56"></polygon>
                <polygon id="Fill-92" fill="#DDDDDD" points="167 68 179 68 179 56 167 56"></polygon>
                <polygon id="Fill-93" fill="#DDDDDD" points="223 82 235 82 235 70 223 70"></polygon>
                <polygon id="Fill-94" fill="#DDDDDD" points="209 82 221 82 221 70 209 70"></polygon>
                <polygon id="Fill-95" fill="#DDDDDD" points="195 82 207 82 207 70 195 70"></polygon>
                <polygon id="Fill-96" fill="#DDDDDD" points="181 82 193 82 193 70 181 70"></polygon>
                <polygon id="Fill-97" fill="#444444" points="167 82 179 82 179 70 167 70"></polygon>
                <polygon id="Fill-98" fill="#444444" points="223 96 235 96 235 84 223 84"></polygon>
                <polygon id="Fill-99" fill="#444444" points="209 96 221 96 221 84 209 84"></polygon>
                <polygon id="Fill-100" fill="#444444" points="195 96 207 96 207 84 195 84"></polygon>
                <polygon id="Fill-101" fill="#444444" points="181 96 193 96 193 84 181 84"></polygon>
                <polygon id="Fill-102" fill="#DDDDDD" points="55 110 67 110 67 98 55 98"></polygon>
                <polygon id="Fill-103" fill="#DDDDDD" points="41 96 53 96 53 84 41 84"></polygon>
                <polygon id="Fill-104" fill="#DDDDDD" points="27 82 39 82 39 70 27 70"></polygon>
                <polygon id="Fill-105" fill="#DDDDDD" points="13 40 25 40 25 28 13 28"></polygon>
                <polygon id="Fill-106" fill="#DDDDDD" points="69 110 81 110 81 98 69 98"></polygon>
                <polygon id="Fill-107" fill="#DDDDDD" points="83 110 95 110 95 98 83 98"></polygon>
                <polygon id="Fill-108" fill="#DDDDDD" points="97 110 109 110 109 98 97 98"></polygon>
                <polygon id="Fill-109" fill="#DDDDDD" points="111 96 123 96 123 84 111 84"></polygon>
                <polygon id="Fill-110" fill="#DDDDDD" points="125 82 137 82 137 70 125 70"></polygon>
                <polygon id="Fill-111" fill="#DDDDDD" points="139 40 151 40 151 28 139 28"></polygon>
                <polygon id="Fill-112" fill="#DDDDDD" points="181 110 193 110 193 98 181 98"></polygon>
                <polygon id="Fill-113" fill="#DDDDDD" points="195 110 207 110 207 98 195 98"></polygon>
                <polygon id="Fill-114" fill="#DDDDDD" points="209 110 221 110 221 98 209 98"></polygon>
                <polygon id="Fill-115" fill="#DDDDDD" points="223 110 235 110 235 98 223 98"></polygon>
                <polygon id="Fill-116" fill="#DDDDDD" points="237 96 249 96 249 84 237 84"></polygon>
                <polygon id="Fill-117" fill="#DDDDDD" points="251 82 263 82 263 70 251 70"></polygon>
                <polygon id="Fill-118" fill="#DDDDDD" points="265 40 277 40 277 28 265 28"></polygon>
                <polygon id="Fill-119" fill="#DDDDDD" points="153 82 165 82 165 70 153 70"></polygon>
                <polygon id="Fill-120" fill="#DDDDDD" points="167 96 179 96 179 84 167 84"></polygon>
                <polygon id="Fill-121" fill="#DDDDDD" points="0 164 12 164 12 151.999 0 151.999"></polygon>
                <polygon id="Fill-122" fill="#DDDDDD" points="14 164 26 164 26 152 14 152"></polygon>
                <polygon id="Fill-123" fill="#DDDDDD" points="28 164 40 164 40 152 28 152"></polygon>
                <polygon id="Fill-124" fill="#DDDDDD" points="70 164 82 164 82 152 70 152"></polygon>
                <polygon id="Fill-125" fill="#DDDDDD" points="14 178 26 178 26 166 14 166"></polygon>
                <polygon id="Fill-126" fill="#DDDDDD" points="56 178 68 178 68 166 56 166"></polygon>
                <polygon id="Fill-127" fill="#DDDDDD" points="84 178 96 178 96 166 84 166"></polygon>
                <polygon id="Fill-128" fill="#DDDDDD" points="112 178 124 178 124 166 112 166"></polygon>
                <polygon id="Fill-129" fill="#DDDDDD" points="14 192 26 192 26 180 14 180"></polygon>
                <polygon id="Fill-130" fill="#DDDDDD" points="56 192 68 192 68 180 56 180"></polygon>
                <polygon id="Fill-131" fill="#DDDDDD" points="70 192 82 192 82 180 70 180"></polygon>
                <polygon id="Fill-132" fill="#DDDDDD" points="84 192 96 192 96 180 84 180"></polygon>
                <polygon id="Fill-133" fill="#DDDDDD" points="112 192 124 192 124 180 112 180"></polygon>
                <polygon id="Fill-134" fill="#DDDDDD" points="14 206 26 206 26 194 14 194"></polygon>
                <polygon id="Fill-135" fill="#DDDDDD" points="56 206 68 206 68 194 56 194"></polygon>
                <polygon id="Fill-136" fill="#DDDDDD" points="84 206 96 206 96 194 84 194"></polygon>
                <polygon id="Fill-137" fill="#DDDDDD" points="112 206 124 206 124 194 112 194"></polygon>
                <polygon id="Fill-138" fill="#DDDDDD" points="0 220 12 220 12 208 0 208"></polygon>
                <polygon id="Fill-139" fill="#DDDDDD" points="14 220 26 220 26 208 14 208"></polygon>
                <polygon id="Fill-140" fill="#DDDDDD" points="56 220 68.001 220 68.001 208 56 208"></polygon>
                <polygon id="Fill-141" fill="#DDDDDD" points="84 220 96.001 220 96.001 208 84 208"></polygon>
                <polygon id="Fill-142" fill="#DDDDDD" points="112 220 124.001 220 124.001 208 112 208"></polygon>
                <polygon id="Fill-143" fill="#DDDDDD" points="224 164 236 164 236 152 224 152"></polygon>
                <polygon id="Fill-144" fill="#DDDDDD" points="210 164 222 164 222 152 210 152"></polygon>
                <polygon id="Fill-145" fill="#DDDDDD" points="196 164 208 164 208 152 196 152"></polygon>
                <polygon id="Fill-146" fill="#DDDDDD" points="154 164 166 164 166 152 154 152"></polygon>
                <polygon id="Fill-147" fill="#DDDDDD" points="126 164 138 164 138 152 126 152"></polygon>
                <polygon id="Fill-148" fill="#DDDDDD" points="210 178 222 178 222 166 210 166"></polygon>
                <polygon id="Fill-149" fill="#DDDDDD" points="168 178 180 178 180 166 168 166"></polygon>
                <polygon id="Fill-150" fill="#DDDDDD" points="140 178 152 178 152 166 140 166"></polygon>
                <polygon id="Fill-151" fill="#DDDDDD" points="210 192 222 192 222 180 210 180"></polygon>
                <polygon id="Fill-152" fill="#DDDDDD" points="168 192 180 192 180 180 168 180"></polygon>
                <polygon id="Fill-153" fill="#DDDDDD" points="140 192 152 192 152 180 140 180"></polygon>
                <polygon id="Fill-154" fill="#DDDDDD" points="210 206 222 206 222 194 210 194"></polygon>
                <polygon id="Fill-155" fill="#DDDDDD" points="168 206 180 206 180 194 168 194"></polygon>
                <polygon id="Fill-156" fill="#DDDDDD" points="225 220 237 220 237 208 225 208"></polygon>
                <polygon id="Fill-157" fill="#DDDDDD" points="210 220 222.001 220 222.001 208 210 208"></polygon>
                <polygon id="Fill-158" fill="#DDDDDD" points="196 220 208 220 208 208 196 208"></polygon>
                <polygon id="Fill-159" fill="#DDDDDD" points="168 220 180 220 180 208 168 208"></polygon>
                <polygon id="Fill-160" fill="#DDDDDD" points="280 164 292 164 292 151.999 280 151.999"></polygon>
                <polygon id="Fill-161" fill="#DDDDDD" points="266 164 278 164 278 152 266 152"></polygon>
                <polygon id="Fill-162" fill="#DDDDDD" points="252 164 264 164 264 152 252 152"></polygon>
                <polygon id="Fill-163" fill="#DDDDDD" points="252 178 264 178 264 166 252 166"></polygon>
                <polygon id="Fill-164" fill="#DDDDDD" points="266 192 278 192 278 180 266 180"></polygon>
                <polygon id="Fill-165" fill="#DDDDDD" points="252 192 264 192 264 180 252 180"></polygon>
                <polygon id="Fill-166" fill="#DDDDDD" points="252 206 264 206 264 194 252 194"></polygon>
                <polygon id="Fill-167" fill="#DDDDDD" points="280 220 292 220 292 208 280 208"></polygon>
                <polygon id="Fill-168" fill="#DDDDDD" points="266 220 278 220 278 208 266 208"></polygon>
                <polygon id="Fill-169" fill="#DDDDDD" points="252 220 264 220 264 208 252 208"></polygon>
                <polygon id="Fill-170" fill="#444444" points="0 150 12 150 12 138 0 138"></polygon>
                <polygon id="Fill-171" fill="#444444" points="14 150 26 150 26 138 14 138"></polygon>
                <polygon id="Fill-172" fill="#444444" points="28 150 40 150 40 138 28 138"></polygon>
                <polygon id="Fill-173" fill="#444444" points="70 150 82 150 82 138 70 138"></polygon>
                <polygon id="Fill-174" fill="#444444" points="14 164 26 164 26 152 14 152"></polygon>
                <polygon id="Fill-175" fill="#444444" points="56 164 68 164 68 152 56 152"></polygon>
                <polygon id="Fill-176" fill="#444444" points="84 164 96 164 96 152 84 152"></polygon>
                <polygon id="Fill-177" fill="#444444" points="112 164 124 164 124 152 112 152"></polygon>
                <polygon id="Fill-178" fill="#444444" points="14 178 26 178 26 166 14 166"></polygon>
                <polygon id="Fill-179" fill="#444444" points="56 178 68 178 68 166 56 166"></polygon>
                <polygon id="Fill-180" fill="#444444" points="70 178 82 178 82 166 70 166"></polygon>
                <polygon id="Fill-181" fill="#444444" points="84 178 96 178 96 166 84 166"></polygon>
                <polygon id="Fill-182" fill="#444444" points="112 178 124 178 124 166 112 166"></polygon>
                <polygon id="Fill-183" fill="#444444" points="14 192 26 192 26 180 14 180"></polygon>
                <polygon id="Fill-184" fill="#444444" points="56 192 68 192 68 180 56 180"></polygon>
                <polygon id="Fill-185" fill="#444444" points="84 192 96 192 96 180 84 180"></polygon>
                <polygon id="Fill-186" fill="#444444" points="112 192 124 192 124 180 112 180"></polygon>
                <polygon id="Fill-187" fill="#444444" points="0 206 12 206 12 194 0 194"></polygon>
                <polygon id="Fill-188" fill="#444444" points="14 206 26 206 26 194 14 194"></polygon>
                <polygon id="Fill-189" fill="#444444" points="56 206 68 206 68 194 56 194"></polygon>
                <polygon id="Fill-190" fill="#444444" points="84 206 96 206 96 194 84 194"></polygon>
                <polygon id="Fill-191" fill="#444444" points="112 206 124 206 124 194 112 194"></polygon>
                <polygon id="Fill-192" fill="#444444" points="224 150 236 150 236 138 224 138"></polygon>
                <polygon id="Fill-193" fill="#444444" points="210 150 222 150 222 138 210 138"></polygon>
                <polygon id="Fill-194" fill="#444444" points="196 150 208 150 208 138 196 138"></polygon>
                <polygon id="Fill-195" fill="#444444" points="154 150 166 150 166 138 154 138"></polygon>
                <polygon id="Fill-196" fill="#444444" points="126 150 138 150 138 138 126 138"></polygon>
                <polygon id="Fill-197" fill="#444444" points="210 164 222 164 222 152 210 152"></polygon>
                <polygon id="Fill-198" fill="#444444" points="168 164 180 164 180 152 168 152"></polygon>
                <polygon id="Fill-199" fill="#444444" points="140 164 152 164 152 152 140 152"></polygon>
                <polygon id="Fill-200" fill="#444444" points="210 178 222 178 222 166 210 166"></polygon>
                <polygon id="Fill-201" fill="#444444" points="168 178 180 178 180 166 168 166"></polygon>
                <polygon id="Fill-202" fill="#444444" points="140 178 152 178 152 166 140 166"></polygon>
                <polygon id="Fill-203" fill="#444444" points="210 192 222 192 222 180 210 180"></polygon>
                <polygon id="Fill-204" fill="#444444" points="168 192 180 192 180 180 168 180"></polygon>
                <polygon id="Fill-205" fill="#444444" points="225 206 237 206 237 194 225 194"></polygon>
                <polygon id="Fill-206" fill="#444444" points="210 206 222 206 222 194 210 194"></polygon>
                <polygon id="Fill-207" fill="#444444" points="196 206 208 206 208 194 196 194"></polygon>
                <polygon id="Fill-208" fill="#444444" points="168 206 180 206 180 194 168 194"></polygon>
                <polygon id="Fill-209" fill="#444444" points="280 150 292 150 292 138 280 138"></polygon>
                <polygon id="Fill-210" fill="#444444" points="266 150 278 150 278 138 266 138"></polygon>
                <polygon id="Fill-211" fill="#444444" points="252 150 264 150 264 138 252 138"></polygon>
                <polygon id="Fill-212" fill="#444444" points="252 164 264 164 264 152 252 152"></polygon>
                <polygon id="Fill-213" fill="#444444" points="266 178 278 178 278 166 266 166"></polygon>
                <polygon id="Fill-214" fill="#444444" points="252 178 264 178 264 166 252 166"></polygon>
                <polygon id="Fill-215" fill="#444444" points="252 192 264 192 264 180 252 180"></polygon>
                <polygon id="Fill-216" fill="#444444" points="280 206 292 206 292 194 280 194"></polygon>
                <polygon id="Fill-217" fill="#444444" points="266 206 278 206 278 194 266 194"></polygon>
                <polygon id="Fill-218" fill="#444444" points="252 206 264 206 264 194 252 194"></polygon>
            </g>
        </g>
    </g>
</svg>