<?xml version="1.0" encoding="UTF-8" standalone="no"?>
<svg width="264px" height="110px" viewBox="0 0 264 110" version="1.1" xmlns="http://www.w3.org/2000/svg" xmlns:xlink="http://www.w3.org/1999/xlink">
    <!-- Generator: Sketch 45.1 (43504) - http://www.bohemiancoding.com/sketch -->
    <title>Group 11</title>
    <desc>Created with Sketch.</desc>
    <defs></defs>
    <g id="Page-1" stroke="none" stroke-width="1" fill="none" fill-rule="evenodd">
        <g id="Desktop-Copy-3" transform="translate(-357.000000, -80.000000)">
            <g id="Page-1" transform="translate(344.000000, 80.000000)">
                <g id="Group-11" transform="translate(13.000000, 0.000000)">
                    <polygon id="Fill-1" fill="#2F3132" points="0 12 12.001 12 12.001 0 0 0"></polygon>
                    <polygon id="Fill-2" fill="#2F3132" points="14 12 26 12 26 0 14 0"></polygon>
                    <polygon id="Fill-3" fill="#2F3132" points="28 12 40 12 40 0 28 0"></polygon>
                    <polygon id="Fill-4" fill="#2F3132" points="42 12 54 12 54 0 42 0"></polygon>
                    <polygon id="Fill-5" fill="#2F3132" points="56 12 68 12 68 0 56 0"></polygon>
                    <polygon id="Fill-6" fill="#2F3132" points="70 12 82.001 12 82.001 0 70 0"></polygon>
                    <polygon id="Fill-7" fill="#2F3132" points="84 12 96 12 96 0 84 0"></polygon>
                    <polygon id="Fill-8" fill="#2F3132" points="0 26 12 26 12 14 0 14"></polygon>
                    <polygon id="Fill-9" fill="#2F3132" points="14 26 26 26 26 14 14 14"></polygon>
                    <polygon id="Fill-10" fill="#2F3132" points="28 26 40 26 40 14 28 14"></polygon>
                    <polygon id="Fill-11" fill="#2F3132" points="98 26 110 26 110 14 98 14"></polygon>
                    <polygon id="Fill-12" fill="#2F3132" points="112 26 124 26 124 14 112 14"></polygon>
                    <polygon id="Fill-13" fill="#2F3132" points="126 26 138 26 138 14 126 14"></polygon>
                    <polygon id="Fill-14" fill="#2F3132" points="14 40 26 40 26 28 14 28"></polygon>
                    <polygon id="Fill-15" fill="#2F3132" points="112 40 124 40 124 28 112 28"></polygon>
                    <polygon id="Fill-16" fill="#2F3132" points="14 54 26 54 26 42 14 42"></polygon>
                    <polygon id="Fill-17" fill="#2F3132" points="112 54 124 54 124 42 112 42"></polygon>
                    <polygon id="Fill-18" fill="#2F3132" points="14 68 26 68 26 56 14 56"></polygon>
                    <polygon id="Fill-19" fill="#2F3132" points="112 68 124 68 124 56 112 56"></polygon>
                    <polygon id="Fill-20" fill="#2F3132" points="28 82 40 82 40 70 28 70"></polygon>
                    <polygon id="Fill-21" fill="#DDDDDD" points="42 26 54 26 54 14 42 14"></polygon>
                    <polygon id="Fill-22" fill="#DDDDDD" points="56 26 68 26 68 14 56 14"></polygon>
                    <polygon id="Fill-23" fill="#DDDDDD" points="70 26 82 26 82 14 70 14"></polygon>
                    <polygon id="Fill-24" fill="#DDDDDD" points="84 26 96 26 96 14 84 14"></polygon>
                    <polygon id="Fill-25" fill="#DDDDDD" points="28 40 40 40 40 28 28 28"></polygon>
                    <polygon id="Fill-26" fill="#DDDDDD" points="42 40 54 40 54 28 42 28"></polygon>
                    <polygon id="Fill-27" fill="#4A90E2" points="56 40 68 40 68 28 56 28"></polygon>
                    <polygon id="Fill-28" fill="#FFFFFF" points="70 40 82 40 82 28 70 28"></polygon>
                    <polygon id="Fill-29" fill="#DDDDDD" points="84 40 96 40 96 28 84 28"></polygon>
                    <polygon id="Fill-30" fill="#DDDDDD" points="98 40 110 40 110 28 98 28"></polygon>
                    <polygon id="Fill-31" fill="#DDDDDD" points="28 54 40 54 40 42 28 42"></polygon>
                    <polygon id="Fill-32" fill="#4A90E2" points="42 54 54 54 54 42 42 42"></polygon>
                    <polygon id="Fill-33" fill="#4A90E2" points="56 54 68 54 68 42 56 42"></polygon>
                    <polygon id="Fill-34" fill="#4A90E2" points="70 54 82 54 82 42 70 42"></polygon>
                    <polygon id="Fill-35" fill="#FFFFFF" points="84 54 96 54 96 42 84 42"></polygon>
                    <polygon id="Fill-36" fill="#DDDDDD" points="98 54 110 54 110 42 98 42"></polygon>
                    <polygon id="Fill-37" fill="#DDDDDD" points="28 68 40 68 40 56 28 56"></polygon>
                    <polygon id="Fill-38" fill="#DDDDDD" points="42 68 54 68 54 56 42 56"></polygon>
                    <polygon id="Fill-39" fill="#4A90E2" points="56 68 68 68 68 56 56 56"></polygon>
                    <polygon id="Fill-40" fill="#DDDDDD" points="70 68 82 68 82 56 70 56"></polygon>
                    <polygon id="Fill-41" fill="#DDDDDD" points="84 68 96 68 96 56 84 56"></polygon>
                    <polygon id="Fill-42" fill="#DDDDDD" points="98 68 110 68 110 56 98 56"></polygon>
                    <polygon id="Fill-43" fill="#DDDDDD" points="42 82 54 82 54 70 42 70"></polygon>
                    <polygon id="Fill-44" fill="#DDDDDD" points="56 82 68 82 68 70 56 70"></polygon>
                    <polygon id="Fill-45" fill="#DDDDDD" points="70 82 82 82 82 70 70 70"></polygon>
                    <polygon id="Fill-46" fill="#DDDDDD" points="84 82 96 82 96 70 84 70"></polygon>
                    <polygon id="Fill-47" fill="#2F3132" points="98 82 110 82 110 70 98 70"></polygon>
                    <polygon id="Fill-48" fill="#2F3132" points="42 96 54 96 54 84 42 84"></polygon>
                    <polygon id="Fill-49" fill="#2F3132" points="56 96 68 96 68 84 56 84"></polygon>
                    <polygon id="Fill-50" fill="#2F3132" points="70 96 82 96 82 84 70 84"></polygon>
                    <polygon id="Fill-51" fill="#2F3132" points="84 96 96 96 96 84 84 84"></polygon>
                    <polygon id="Fill-52" fill="#2F3132" points="252 12 264.001 12 264.001 0 252 0"></polygon>
                    <polygon id="Fill-53" fill="#2F3132" points="238 12 250 12 250 0 238 0"></polygon>
                    <polygon id="Fill-54" fill="#2F3132" points="224 12 236.001 12 236.001 0 224 0"></polygon>
                    <polygon id="Fill-55" fill="#2F3132" points="210 12 222 12 222 0 210 0"></polygon>
                    <polygon id="Fill-56" fill="#2F3132" points="196 12 208.001 12 208.001 0 196 0"></polygon>
                    <polygon id="Fill-57" fill="#2F3132" points="182 12 194 12 194 0 182 0"></polygon>
                    <polygon id="Fill-58" fill="#2F3132" points="168 12 180 12 180 0 168 0"></polygon>
                    <polygon id="Fill-59" fill="#2F3132" points="252 26 264 26 264 14 252 14"></polygon>
                    <polygon id="Fill-60" fill="#2F3132" points="238 26 250 26 250 14 238 14"></polygon>
                    <polygon id="Fill-61" fill="#2F3132" points="224 26 236 26 236 14 224 14"></polygon>
                    <polygon id="Fill-62" fill="#2F3132" points="154 26 166 26 166 14 154 14"></polygon>
                    <polygon id="Fill-63" fill="#2F3132" points="140 26 152 26 152 14 140 14"></polygon>
                    <polygon id="Fill-64" fill="#2F3132" points="238 40 250 40 250 28 238 28"></polygon>
                    <polygon id="Fill-65" fill="#2F3132" points="140 40 152 40 152 28 140 28"></polygon>
                    <polygon id="Fill-66" fill="#2F3132" points="238 54 250 54 250 42 238 42"></polygon>
                    <polygon id="Fill-67" fill="#2F3132" points="140 54 152 54 152 42 140 42"></polygon>
                    <polygon id="Fill-68" fill="#2F3132" points="238 68 250 68 250 56 238 56"></polygon>
                    <polygon id="Fill-69" fill="#2F3132" points="140 68 152 68 152 56 140 56"></polygon>
                    <polygon id="Fill-70" fill="#2F3132" points="224 82 236 82 236 70 224 70"></polygon>
                    <polygon id="Fill-71" fill="#DDDDDD" points="210 26 222 26 222 14 210 14"></polygon>
                    <polygon id="Fill-72" fill="#DDDDDD" points="196 26 208 26 208 14 196 14"></polygon>
                    <polygon id="Fill-73" fill="#DDDDDD" points="182 26 194 26 194 14 182 14"></polygon>
                    <polygon id="Fill-74" fill="#DDDDDD" points="168 26 180 26 180 14 168 14"></polygon>
                    <polygon id="Fill-75" fill="#DDDDDD" points="224 40 236 40 236 28 224 28"></polygon>
                    <polygon id="Fill-76" fill="#DDDDDD" points="210 40 222 40 222 28 210 28"></polygon>
                    <polygon id="Fill-77" fill="#FFFFFF" points="196 40 208 40 208 28 196 28"></polygon>
                    <polygon id="Fill-78" fill="#4A90E2" points="182 40 194 40 194 28 182 28"></polygon>
                    <polygon id="Fill-79" fill="#DDDDDD" points="168 40 180 40 180 28 168 28"></polygon>
                    <polygon id="Fill-80" fill="#DDDDDD" points="154 40 166 40 166 28 154 28"></polygon>
                    <polygon id="Fill-81" fill="#DDDDDD" points="224 54 236 54 236 42 224 42"></polygon>
                    <polygon id="Fill-82" fill="#FFFFFF" points="210 54 222 54 222 42 210 42"></polygon>
                    <polygon id="Fill-83" fill="#4A90E2" points="196 54 208 54 208 42 196 42"></polygon>
                    <polygon id="Fill-84" fill="#4A90E2" points="182 54 194 54 194 42 182 42"></polygon>
                    <polygon id="Fill-85" fill="#4A90E2" points="168 54 180 54 180 42 168 42"></polygon>
                    <polygon id="Fill-86" fill="#DDDDDD" points="154 54 166 54 166 42 154 42"></polygon>
                    <polygon id="Fill-87" fill="#DDDDDD" points="224 68 236 68 236 56 224 56"></polygon>
                    <polygon id="Fill-88" fill="#DDDDDD" points="210 68 222 68 222 56 210 56"></polygon>
                    <polygon id="Fill-89" fill="#DDDDDD" points="196 68 208 68 208 56 196 56"></polygon>
                    <polygon id="Fill-90" fill="#4A90E2" points="182 68 194 68 194 56 182 56"></polygon>
                    <polygon id="Fill-91" fill="#DDDDDD" points="168 68 180 68 180 56 168 56"></polygon>
                    <polygon id="Fill-92" fill="#DDDDDD" points="154 68 166 68 166 56 154 56"></polygon>
                    <polygon id="Fill-93" fill="#DDDDDD" points="210 82 222 82 222 70 210 70"></polygon>
                    <polygon id="Fill-94" fill="#DDDDDD" points="196 82 208 82 208 70 196 70"></polygon>
                    <polygon id="Fill-95" fill="#DDDDDD" points="182 82 194 82 194 70 182 70"></polygon>
                    <polygon id="Fill-96" fill="#DDDDDD" points="168 82 180 82 180 70 168 70"></polygon>
                    <polygon id="Fill-97" fill="#2F3132" points="154 82 166 82 166 70 154 70"></polygon>
                    <polygon id="Fill-98" fill="#2F3132" points="210 96 222 96 222 84 210 84"></polygon>
                    <polygon id="Fill-99" fill="#2F3132" points="196 96 208 96 208 84 196 84"></polygon>
                    <polygon id="Fill-100" fill="#2F3132" points="182 96 194 96 194 84 182 84"></polygon>
                    <polygon id="Fill-101" fill="#2F3132" points="168 96 180 96 180 84 168 84"></polygon>
                    <polygon id="Fill-102" fill="#DDDDDD" points="42 110 54 110 54 98 42 98"></polygon>
                    <polygon id="Fill-103" fill="#DDDDDD" points="28 96 40 96 40 84 28 84"></polygon>
                    <polygon id="Fill-104" fill="#DDDDDD" points="14 82 26 82 26 70 14 70"></polygon>
                    <polygon id="Fill-105" fill="#DDDDDD" points="0 40 12 40 12 28 0 28"></polygon>
                    <polygon id="Fill-106" fill="#DDDDDD" points="56 110 68 110 68 98 56 98"></polygon>
                    <polygon id="Fill-107" fill="#DDDDDD" points="70 110 82 110 82 98 70 98"></polygon>
                    <polygon id="Fill-108" fill="#DDDDDD" points="84 110 96 110 96 98 84 98"></polygon>
                    <polygon id="Fill-109" fill="#DDDDDD" points="98 96 110 96 110 84 98 84"></polygon>
                    <polygon id="Fill-110" fill="#DDDDDD" points="112 82 124 82 124 70 112 70"></polygon>
                    <polygon id="Fill-111" fill="#DDDDDD" points="126 40 138 40 138 28 126 28"></polygon>
                    <polygon id="Fill-112" fill="#DDDDDD" points="168 110 180 110 180 98 168 98"></polygon>
                    <polygon id="Fill-113" fill="#DDDDDD" points="182 110 194 110 194 98 182 98"></polygon>
                    <polygon id="Fill-114" fill="#DDDDDD" points="196 110 208 110 208 98 196 98"></polygon>
                    <polygon id="Fill-115" fill="#DDDDDD" points="210 110 222 110 222 98 210 98"></polygon>
                    <polygon id="Fill-116" fill="#DDDDDD" points="224 96 236 96 236 84 224 84"></polygon>
                    <polygon id="Fill-117" fill="#DDDDDD" points="238 82 250 82 250 70 238 70"></polygon>
                    <polygon id="Fill-118" fill="#DDDDDD" points="252 40 264 40 264 28 252 28"></polygon>
                    <polygon id="Fill-119" fill="#DDDDDD" points="140 82 152 82 152 70 140 70"></polygon>
                    <polygon id="Fill-120" fill="#DDDDDD" points="154 96 166 96 166 84 154 84"></polygon>
                </g>
            </g>
        </g>
    </g>
</svg>