<?xml version="1.0" encoding="UTF-8" standalone="no"?>
<svg width="292px" height="82px" viewBox="0 0 292 82" version="1.1" xmlns="http://www.w3.org/2000/svg" xmlns:xlink="http://www.w3.org/1999/xlink">
    <!-- Generator: Sketch 45.1 (43504) - http://www.bohemiancoding.com/sketch -->
    <title>Group 12</title>
    <desc>Created with Sketch.</desc>
    <defs></defs>
    <g id="Page-1" stroke="none" stroke-width="1" fill="none" fill-rule="evenodd">
        <g id="Desktop-Copy-3" transform="translate(-344.000000, -218.000000)">
            <g id="Page-1" transform="translate(344.000000, 80.000000)">
                <g id="Group-12" transform="translate(0.000000, 138.000000)">
                    <polygon id="Fill-121" fill="#DDDDDD" points="0 26 12 26 12 13.999 0 13.999"></polygon>
                    <polygon id="Fill-122" fill="#DDDDDD" points="14 26 26 26 26 14 14 14"></polygon>
                    <polygon id="Fill-123" fill="#DDDDDD" points="28 26 40 26 40 14 28 14"></polygon>
                    <polygon id="Fill-124" fill="#DDDDDD" points="70 26 82 26 82 14 70 14"></polygon>
                    <polygon id="Fill-125" fill="#DDDDDD" points="14 40 26 40 26 28 14 28"></polygon>
                    <polygon id="Fill-126" fill="#DDDDDD" points="56 40 68 40 68 28 56 28"></polygon>
                    <polygon id="Fill-127" fill="#DDDDDD" points="84 40 96 40 96 28 84 28"></polygon>
                    <polygon id="Fill-128" fill="#DDDDDD" points="112 40 124 40 124 28 112 28"></polygon>
                    <polygon id="Fill-129" fill="#DDDDDD" points="14 54 26 54 26 42 14 42"></polygon>
                    <polygon id="Fill-130" fill="#DDDDDD" points="56 54 68 54 68 42 56 42"></polygon>
                    <polygon id="Fill-131" fill="#DDDDDD" points="70 54 82 54 82 42 70 42"></polygon>
                    <polygon id="Fill-132" fill="#DDDDDD" points="84 54 96 54 96 42 84 42"></polygon>
                    <polygon id="Fill-133" fill="#DDDDDD" points="112 54 124 54 124 42 112 42"></polygon>
                    <polygon id="Fill-134" fill="#DDDDDD" points="14 68 26 68 26 56 14 56"></polygon>
                    <polygon id="Fill-135" fill="#DDDDDD" points="56 68 68 68 68 56 56 56"></polygon>
                    <polygon id="Fill-136" fill="#DDDDDD" points="84 68 96 68 96 56 84 56"></polygon>
                    <polygon id="Fill-137" fill="#DDDDDD" points="112 68 124 68 124 56 112 56"></polygon>
                    <polygon id="Fill-138" fill="#DDDDDD" points="0 82 12 82 12 70 0 70"></polygon>
                    <polygon id="Fill-139" fill="#DDDDDD" points="14 82 26 82 26 70 14 70"></polygon>
                    <polygon id="Fill-140" fill="#DDDDDD" points="56 82 68.001 82 68.001 70 56 70"></polygon>
                    <polygon id="Fill-141" fill="#DDDDDD" points="84 82 96.001 82 96.001 70 84 70"></polygon>
                    <polygon id="Fill-142" fill="#DDDDDD" points="112 82 124.001 82 124.001 70 112 70"></polygon>
                    <polygon id="Fill-143" fill="#DDDDDD" points="224 26 236 26 236 14 224 14"></polygon>
                    <polygon id="Fill-144" fill="#DDDDDD" points="210 26 222 26 222 14 210 14"></polygon>
                    <polygon id="Fill-145" fill="#DDDDDD" points="196 26 208 26 208 14 196 14"></polygon>
                    <polygon id="Fill-146" fill="#DDDDDD" points="154 26 166 26 166 14 154 14"></polygon>
                    <polygon id="Fill-147" fill="#DDDDDD" points="126 26 138 26 138 14 126 14"></polygon>
                    <polygon id="Fill-148" fill="#DDDDDD" points="210 40 222 40 222 28 210 28"></polygon>
                    <polygon id="Fill-149" fill="#DDDDDD" points="168 40 180 40 180 28 168 28"></polygon>
                    <polygon id="Fill-150" fill="#DDDDDD" points="140 40 152 40 152 28 140 28"></polygon>
                    <polygon id="Fill-151" fill="#DDDDDD" points="210 54 222 54 222 42 210 42"></polygon>
                    <polygon id="Fill-152" fill="#DDDDDD" points="168 54 180 54 180 42 168 42"></polygon>
                    <polygon id="Fill-153" fill="#DDDDDD" points="140 54 152 54 152 42 140 42"></polygon>
                    <polygon id="Fill-154" fill="#DDDDDD" points="210 68 222 68 222 56 210 56"></polygon>
                    <polygon id="Fill-155" fill="#DDDDDD" points="168 68 180 68 180 56 168 56"></polygon>
                    <polygon id="Fill-156" fill="#DDDDDD" points="225 82 237 82 237 70 225 70"></polygon>
                    <polygon id="Fill-157" fill="#DDDDDD" points="210 82 222.001 82 222.001 70 210 70"></polygon>
                    <polygon id="Fill-158" fill="#DDDDDD" points="196 82 208 82 208 70 196 70"></polygon>
                    <polygon id="Fill-159" fill="#DDDDDD" points="168 82 180 82 180 70 168 70"></polygon>
                    <polygon id="Fill-160" fill="#DDDDDD" points="280 26 292 26 292 13.999 280 13.999"></polygon>
                    <polygon id="Fill-161" fill="#DDDDDD" points="266 26 278 26 278 14 266 14"></polygon>
                    <polygon id="Fill-162" fill="#DDDDDD" points="252 26 264 26 264 14 252 14"></polygon>
                    <polygon id="Fill-163" fill="#DDDDDD" points="252 40 264 40 264 28 252 28"></polygon>
                    <polygon id="Fill-164" fill="#DDDDDD" points="266 54 278 54 278 42 266 42"></polygon>
                    <polygon id="Fill-165" fill="#DDDDDD" points="252 54 264 54 264 42 252 42"></polygon>
                    <polygon id="Fill-166" fill="#DDDDDD" points="252 68 264 68 264 56 252 56"></polygon>
                    <polygon id="Fill-167" fill="#DDDDDD" points="280 82 292 82 292 70 280 70"></polygon>
                    <polygon id="Fill-168" fill="#DDDDDD" points="266 82 278 82 278 70 266 70"></polygon>
                    <polygon id="Fill-169" fill="#DDDDDD" points="252 82 264 82 264 70 252 70"></polygon>
                    <polygon id="Fill-170" fill="#2F3132" points="0 12 12 12 12 0 0 0"></polygon>
                    <polygon id="Fill-171" fill="#2F3132" points="14 12 26 12 26 0 14 0"></polygon>
                    <polygon id="Fill-172" fill="#2F3132" points="28 12 40 12 40 0 28 0"></polygon>
                    <polygon id="Fill-173" fill="#2F3132" points="70 12 82 12 82 0 70 0"></polygon>
                    <polygon id="Fill-174" fill="#2F3132" points="14 26 26 26 26 14 14 14"></polygon>
                    <polygon id="Fill-175" fill="#2F3132" points="56 26 68 26 68 14 56 14"></polygon>
                    <polygon id="Fill-176" fill="#2F3132" points="84 26 96 26 96 14 84 14"></polygon>
                    <polygon id="Fill-177" fill="#2F3132" points="112 26 124 26 124 14 112 14"></polygon>
                    <polygon id="Fill-178" fill="#2F3132" points="14 40 26 40 26 28 14 28"></polygon>
                    <polygon id="Fill-179" fill="#2F3132" points="56 40 68 40 68 28 56 28"></polygon>
                    <polygon id="Fill-180" fill="#2F3132" points="70 40 82 40 82 28 70 28"></polygon>
                    <polygon id="Fill-181" fill="#2F3132" points="84 40 96 40 96 28 84 28"></polygon>
                    <polygon id="Fill-182" fill="#2F3132" points="112 40 124 40 124 28 112 28"></polygon>
                    <polygon id="Fill-183" fill="#2F3132" points="14 54 26 54 26 42 14 42"></polygon>
                    <polygon id="Fill-184" fill="#2F3132" points="56 54 68 54 68 42 56 42"></polygon>
                    <polygon id="Fill-185" fill="#2F3132" points="84 54 96 54 96 42 84 42"></polygon>
                    <polygon id="Fill-186" fill="#2F3132" points="112 54 124 54 124 42 112 42"></polygon>
                    <polygon id="Fill-187" fill="#2F3132" points="0 68 12 68 12 56 0 56"></polygon>
                    <polygon id="Fill-188" fill="#2F3132" points="14 68 26 68 26 56 14 56"></polygon>
                    <polygon id="Fill-189" fill="#2F3132" points="56 68 68 68 68 56 56 56"></polygon>
                    <polygon id="Fill-190" fill="#2F3132" points="84 68 96 68 96 56 84 56"></polygon>
                    <polygon id="Fill-191" fill="#2F3132" points="112 68 124 68 124 56 112 56"></polygon>
                    <polygon id="Fill-192" fill="#2F3132" points="224 12 236 12 236 0 224 0"></polygon>
                    <polygon id="Fill-193" fill="#2F3132" points="210 12 222 12 222 0 210 0"></polygon>
                    <polygon id="Fill-194" fill="#2F3132" points="196 12 208 12 208 0 196 0"></polygon>
                    <polygon id="Fill-195" fill="#2F3132" points="154 12 166 12 166 0 154 0"></polygon>
                    <polygon id="Fill-196" fill="#2F3132" points="126 12 138 12 138 0 126 0"></polygon>
                    <polygon id="Fill-197" fill="#2F3132" points="210 26 222 26 222 14 210 14"></polygon>
                    <polygon id="Fill-198" fill="#2F3132" points="168 26 180 26 180 14 168 14"></polygon>
                    <polygon id="Fill-199" fill="#2F3132" points="140 26 152 26 152 14 140 14"></polygon>
                    <polygon id="Fill-200" fill="#2F3132" points="210 40 222 40 222 28 210 28"></polygon>
                    <polygon id="Fill-201" fill="#2F3132" points="168 40 180 40 180 28 168 28"></polygon>
                    <polygon id="Fill-202" fill="#2F3132" points="140 40 152 40 152 28 140 28"></polygon>
                    <polygon id="Fill-203" fill="#2F3132" points="210 54 222 54 222 42 210 42"></polygon>
                    <polygon id="Fill-204" fill="#2F3132" points="168 54 180 54 180 42 168 42"></polygon>
                    <polygon id="Fill-205" fill="#2F3132" points="225 68 237 68 237 56 225 56"></polygon>
                    <polygon id="Fill-206" fill="#2F3132" points="210 68 222 68 222 56 210 56"></polygon>
                    <polygon id="Fill-207" fill="#2F3132" points="196 68 208 68 208 56 196 56"></polygon>
                    <polygon id="Fill-208" fill="#2F3132" points="168 68 180 68 180 56 168 56"></polygon>
                    <polygon id="Fill-209" fill="#2F3132" points="280 12 292 12 292 0 280 0"></polygon>
                    <polygon id="Fill-210" fill="#2F3132" points="266 12 278 12 278 0 266 0"></polygon>
                    <polygon id="Fill-211" fill="#2F3132" points="252 12 264 12 264 0 252 0"></polygon>
                    <polygon id="Fill-212" fill="#2F3132" points="252 26 264 26 264 14 252 14"></polygon>
                    <polygon id="Fill-213" fill="#2F3132" points="266 40 278 40 278 28 266 28"></polygon>
                    <polygon id="Fill-214" fill="#2F3132" points="252 40 264 40 264 28 252 28"></polygon>
                    <polygon id="Fill-215" fill="#2F3132" points="252 54 264 54 264 42 252 42"></polygon>
                    <polygon id="Fill-216" fill="#2F3132" points="280 68 292 68 292 56 280 56"></polygon>
                    <polygon id="Fill-217" fill="#2F3132" points="266 68 278 68 278 56 266 56"></polygon>
                    <polygon id="Fill-218" fill="#2F3132" points="252 68 264 68 264 56 252 56"></polygon>
                </g>
            </g>
        </g>
    </g>
</svg>