<?xml version="1.0" encoding="utf-8"?>
<svg version="1.1" id="Layer_1" xmlns="http://www.w3.org/2000/svg" xmlns:xlink="http://www.w3.org/1999/xlink" x="0px" y="0px"
	 viewBox="0 0 559.5 130.1" enable-background="new 0 0 559.5 130.1" xml:space="preserve">
<path id="XMLID_1_" fill="#4e4b4a" d="M559.5,6.7v123.4H458.4v-8h93.1V14.7H299.1v95.5H285V15.7c0-0.4,0-0.7,0.1-1.1h-60.6v-8H559.5
	z M8,14.7h178.6v-8H0v123.4h420.7v-8H8V14.7z M212.9,110.2V25.5l-14.2,11.3v73.3H212.9z M212.9,0h-6.7c-4.1,0-7.5,3.4-7.5,7.5v17.2
	l14.2-11.4V0z M18.4,83.1v9.4c0,12.3,7.4,18.6,22.3,18.6h2.8c15.1,0,22.7-6.4,22.7-18.9v-8.4c0-8.4-3.5-12.3-11.7-16.6l-16.8-8.7
	c-3.9-2-5.2-4.2-5.2-7.9v-7.3c0-4.8,2.8-7.1,8.6-7.1h2.4c5.8,0,8.6,2.3,8.6,7.1v9.6h14v-8.8c0-12.3-7.4-18.6-22.3-18.6h-2.4
	c-15.1,0-22.7,6.4-22.7,18.9v7.8c0,8.4,3.7,12.3,11.7,16.6l16.8,8.7c3.7,2,5.2,4.3,5.2,7.9v7.9c0,4.8-2.8,7.1-8.6,7.1h-2.8
	c-5.8,0-8.6-2.3-8.6-7.1V83.1H18.4z M103.9,25.5c15.1,0,22.7,6.4,22.7,18.9v47.8c0,12.6-7.6,18.9-22.7,18.9h-4.1
	c-15.1,0-22.7-6.4-22.7-18.9V44.4c0-12.6,7.6-18.9,22.7-18.9H103.9z M103.5,36.5h-3.4c-6,0-8.9,2.5-8.9,7.4v48.7c0,5,3,7.4,8.9,7.4
	h3.4c6,0,8.9-2.5,8.9-7.4V43.9C112.5,39,109.5,36.5,103.5,36.5z M186.4,53.2v-9.1c0-12.4-7.4-18.6-22.3-18.6h-3.5
	c-15.1,0-22.7,6.4-22.7,18.9v47.8c0,12.6,7.6,18.9,22.7,18.9h3.4c15.1,0,22.7-6.4,22.7-18.9v-8.6h-14v9.1c0,5-3,7.4-8.9,7.4h-2.8
	c-6,0-8.9-2.5-8.9-7.4V43.9c0-5,3-7.4,8.9-7.4h2.6c6,0,8.9,2.5,8.9,7.4v9.3H186.4z M224.4,96.4V81c0-10.4,4.1-14.6,14.9-17.7l19-5.4
	v-14c0-5-3-7.6-8.9-7.6h-1.1c-6,0-8.9,2.6-8.9,7.6v7.4h-13.8v-6.9c0-12.6,7.6-18.9,22.7-18.9h1.5c15.1,0,22.7,6.4,22.7,18.9v65.8
	h-8.9c-2.9,0-5.3-2.4-5.3-5.3c-3.9,3.1-9.1,6.2-17.3,6.2C229.6,111.1,224.4,105.7,224.4,96.4z M238.6,93.9c0,4,2.4,6.1,6.9,6.1
	c4.3,0,8.2-1.2,12.8-3.9V68.7l-12.8,3.7c-5.2,1.7-6.9,3.9-6.9,8.7V93.9z M360,53.2v-9.1c0-12.4-7.4-18.6-22.3-18.6h-3.5
	c-15.1,0-22.7,6.4-22.7,18.9v47.8c0,12.6,7.6,18.9,22.7,18.9h3.4c15.1,0,22.7-6.4,22.7-18.9v-8.6h-14v9.1c0,5-3,7.4-8.9,7.4h-2.8
	c-6,0-8.9-2.5-8.9-7.4V43.9c0-5,3-7.4,8.9-7.4h2.6c6,0,8.9,2.5,8.9,7.4v9.3H360z M420.7,44.4v47.8c0,12.6-7.6,18.9-22.7,18.9h-4.1
	c-15.1,0-22.7-6.4-22.7-18.9V44.4c0-12.6,7.6-18.9,22.7-18.9h4.1C413.1,25.5,420.7,31.8,420.7,44.4z M406.6,43.9c0-5-3-7.4-8.9-7.4
	h-3.4c-6,0-8.9,2.5-8.9,7.4v48.7c0,5,3,7.4,8.9,7.4h3.4c6,0,8.9-2.5,8.9-7.4V43.9z M464,111.1c-8.2,0-14-3.3-17.3-6.1v14.7
	c0,4.1-3.4,7.5-7.5,7.5h-6.6V26.4h14.2v5.4c3.4-2.9,9.1-6.4,17.3-6.4c12.1,0,18.1,6.7,18.1,16.6v52.4
	C482,104.4,476.1,111.1,464,111.1z M459.7,99.9c5.2,0,8.2-2,8.2-6.8V43.5c0-4.8-3-6.8-8.2-6.8c-4.7,0-9.1,1.6-13,4.3v54.6
	C450.6,98.4,455,99.9,459.7,99.9z M493.2,83.1v9.4c0,12.3,7.4,18.6,22.3,18.6h2.8c15.1,0,22.7-6.4,22.7-18.9v-8.4
	c0-8.4-3.5-12.3-11.7-16.6l-16.8-8.7c-3.9-2-5.2-4.2-5.2-7.9v-7.3c0-4.8,2.8-7.1,8.6-7.1h2.4c5.8,0,8.6,2.3,8.6,7.1v9.6h14v-8.8
	c0-12.3-7.4-18.6-22.3-18.6h-2.4c-15.1,0-22.7,6.4-22.7,18.9v7.8c0,8.4,3.7,12.3,11.7,16.6l16.8,8.7c3.7,2,5.2,4.3,5.2,7.9v7.9
	c0,4.8-2.8,7.1-8.6,7.1h-2.8c-5.8,0-8.6-2.3-8.6-7.1V83.1H493.2z"/>
</svg>
