<?xml version="1.0" encoding="UTF-8" standalone="no"?>
<svg width="34px" height="20px" viewBox="0 0 34 20" version="1.1" xmlns="http://www.w3.org/2000/svg" xmlns:xlink="http://www.w3.org/1999/xlink">
    <!-- Generator: Sketch 45.1 (43504) - http://www.bohemiancoding.com/sketch -->
    <title>Group 13</title>
    <desc>Created with Sketch.</desc>
    <defs></defs>
    <g id="Page-1" stroke="none" stroke-width="1" fill="none" fill-rule="evenodd" opacity="0.300000012">
        <g id="Mobile" transform="translate(-253.000000, -460.000000)" fill="#ffffff">
            <g id="Group-8" transform="translate(253.000000, 460.000000)">
                <g id="Group-7">
                    <g id="Group-13">
                        <polygon id="Fill-10-Copy" points="21 6 27 6 27 0 21 0"></polygon>
                        <polygon id="Fill-10-Copy-3" points="0 6 6 6 6 0 0 0"></polygon>
                        <polygon id="Fill-21-Copy" points="28 6 34 6 34 0 28 0"></polygon>
                        <polygon id="Fill-21-Copy-3" points="7 6 13 6 13 0 7 0"></polygon>
                        <polygon id="Fill-25-Copy" points="21 13 27 13 27 7 21 7"></polygon>
                        <polygon id="Fill-25-Copy-3" points="0 13 6 13 6 7 0 7"></polygon>
                        <polygon id="Fill-26-Copy" points="28 13 34 13 34 7 28 7"></polygon>
                        <polygon id="Fill-26-Copy-3" points="7 13 13 13 13 7 7 7"></polygon>
                        <polygon id="Fill-31-Copy" points="28 20 34 20 34 14 28 14"></polygon>
                        <polygon id="Fill-31-Copy-3" points="7 20 13 20 13 14 7 14"></polygon>
                    </g>
                </g>
            </g>
        </g>
    </g>
</svg>