<svg xmlns="http://www.w3.org/2000/svg">
  <symbol id="grid" viewBox="0 0 24 24">
    <path d="M0 0h6.292v6.292H0V0zm0 9.224h6.292v6.292H0V9.224zM8.855 0h6.292v6.292H8.855V0zm0 9.224h6.292v6.292H8.855V9.224zM17.71 0h6.292v6.292H17.71V0zm0 9.224h6.292v6.292H17.71V9.224zM0 18.448h6.292v6.292H0v-6.292zm8.855 0h6.292v6.292H8.855v-6.292zm8.855 0h6.292v6.292H17.71v-6.292z"/>
  </symbol>

  <symbol id="arrow-right" viewBox="0 0 24 24">
    <path d="M5 22.38L15.11 12 5 1.62 6.56 0 18.2 12 6.56 24"/>
  </symbol>

  <symbol id="facebook" viewBox="0 0 24 24">
    <path fill-rule="evenodd" d="M22.618 23.936c.727 0 1.318-.59 1.318-1.318V1.373c0-.73-.59-1.32-1.318-1.32H1.373c-.73 0-1.32.59-1.32 1.32v21.245c0 .728.59 1.318 1.32 1.318h21.245zm-6.086 0v-9.248h3.104l.465-3.605h-3.568v-2.3c0-1.044.29-1.755 1.786-1.755h1.91V3.802c-.33-.044-1.464-.142-2.782-.142-2.752 0-4.636 1.68-4.636 4.765v2.658H9.698v3.605h3.112v9.248h3.722z"/>
  </symbol>

  <symbol id="twitter" viewBox="0 0 24 24">
    <path d="M7.578 21.454c8.996 0 13.916-7.453 13.916-13.916 0-.212-.004-.423-.013-.633.956-.69 1.786-1.552 2.44-2.532-.876.39-1.82.65-2.808.77 1.01-.606 1.785-1.564 2.15-2.706-.945.56-1.99.968-3.105 1.188-.893-.95-2.164-1.546-3.57-1.546-2.702 0-4.892 2.19-4.892 4.89 0 .384.043.757.127 1.115-4.066-.205-7.67-2.15-10.083-5.11-.42.722-.663 1.562-.663 2.458 0 1.697.863 3.195 2.176 4.07-.802-.023-1.556-.244-2.215-.61v.062c0 2.37 1.686 4.347 3.924 4.795-.41.112-.844.172-1.29.172-.315 0-.62-.03-.92-.088.623 1.943 2.43 3.357 4.57 3.397-1.674 1.313-3.783 2.095-6.075 2.095-.394 0-.784-.023-1.167-.068 2.165 1.387 4.735 2.197 7.498 2.197"/>
  </symbol>

  <symbol id="instagram" viewBox="0 0 24 24">
    <path d="M12 16.67c2.54 0 4.6-2.058 4.6-4.6 0-2.54-2.06-4.6-4.6-4.6-2.54 0-4.6 2.06-4.6 4.6 0 2.542 2.06 4.6 4.6 4.6zM9.484 9.552c.672-.67 1.565-1.04 2.516-1.04.95 0 1.845.37 2.518 1.04.672.674 1.04 1.568 1.04 2.518 0 .952-.368 1.846-1.04 2.518-.673.673-1.567 1.042-2.518 1.042-.95 0-1.844-.37-2.516-1.042-.673-.672-1.043-1.566-1.043-2.518 0-.95.37-1.844 1.044-2.518zM18.48 0H5.52c-.294 0-.582.024-.864.068h.884v5.57H4.5V.095C4.14.163 3.79.266 3.46.4v5.237H2.42V.954C.96 1.947 0 3.62 0 5.52v1.95h7.473c1.162-1.137 2.75-1.84 4.507-1.84 1.754 0 3.344.703 4.505 1.84H24V5.52C24 2.472 21.53 0 18.48 0zm2.66 5.63h-2.72V2.91h2.72v2.72z"/>
    <path d="M18.42 12.07c0 3.557-2.885 6.44-6.44 6.44-3.558 0-6.44-2.883-6.44-6.44 0-1.315.394-2.538 1.073-3.56H0v9.97C0 21.528 2.473 24 5.52 24h12.96c3.05 0 5.52-2.472 5.52-5.52V8.51h-6.655c.68 1.022 1.074 2.245 1.074 3.56z"/>
  </symbol>

  <symbol id="github" viewBox="0 0 24 24">
    <path d="M22.364 5.99c-1.072-1.837-2.526-3.29-4.362-4.363C16.166.557 14.162.02 11.986.02 9.81.02 7.806.556 5.97 1.627 4.133 2.7 2.68 4.153 1.608 5.99.536 7.825 0 9.83 0 12.004c0 2.612.762 4.96 2.286 7.047 1.525 2.086 3.494 3.53 5.907 4.33.28.053.49.016.624-.11.136-.123.203-.28.203-.467l-.008-.842c-.005-.53-.007-.994-.007-1.39l-.36.063c-.228.042-.517.06-.866.055-.35-.004-.71-.04-1.085-.11-.375-.066-.723-.222-1.046-.467-.323-.244-.552-.564-.687-.96l-.156-.358c-.104-.24-.268-.505-.492-.796-.224-.293-.45-.49-.68-.594l-.108-.078c-.073-.052-.14-.115-.203-.188-.062-.073-.11-.145-.14-.218-.032-.073-.006-.133.078-.18.083-.047.234-.07.452-.07l.312.047c.208.04.466.165.773.373.306.208.558.48.756.812.24.426.528.75.866.975.338.224.68.336 1.022.336.343 0 .64-.026.89-.078.25-.052.483-.13.702-.234.093-.698.348-1.234.764-1.608-.593-.062-1.126-.156-1.6-.28-.472-.126-.962-.33-1.466-.61-.505-.28-.924-.63-1.256-1.045-.333-.416-.607-.962-.82-1.638-.213-.677-.32-1.457-.32-2.34 0-1.26.41-2.332 1.233-3.216-.384-.947-.347-2.008.11-3.184.302-.093.75-.023 1.343.21.593.235 1.027.436 1.303.602.276.166.497.307.663.42.967-.27 1.966-.404 2.996-.404s2.03.135 2.996.405l.593-.374c.406-.25.885-.478 1.436-.686.552-.208.974-.265 1.266-.172.468 1.176.51 2.237.124 3.184.822.884 1.233 1.956 1.233 3.215 0 .885-.107 1.668-.32 2.35-.213.68-.488 1.227-.826 1.638-.34.412-.76.757-1.265 1.038-.504.28-.994.484-1.467.61-.473.124-1.007.218-1.6.28.54.468.812 1.207.812 2.216v3.293c0 .187.065.343.195.468.13.124.335.16.616.11 2.414-.802 4.383-2.246 5.908-4.332 1.524-2.085 2.286-4.433 2.286-7.045 0-2.174-.537-4.18-1.608-6.016z"/>
  </symbol>

  <symbol id="ginetta-logo" width="160" height="57" viewBox="0 0 160 57">
    <g fill-rule="evenodd" width="160" height="57">
      <path d="M159.895 24.966c-.012-2.038-.226-5.052-1.937-7.686-.816-1.243-1.937-2.246-3.24-2.9-1.367-.693-2.968-1.044-4.758-1.044-.356 0-.7.012-1.05.037-2.573.18-19.87 2.685-20.603 2.792l-.698.1.706-4.61.857-5.58.038-.247c-.017-.227-.18-.403-.392-.434l-4.076-.6c-.246-.037-.485.144-.52.392l-.315 2.002-1.485 9.454-.06.386-15.87 2.305.11-.705c.81-5.26 1.55-9.405 1.69-10.182.05-.298.086-.503.106-.63l.03-.206c.007-.098-.024-.205-.09-.296-.074-.1-.18-.164-.302-.182l-4.077-.6c-.233-.034-.452.12-.515.354l-.03.206c-.123.804-.665 4.19-1.24 7.775l-.172 1.08c-.783 4.89-1.966 12.28-2.33 14.63l-.04.14c-.07.395-.255 1.155-.76 1.842-.78 1.066-5.7 5.056-15.502 5.074-1.222 0-2.248-.21-3.05-.623-.994-.534-1.574-1.216-2.073-2.43-.393-.986-.623-2.298-.668-3.798l-.02-.55.65.007c1.025-.094 2.11-.2 3.127-.31 1.798-.193 3.39-.394 4.73-.597 1.37-.212 2.8-.46 3.974-.82 1.59-.494 2.95-1.388 3.933-2.584 1.054-1.272 1.632-2.882 1.626-4.534 0-1.262-.336-2.58-.97-3.81-1.222-2.4-3.23-3.543-4.32-4.01-1.34-.58-2.767-.878-4.238-.883h-.055c-.053 0-.104 0-.147.002-2.725.06-4.93.63-6.747 1.742-1.956 1.186-3.55 3.142-4.607 5.655-.168.393-.335.868-.543 1.542-.62 2.044-1.36 5.2-1.368 8.624 0 .172.01.528.013.645v.04c.057 1.682.33 3.227.833 4.723l.177.524.16.43-.556.152c-1.402.382-2.906.656-4.47.814-.05.005-.093.007-.13.007h-.04c-.506-.015-.892-.1-1.366-.486-.524-.473-.772-1.182-.78-2.186-.002-.343.03-.734.1-1.16l.295-1.83c.837-5.176 1.39-8.585 1.404-8.684.09-.593.137-1.18.137-1.74.003-1.332-.27-2.614-.785-3.708-.742-1.597-2.068-2.918-3.734-3.722-1.487-.726-3.24-1.096-5.212-1.1-.612 0-1.24.038-1.87.11-2.29.263-5.237.813-7.71 2.748-1.16.915-2.15 2.13-2.86 3.515-.737 1.42-1.233 3.052-1.517 4.986l-.02.132c-.314 1.89-.892 5.385-1.236 7.572l-.112.737c-.077.475-.152.932-.184 1.093-.204 1.352-.648 2.34-1.358 3.016-.54.5-1.164.756-1.857.76-.64 0-1.25-.238-1.674-.656-.38-.396-.732-.916-.75-2.053 0-.216.012-.43.04-.656.085-.603 1.316-7.985 1.69-10.234l.02-.107c.1-.65.153-1.286.153-1.888.02-2.396-.857-4.6-2.405-6.046-1.456-1.376-3.546-2.132-6.046-2.188h-.042c-1.475 0-7.27 1.344-7.515 1.402l-.24.056-.195-.153c-2.11-1.647-4.877-2.554-7.794-2.554-1.885 0-3.768.35-5.597 1.04-3.394 1.284-6.176 3.6-7.835 6.527-1.654 2.915-1.99 6.08-.947 8.91.42 1.136 1.092 2.21 1.998 3.19l.32.346-.78.916C1.014 35.124.29 37.053.29 38.925c-.01 1.836.706 3.595 1.96 4.826 1.258 1.252 3.094 1.97 5.037 1.97h.037c.443 0 .908-.036 1.384-.106l8.345-1.215 4.815-.646c.225-.02.434-.03.648-.03 1.15.008 2.018.28 2.577.812.393.398.794.987.817 2.37 0 .33-.028.686-.083 1.057-.017.12-.185.8-.215.905-.64 2.162-3.493 3.453-7.634 3.453-.996 0-2.048-.075-3.126-.225l-.602-.09C14.215 52 14.186 52 14.157 52c-.233 0-.434.172-.475.41l-.456 3.55c-.05.288.118.542.388.596.112.014 3.032.38 4.67.382h.04c6.078 0 10.415-2.125 11.898-5.83.847-2.115.713-3.64.712-3.656l-.004-.057c.02-2.414-.85-4.625-2.383-6.08-1.488-1.426-3.622-2.212-6.008-2.212-.417 0-.81.02-1.204.06L7.97 41.04c-.043.008-.582.102-1.368-.133-.806-.24-1.39-.866-1.566-1.672-.125-.575-.11-1.478.682-2.515L7.144 35l.346.134c.45.173.887.34 1.307.45l.045.013c.97.217 1.973.327 2.972.327 1.885 0 3.768-.35 5.598-1.043 6.533-2.47 10.45-8.626 9.113-14.32l-.336-1.125.535-.13c1.874-.458 4.144-1.007 4.323-1.027 1.035-.115 1.972.17 2.647.807.383.384.79.907.815 2.316 0 .34-.03.7-.088 1.078l-1.76 10.515c-.06.454-.092.914-.092 1.363-.015 2.226.816 4.313 2.282 5.727 1.38 1.348 3.216 2.09 5.17 2.09 1.948 0 3.82-.748 5.268-2.107 1.54-1.43 2.58-3.564 2.927-6.007.16-1.1.588-3.73.83-5.2.366-2.24.566-3.447.61-3.696l.02-.115c.052-.294.18-1.007.236-1.282.23-1.12.69-2.356.863-2.68.623-1.166 1.313-1.857 2.46-2.466 1.02-.527 2.434-.893 4.205-1.09.46-.05.898-.065 1.32-.074.455 0 .877.037 1.282.11l.035.006c2.296.56 3.39 2.078 3.248 4.513l-.053.377c-.435 2.82-1.545 10.056-1.545 10.056-.103.67-.155 1.32-.155 1.937-.03 2.413.888 4.658 2.452 6.005 1.66 1.45 3.462 1.76 4.682 1.767.203 0 .41-.01.63-.03 2.254-.23 4.342-.66 6.205-1.284.39-.13.766-.266 1.186-.43l.245-.093.222.142c.35.225.707.423 1.062.59 1.466.693 3.19 1.044 5.13 1.044 7.66-.002 12.98-2.18 16.096-4.005l.46-.27.258.472c.435.797 1.003 1.496 1.643 2.02 1.794 1.5 3.74 1.82 5.058 1.828l.297-.007c2.342-.1 4.96-.65 7.996-1.682 1.917-.656 3.334-1.293 3.724-1.472l1.818-.793.236.39c.413.687.912 1.27 1.48 1.738 1.793 1.498 3.74 1.82 5.058 1.827l.296-.007c2.387-.103 5.53-.93 6.435-1.18l.027-.01c.178-.076.272-.29.203-.484l-1.282-3.623c-.063-.178-.277-.29-.462-.238l-.44.122-.004-.01c-.76.196-3.18.79-4.682.853l-.186.004c-.64 0-1.378-.264-1.796-.643-.404-.394-.78-.916-.808-2.08-.008-.34.142-1.507.162-1.62l1.92-12.44 15.256-2.215c.91-.13 1.803-.254 2.657-.366 1.138-.15 3.233-.41 4.475-.493.225-.017.45-.025.685-.025 1.028 0 1.852.165 2.522.503.84.444 1.338 1.028 1.778 2.084.164.402.297.87.398 1.39l.104.527-.524.094c-1.004.178-2.008.367-2.984.56-1.785.353-3.372.7-4.715 1.03-1.824.45-3.095.833-4.12 1.236-1.7.675-3.122 1.72-4.114 3.023-1.04 1.356-1.61 3.034-1.605 4.726 0 .304.022.63.063.967l.01.086c.288 2.7 1.815 4.536 2.7 5.393l.065.072c.776.75 1.71 1.38 2.692 1.812 1.355.598 2.774.904 4.22.91l.195-.003c2.72-.06 4.925-.63 6.74-1.74 1.957-1.187 3.55-3.142 4.608-5.656.173-.41.338-.887.55-1.595.55-1.866 1.23-4.763 1.353-7.958v-.25zm-81.567-.205c.08-.318.166-.635.256-.943l.06-.21c.08-.308.164-.6.246-.866.15-.49.304-.916.36-1.036.703-1.62 1.476-2.61 2.58-3.303 1.037-.637 2.43-.967 4.26-1.01h.13c.58 0 1.49.143 2.206.465.877.397 1.446.913 1.845 1.674.282.552.413 1.02.403 1.435-.02.807-.144 1.47-.686 2.088-.267.304-.748.716-1.534.96-.597.192-1.87.447-3.24.65-2.105.32-4.604.586-6.33.754l-.737.07.182-.726zm-56.875.33l-.174.5-.015-.005c-.908 2.182-3.004 4.07-5.617 5.055-1.262.475-2.55.716-3.827.716-2.548 0-4.717-.978-5.81-2.618l-.278-.435c-.614-1.193-1.073-3.183.225-5.89l.195-.325c1.06-1.84 2.955-3.38 5.207-4.228 1.26-.476 2.548-.717 3.826-.717 2.347 0 4.364.818 5.534 2.243l.29.385c.57.81 1.303 2.836.443 5.32zm98.57 7.263c-.02.11-.033.2-.047.292l-.034.226c-.027.155-.048.29-.067.425l-.04.292-3.115 1.36c-.274.125-1.71.772-3.596 1.395-2.265.757-4.52 1.228-6.185 1.292l-.13.003c-.668 0-1.405-.264-1.823-.64-.452-.443-.77-.847-.81-2.077 0-.354.036-.738.11-1.146l.02-.123c.015-.11.035-.246.06-.392l1.446-9.338 15.87-2.306-1.66 10.74zm34.605-4.644c-.055.33-.12.668-.2 1.07-.078.465-.172.946-.276 1.422-.198.906-.393 1.61-.522 2.042-.15.508-.312.956-.356 1.054-.707 1.623-1.48 2.61-2.582 3.3-1.033.635-2.42.965-4.242 1.01l-.12.004c-.56 0-1.443-.15-2.166-.48-.903-.416-1.506-.955-1.957-1.75-.152-.27-.266-.526-.356-.78-.28-.927-.14-2.02-.036-2.547.14-.535.33-.872.44-1.03.027-.046.075-.118.13-.19.305-.403.894-.97 1.972-1.4.736-.293 2-.668 3.47-1.028 2.135-.523 4.547-1 6.194-1.305l.733-.137-.125.744zM41.4 8.01c.016-2.32-.816-4.445-2.28-5.832C37.692.808 35.64.054 33.342.054h-.037c-.35 0-.734.02-1.14.056l-8.53 1.214c-.007 0-.013.005-.02.007-.022.004-.044.007-.062.012-.217.06-.36.27-.34.5l.454 3.405c.025.28.243.472.506.454h.02l.016.002.198-.028.024-.003L32.59 4.52c.25-.024.468-.035.713-.035 1.24.008 2.182.31 2.803.902.627.63.902 1.41.922 2.608 0 .31-.1.87-.103.878l.003.005-.002.018c-.006.227.152.426.376.473l3.353.534c.272.056.516-.1.575-.36l.002-.016c.002-.005.008-.008.008-.013.003-.014.16-.97.16-1.5z"/>
    </g>
  </symbol>

</svg>
