<svg id="Capa_1" xmlns="http://www.w3.org/2000/svg" viewBox="0 0 127.8 127.8"><style>.st0{fill:#434248}.st1{fill:#282729}.st2{fill:#343137}.st3{fill:#f5f3e1}.st4{fill:#dad9ce}.st5{fill:#bcb9af}.st6{fill:#fcfbf1}</style><path id="XMLID_606_" class="st0" d="M39.7 38.7c5.2-1.8 6.9-6.3 3.8-9.9l-6.7-7.9c-3.1-3.6-7.4-5.7-9.5-4.5-2.2 1.2-3.9 5.7-3.9 10v10.1c0 4.3 4.2 6.4 9.4 4.6l6.9-2.4z"/><path id="XMLID_605_" class="st0" d="M86.5 38.7c-5.2-1.8-6.9-6.3-3.8-9.9l6.7-7.9c3.1-3.6 7.4-5.7 9.5-4.5 2.2 1.2 3.9 5.7 3.9 10v10.1c0 4.3-4.2 6.4-9.4 4.6l-6.9-2.4z"/><path id="XMLID_601_" class="st1" d="M30.5 21v20.8l9.9-10.4z"/><path id="XMLID_598_" class="st1" d="M95.7 21v20.8l-10-10.4z"/><path id="XMLID_571_" class="st0" d="M102.8 78H23.3c-12.6 5.7-35.5 51.8-35.5 51.8h150.5s-22.9-46-35.5-51.8z"/><path id="XMLID_570_" class="st2" d="M96.1 44.4c-7.6-9.4-19.6-15.5-33-15.5-13.5 0-25.4 6.1-33 15.5-9.6 11.9-12 42.5-12 43.4 0 14.5 20.2 19.6 45 19.6 24.9 0 45-5.2 45-19.6 0-.9-2.4-31.6-12-43.4z"/><path id="XMLID_567_" class="st3" d="M96.1 39.1c-7.6-9.4-19.6-15.5-33-15.5-13.5 0-25.4 6.1-33 15.5-9.6 11.9-12 42.5-12 43.4 0 14.5 20.2 19.6 45 19.6 24.9 0 45-5.2 45-19.6 0-.9-2.4-31.5-12-43.4z"/><path id="XMLID_564_" class="st4" d="M79 60.6H47.2L19.8 89.2c5.4 9.4 22.7 12.9 43.3 12.9 20.5 0 37.9-3.5 43.3-12.9L79 60.6z"/><path id="XMLID_561_" class="st4" d="M72.9 49.1l10 10.4V38.7z"/><path id="XMLID_558_" class="st4" d="M43.6 38.7v20.8l9.9-10.4z"/><path id="XMLID_555_" class="st5" d="M47.7 81.4V71h-10z"/><path id="XMLID_552_" class="st5" d="M78.5 81.4V71h9.9z"/><path id="XMLID_550_" class="st0" d="M41.5 72.4c-1.1 0-2.2-.3-3.2-1-2.7-1.8-3.5-5.6-1.7-8.5l8.1-13.1c1.8-2.8 5.4-3.6 8.1-1.8 2.7 1.8 3.5 5.6 1.7 8.5l-8.1 13.1c-1.1 1.8-3 2.8-4.9 2.8z"/><path id="XMLID_548_" class="st0" d="M85.3 72.4c-1.9 0-3.8-1-4.9-2.8l-8.1-13.1c-1.8-2.8-1-6.6 1.7-8.5 2.7-1.8 6.3-1 8.1 1.8L90.2 63c1.8 2.8 1 6.6-1.7 8.5-1.1.6-2.2.9-3.2.9z"/><ellipse id="XMLID_546_" class="st1" cx="49.3" cy="53.7" rx="2.9" ry="3.1"/><ellipse id="XMLID_545_" class="st1" cx="77.9" cy="53.7" rx="2.9" ry="3.1"/><path id="XMLID_542_" class="st6" d="M80.4 84.2c0 8.7-6.7 15.8-15.1 15.8h-4.6c-8.3 0-15.1-7.1-15.1-15.8V71.9c0-8.7 6.7-15.8 15.1-15.8h4.6c8.3 0 15.1 7.1 15.1 15.8v12.3z"/><path id="XMLID_541_" class="st2" d="M74.8 90.8c-3.6 1-7.3 1.4-10.7 1.4V89h-1c1.4 0 2.9-.3 3.9-1l5.5-3.3c1.1-.7 1.7-1.6 1.6-2.4-3.1-.7-7.6-.7-10.4.2l-.7.2-.7-.2c-2.8-.8-7.4-.9-10.4-.2 0 .9.5 1.8 1.6 2.4L59 88c1.1.7 2.5 1 3.9 1H62v3.2c-6-.2-10.6-1.4-10.7-1.4l-.5 2c.3.1 5.8 1.5 12.8 1.5 3.6 0 7.7-.4 11.6-1.5l-.4-2z"/></svg>