<svg id="Capa_1" xmlns="http://www.w3.org/2000/svg" viewBox="0 0 127.8 127.8"><style>.st0{fill:#67462c}.st0,.st1,.st2,.st3,.st4,.st5,.st6{fill-rule:evenodd;clip-rule:evenodd}.st1{fill:#432b14}.st2{fill:#fff}.st3{fill:#cbcbcb}.st4{fill:#cca263}.st5{fill:#f0d6ac}.st6{fill:#3f2a00}.st7{fill:#67462c}.st8{fill:#3f2a00}.st9{fill:#c1a15b}</style><g id="XMLID_479_"><path id="XMLID_507_" class="st0" d="M52.9 109.6c6.1-.5 13.2-.8 20.6.2 22.6 1.7 24 22.5 26.4 33.6-24.3.2-48.6.3-72.9.5 0-13.8 7.3-32.8 25.9-34.3z"/><path id="XMLID_506_" class="st1" d="M63.4 140l8.8-30.5c.6 2 10.1 6.8 8.7 8.2-1.2 1.4-3.1 2.4-2.7 3 .6 1 4.2 2.1 6.4 3.9 1 .9-12.6 15.8-20.5 17.1l-.8.5.1-2.2z"/><path id="XMLID_505_" class="st1" d="M63 140l-8.8-30.5c-.6 2-10.1 6.8-8.8 8.2 1.2 1.4 3.1 2.4 2.8 3-.6 1-4.3 2.1-6.4 3.9-1 .9 12.7 15.8 20.6 17.1l.8.5-.2-2.2z"/><path id="XMLID_504_" class="st2" d="M66.7 113.2l-13.8-1.6c.8 9.5.3 18.8 9 27.4 1.1 1 .7 1.4 1.7 1 2.8-1.2 4.4-3.8 6.3-6.5.8-1 3.1-10 4-20l-7.2-.3z"/><path id="XMLID_503_" class="st0" d="M67.2 112.6l-8 .1c.2 2.5 3.2 13.7 6.8 3.5.3-1 1.2-2.5 1.2-3.6z"/><path id="XMLID_502_" class="st3" d="M71.4 109.5l-7.5 3.7c1 1.2 7.1 6.9 7.1 6.9 1.1-2 7-11 .4-10.6z"/><path id="XMLID_501_" class="st3" d="M55.4 108.8l7.5 3.7c-1 1.2-7.1 6.9-7.1 6.9-1.1-2-6.9-11-.4-10.6z"/><path id="XMLID_500_" class="st4" d="M72.6 98.1l-18.3-.5c-.1.2 1 11.4 1.4 12.8 1.5 3.8 15.4 4.8 16.8-.6l.1-11.7z"/><path id="XMLID_499_" class="st0" d="M64 118.7l-2.3.8c-.2.3-4.4 14.4-4 15.6.6 1.5 5 5.8 5.5 5.8 1.1 0 6.6-6 6.3-6.7L64 118.7z"/><path id="XMLID_498_" class="st5" d="M81.9 79.7c1.5-4.5 3.1-14.7 4.6-19.2 1.8-.9 9.3-.9 9.9 5.2.5 8.4-6.2 13.2-8.6 14.6-2.5.5-5.2-.2-5.9-.6z"/><path id="XMLID_497_" class="st5" d="M43.2 81c-1.5-4.5-3.1-14.7-4.6-19.2-1.8-.9-9.4-.9-9.9 5.2-.5 8.4 6.2 13.2 8.6 14.6 2.4.5 5.2-.2 5.9-.6z"/><path id="XMLID_496_" class="st5" d="M36.5 38.2l1 6.8c-3.5 6.6 2.2 51.7 12.3 57.8 3.4 2 8.3 7.9 16.5 4.4 11.1-4.7 16.3-11.7 18.7-22.8 2.1-10 7.1-34.8 1.9-44.6-.2-.4-.1-1.7-.4-2l-50 .4z"/><path id="XMLID_495_" class="st6" d="M31.3 40.4c-3.7 9.3-.2 11.4 3.8 21.9 1.6 4.3 2.2-13.6 2.2-15.5 0-5.7 14 1 15.9-4.7-.1.2 5.8 7.3 8.5 3.8 2.2-2.9.1 0 3.5 0 17.2 0 14.2-5 17-5 4.2 5.9-1.3 6.3 5 18.1 2.5 4.7 6.7-7 6.7-18.6H31.3z"/><path id="XMLID_491_" class="st7" d="M64.5 66.1s0 3.4.5 5.3 3.7 6.5 10.8 6.5c7.1 0 10.5-3.2 11-10.7.5-.6.9-1.4 1.8-1.4-.2-2-.5-3.4-.5-3.4-.4-.1-1.5 0-3.1-.5-1.9-.6-4.2-1.6-9.1-1.6-4.8 0-8.2 1.2-10.9 3.9-3.7-.8-6 0-6 0-2.7-2.6-6.1-3.9-10.9-3.9-4.8 0-7.1 1-9.1 1.6-1.6.5-2.7.4-3.1.5 0 0-.3 1.5-.5 3.4.9 0 1.3.8 1.8 1.4.5 7.5 3.8 10.7 11 10.7 7.1 0 10.3-4.6 10.8-6.5.5-1.9.5-5.3.5-5.3.3-.1 2.5-.5 5 0zm-9 8.2c-2.7 2.7-7.3 2.5-7.3 2.5-4.2.1-7.1-1.5-8.1-4.4-1.1-2.9.1-6.7.1-6.7s3-2.3 7.5-2.3c4.5-.1 9.3 1 10.3 2.3.4 3.2.2 5.9-2.5 8.6zm28.6-1.9c-1.1 2.9-3.9 4.5-8.1 4.4 0 0-4.6.2-7.3-2.5s-2.9-5.4-2.5-8.7c1-1.2 5.8-2.3 10.3-2.3 4.5.1 7.5 2.3 7.5 2.3s1.2 3.9.1 6.8z"/><path id="XMLID_490_" class="st8" d="M84.3 89.1c-.4-2.8-2.8-3.4-4.7-2 1.7-.7 3.2-.1 3.5 1.3.3 1.4-1.2 2.8-3.3 2.4-2.1-.4-5.5-2.7-9.6-6.9-3.8-3.9-7.5-.2-8 .4-.6-.6-4.3-4.3-8-.4-4.1 4.2-7.5 6.5-9.6 6.9-2.1.4-3.6-1-3.3-2.4.3-1.4 1.8-2 3.5-1.3-1.9-1.5-4.3-.8-4.7 2-.4 2.8 1 8.2 9.6 9 8.7.8 12.4-5.3 12.4-5.3s0-.2.1-.4c.1.3.1.4.1.4S66 99 74.7 98.1c8.6-.8 10-6.2 9.6-9z"/><g id="XMLID_480_"><path id="XMLID_489_" class="st7" d="M86.1 33.8l4 1.8-.4 11.2L55.5 54s-18.8-7.6-18.9-7.9c-.1-.3-4.1-7.3-4.1-7.3l2.4-4.3s2.3-.7 3.2-.9c.9-.2 48.1-.1 48.1-.1l-.1.3z"/><path id="XMLID_481_" class="st9" d="M98.8 42.4c-2.5-8.3-11.9-9.7-11.9-9.7s-2-10.5-4.6-17c-2.7-6.5-8-7.8-17.5-7.3-9.4.5-19.2-2.7-24 10.5-2.3 5.4-4.1 13.6-4.1 13.6s-11.9 3.2-12.5 11.4c-.5 8.2 13.4 16.3 38.1 16.5 24.7.2 39-9.7 36.5-18zM63 49c-15.5.5-31.2-3-26.7-14.1 0 0 0 7.8 26.9 8.2 12.6-.2 22.3-1.9 23.7-8.7C88.8 39.8 88.8 47.3 63 49z"/></g></g></svg>