<svg id="Capa_1" xmlns="http://www.w3.org/2000/svg" viewBox="0 0 127.8 127.8"><style>.st0{fill-rule:evenodd;clip-rule:evenodd}.st0,.st1{fill:#010002}.st2{fill:#c23c41}.st2,.st3,.st4{fill-rule:evenodd;clip-rule:evenodd}.st3{fill:#f0d6ac}.st4{fill:#a33534}</style><path id="XMLID_2340_" class="st0" d="M80.6 83.1L71.4 8.9c34.8.8 25 38.4 31.8 38.4.5 0-.3 2.1-4.8 2.1.6 2.5 10.8 4.9-.2 16.3-1.8 1.9 4 12.6-9.5 16.3-1.3.2-8.1 1.1-8.1 1.1z"/><path id="XMLID_2339_" class="st1" d="M80.6 83.1h.2L71.6 8.8h-.2V9c8.7.2 14.5 2.7 18.6 6.3 6.1 5.4 8.1 13.4 9.1 20 .6 3.3.9 6.3 1.4 8.5.3 1.1.6 2 1 2.6.4.6 1 1 1.7 1v-.1h-.1v-.1h-.1s0 .2-.2.4c-.5.5-1.8 1.3-4.5 1.3h-.2l.1.2c.1.5.5.9 1 1.3.7.7 1.7 1.4 2.5 2.4.8.9 1.4 2.1 1.4 3.6 0 2.1-1.2 4.9-5 8.8-.4.4-.4 1-.4 1.8 0 1 .2 2.4.2 3.8 0 1.9-.3 4-1.5 5.9-1.3 1.9-3.5 3.6-7.6 4.7-.7.2-2.7.5-4.6.7-.9.1-1.8.2-2.5.3-.3 0-.6.1-.8.1h-.4l.1.6h.2-.2l.1.1-.1-.1.1.2h.1l-.2-.2.1.2-.1-.2v.2-.2.2s.5-.1 1.1-.2c1-.1 2.5-.3 3.9-.5s2.6-.4 3.2-.5c4.1-1.1 6.4-2.9 7.8-4.9 1.3-2 1.6-4.2 1.6-6.1 0-1.5-.2-2.8-.2-3.8 0-.7.1-1.3.3-1.5 3.8-4 5.1-6.9 5.1-9.1 0-2.1-1.2-3.6-2.4-4.7-.6-.6-1.2-1-1.7-1.5-.5-.4-.8-.8-.9-1.2h-.2v.2c1.9 0 3.2-.4 4-.8.4-.2.7-.5.9-.7.2-.2.3-.4.3-.6 0-.1 0-.2-.1-.2-.1-.1-.2-.1-.2-.1-.4 0-.7-.1-1-.4-.5-.5-.9-1.4-1.3-2.7-1.1-4.5-1.3-13.2-4.8-20.8-1.8-3.8-4.3-7.4-8.3-10-3.9-2.6-9.2-4.4-16.4-4.5h-.2l9.2 74.8.3-.2v-.2z"/><path id="XMLID_2338_" class="st0" d="M47.2 83.1l-3.9-66c-14.7-1.9-11.9 30.1-18.7 30.1-.5 0 .3 2.1 4.8 2.1-.6 2.5-10.8 4.9.2 16.3 1.8 1.9-4 12.6 9.5 16.3 1.3.3 8.1 1.2 8.1 1.2z"/><path id="XMLID_2337_" class="st1" d="M47.2 83.1h.2L43.5 17h-.2c-.4-.1-.8-.1-1.2-.1-3.4 0-5.8 1.9-7.6 4.8-2.7 4.3-3.9 10.7-5.2 16-.6 2.7-1.2 5-2 6.7-.4.9-.8 1.5-1.3 2s-.9.7-1.5.7c-.1 0-.2 0-.2.1-.1.1-.1.2-.1.2 0 .2.1.4.3.6.6.7 2 1.5 4.8 1.5v-.2h-.2c-.1.3-.4.7-.9 1.2-.7.7-1.7 1.4-2.5 2.4s-1.5 2.2-1.5 3.8c0 2.2 1.3 5.1 5.1 9.1.2.2.3.8.3 1.5 0 1-.2 2.3-.2 3.8 0 1.9.3 4.1 1.6 6.1s3.7 3.8 7.8 4.9c.7.2 2.8.5 4.6.8.9.1 1.8.2 2.5.3.3 0 .6.1.8.1h.3l.2-.2v.2-.2.2-.2l-.1.2.1-.2-.1.2.1-.2-.1.1h.1v-.1l-.1.1.3.3v-.4h-.2l.1-.1h-.1c-.1 0-.5-.1-1.2-.2-1-.1-2.5-.3-3.9-.5s-2.6-.4-3.1-.5c-4-1.1-6.3-2.8-7.6-4.7-1.3-1.9-1.5-4-1.5-5.9 0-1.5.2-2.8.2-3.8 0-.8-.1-1.4-.4-1.8-3.8-3.9-5-6.8-5-8.8 0-2 1.1-3.3 2.2-4.4.6-.5 1.2-1 1.7-1.5.5-.4.9-.9 1-1.3l.1-.2h-.2c-1.9 0-3.1-.4-3.8-.7-.4-.2-.6-.4-.8-.6-.2-.2-.2-.3-.2-.4h-.2v.2c.9 0 1.7-.5 2.3-1.4 1.1-1.5 1.8-4 2.6-7 1.1-4.5 2.1-10 4-14.3.9-2.2 2-4.1 3.5-5.4 1.4-1.3 3.1-2.1 5.3-2.1.4 0 .8 0 1.2.1v-.2h-.2l3.9 66 .1-.5.1-.1-.1.1z"/><path id="XMLID_2336_" class="st2" d="M55.9 94.4c5.3-.5 11.6-.9 18.1.2 19.8 1.7 21.1 23.2 23.2 34.6-21.4.2-42.8.3-64.2.5.1-14.1 6.5-33.7 22.9-35.3z"/><path id="XMLID_2335_" class="st3" d="M71.9 80.7L58 80c-.1.3.7 16.9 1.1 18.9 1.2 5.6 11.6 7.1 12.7-.9l.1-17.3z"/><path id="XMLID_2334_" class="st3" d="M92.6 71.8c.3-3.8-.3-12 0-15.8 1.4-1 8.2-2.1 10 2.6 2.2 6.5-2.8 11.3-4.6 12.7-2.1.8-4.7.7-5.4.5z"/><path id="XMLID_2333_" class="st3" d="M91.2 23.6c-6.6-14.5-50.9-13.4-55.9 3.1-3.4 16.6-3.7 34.6.4 47.6 5 12.2 16.3 17.6 24.4 21.6 3.5 1.3 11.3.5 13.9-.9 9.5-4.9 17.9-15.6 19.8-23.4 2.1-16.4 3.1-32.2-2.6-48z"/><path id="XMLID_2332_" class="st3" d="M36 72.5c-.3-3.7.3-11.8 0-15.5-1.4-1-8.2-2-10 2.6-2.2 6.4 2.8 11.1 4.7 12.5 1.9.8 4.5.7 5.3.4z"/><path id="XMLID_2331_" class="st3" d="M34.6 117c-.3 1.7-2.4 11.9-1.6 12.9h10.7c-1-1.3.9-7.9.9-9.8-6.1 0-6.8-1.1-10-3.1z"/><path id="XMLID_2330_" class="st3" d="M95.1 116.8c.4 1.7 2.4 11.9 1.6 12.9H85.9c1-1.3-.9-7.9-.9-9.8 6.3 0 6.9-1 10.1-3.1z"/><path id="XMLID_2329_" class="st0" d="M41.7 17.3C41.4 28.9 61.3 31.8 70 30.5c10.8-1.7 10.6-11.8 7.9-9.9-.8.6-7.4.7-8.8-1.3-2.4-5.4 19.5-3.3 22.4 5.1.7 2.1 1.6-3.8-1.4-7.2-4.3-4.8-13.3-8.7-22.3-8.7-19.6 0-22.1 2.4-26.1 8.8z"/><path id="XMLID_2328_" class="st0" d="M54.9 88.7c-.7-.3 4.4 3.8 5.1 4.2 1.9 1.2 4.4 1.4 6.1 1.4 6.6.1 11.2-6.6 10.5-6.1-2.7 1.7-6.2 2.2-8.3 1.8-1.6-.3-1.3-2-1.2-2.6.2-1.1 1.6-1.1 1.5-2.1 0-.5-5.8-.7-5.8.2 0 .6 1.4 1.2 1.6 1.8.5 1.4-.1 2.4-.8 2.8-2.5 1.2-6.6-.5-8.7-1.4z"/><path id="XMLID_2310_" class="st0" d="M41.8 52.7c2.4-.7 5.9-1 9.5-1 3.6 0 7.2.3 9.9 1 .7.2 1.3.5 1.7.9.2.2.4.5.6.8H66c.1-.3.3-.6.6-.9.4-.4 1-.7 1.7-.9 2.7-.7 6.3-1 9.9-1 3.5 0 7 .3 9.5 1 .7.2 1.3.5 1.8 1s.7 1 .7 1.8-.2 1.6-.5 2.5c-.3.8-.6 1.6-1 2.4-.6 1.1-1.1 2.1-2.5 2.3-2.5.4-5.8.6-8.9.6-2.8 0-5.5-.2-7.5-.6-.6-.1-1.2-.4-1.6-.8-.4-.4-.8-.8-1.1-1.3-.5-.8-.8-1.6-1-2.5-.1-.5-.2-1.1-.2-1.6h-2c0 .6-.1 1.2-.2 1.7-.2.9-.6 1.8-1 2.5-.3.5-.7 1-1.1 1.3-.5.4-1 .7-1.6.8-2 .4-4.7.6-7.5.6-3.1 0-6.4-.2-8.9-.6-1.4-.2-1.9-1.2-2.5-2.3-.4-.8-.8-1.6-1-2.4-.3-.8-.5-1.7-.5-2.5 0-.7.2-1.3.7-1.8.2-.5.9-.8 1.5-1zm45.4 1.6c-2.3-.6-5.6-1-9-1-3.4 0-6.9.3-9.5 1-.4.1-.7.2-.9.5-.2.2-.3.4-.3.7-.1.8-.1 1.5.1 2.1.2.7.4 1.4.8 2 .2.4.5.7.7.9.3.2.6.4.9.4 1.8.4 4.4.6 7.1.6 3.1 0 6.3-.2 8.7-.6.6-.1.9-.7 1.2-1.4.4-.7.7-1.5.9-2.2.2-.7.4-1.4.4-2 0-.2-.1-.3-.2-.5s-.5-.4-.9-.5zm-35.9-.9c-3.4 0-6.7.3-9 1-.4.1-.8.3-1.1.5-.1.1-.2.3-.2.5 0 .6.2 1.3.4 2s.6 1.5.9 2.2c.4.7.7 1.3 1.2 1.4 2.4.4 5.6.6 8.7.6 2.7 0 5.3-.2 7.1-.6.4-.1.7-.2.9-.4.3-.2.5-.5.7-.9.4-.6.6-1.3.8-2 .1-.7.2-1.4.1-2.1 0-.3-.2-.5-.3-.7-.2-.2-.5-.4-.9-.5-2.3-.7-5.8-1-9.3-1z"/><path id="XMLID_2308_" class="st4" d="M60.6 98.8c-6.5-4.3-5.2 7.7 7.1 6.6 5.4-.5 9.3-6.2 5.5-7.1-2.6-.5-3.9 4.5-12.6.5z"/><path id="XMLID_2307_" class="st4" d="M36.5 115.3c-5.3-4.9-5.9 6.2 5.5 7.1 5 .4 9.4-4.3 6.1-5.6-2.2-1-4.2 3.4-11.6-1.5z"/><path id="XMLID_2306_" class="st4" d="M83.8 117.1c-6.9-2.2-2.7 8.2 8 4.1 4.7-1.8 6.7-7.9 3.1-7.7-2.4.1-2.3 4.9-11.1 3.6z"/><path id="XMLID_2305_" class="st0" d="M97.5 54.4l-2.2-15.8c.1 16.3-5.8 25.6-5 26.2 5.3 4.3 3.8 2.5 6.5-7.8.1 0 .6-2.2.7-2.6z"/><path id="XMLID_2304_" class="st0" d="M31.4 52.6l2.2-15.8c-.1 16.3 5.8 25.6 5 26.2-5.3 4.3-3.8 2.4-6.5-7.8-.1 0-.5-2.3-.7-2.6z"/></svg>