<svg id="Capa_1" xmlns="http://www.w3.org/2000/svg" viewBox="0 0 127.8 127.8"><style>.st0{fill:#424242}.st1{fill-rule:evenodd;clip-rule:evenodd;fill:#ceaa84}.st2{fill:#1e1d1d}.st2,.st3{fill-rule:evenodd;clip-rule:evenodd}.st4{opacity:.1;fill:#010002}</style><g id="XMLID_2359_"><g id="XMLID_2347_"><path id="XMLID_2357_" class="st0" d="M112.3 128.9s-94.6.1-95.1-1.4c-8.3-27.4 34.1-39.1 34.1-39.1l26-.4c.5.2 41 14 35 40.9z"/><g id="XMLID_2348_"><path id="XMLID_2356_" class="st1" d="M80.5 69.7c1.3-4.4 2.9-14.2 4.2-18.6 1.7-.9 8.6-.8 9.1 5.1.4 8.1-5.7 12.8-8 14.1-2.1.4-4.6-.2-5.3-.6z"/><path id="XMLID_2355_" class="st1" d="M44.9 70.9c-1.3-4.4-2.9-14.2-4.2-18.6-1.7-.9-8.6-.8-9.1 5.1-.4 8.1 5.7 12.8 8 14.1 2.1.5 4.6-.2 5.3-.6z"/><path id="XMLID_2354_" class="st1" d="M38.7 29.6l.9 6.6c-3.3 6.4 2 50 11.4 55.9 3.1 2 9.3 7.5 16.9 4.1C78.1 91.7 81.3 85 83.5 74.3c2-9.7 6.6-33.7 1.8-43.1-.2-.4-.1-1.6-.4-2l-46.2.4z"/><path id="XMLID_2353_" class="st2" d="M54 33.3c-1.8 5.5-14.6-.9-14.6 4.6 0 1.8.6 22.4-.9 18.3-4.7-13-10.5-18 .4-33.2 6.3-8.8 7.6-14 23.1-12.6 7.1.6.2.3 5.5-.7 4.7-.9 3 3.3 9.1 2.7 5.3-.6 4.4 2.4 7.9 4.3C99.3 25 87 57.3 83.4 50.2c-5.8-11.4 1.4-12.3-2.5-17.9-2.6 0 .3 4.8-15.7 4.8-3.1 0-1.1-2.9-3.2 0-2.6 3.3-8-3.5-8-3.8z"/><path id="XMLID_2349_" class="st3" d="M86.1 52.2c-.7-.2-3.5-.7-5-.9-1.8-.3-3.6-.4-5.4-.4-1.8 0-3.5.1-5.3.5-1.7.3-3.4.8-5.1 1.2-1 .2-1.9.3-2.8.3-.9 0-1.9-.1-2.8-.3-1.7-.4-3.4-.9-5.1-1.2-1.7-.3-3.5-.5-5.3-.5-1.8 0-3.6.2-5.4.4-1.5.2-4.3.8-5 .9-.1 0-.2.1-.2.2 0 .7.1 3 .1 3.3.1 0 .3.1.4.2.7.4.8 1.2.9 1.9.1.8.2 1.6.3 2.3.6 2.7 2.4 5.2 4.8 6.6 1.6.9 3.5 1.3 5.4 1.3 1.4-.1 2.9-.4 4.1-1.1.8-.4 1.5-.9 2.1-1.5 1-.9 1.9-2.1 2.5-3.4.5-1.1.7-2.3.9-3.5.1-.9.4-2 1.2-2.6.3-.2.6-.3.9-.3.3 0 .6.1.9.3.8.6 1.1 1.7 1.2 2.6.2 1.2.4 2.4.9 3.5.6 1.3 1.4 2.4 2.5 3.4.6.6 1.3 1.1 2.1 1.5 1.3.7 2.7 1 4.1 1.1 1.9.1 3.7-.4 5.4-1.3 2.5-1.4 4.2-3.9 4.8-6.6.2-.8.3-1.6.3-2.3.1-.7.2-1.5.9-1.9.1-.1.4-.2.4-.2 0-.3.1-2.6.1-3.3.4-.1.3-.2.2-.2zm-27.1 4c-.4 7.4-4.9 10.3-8.8 10.1-7.2-.3-8.4-7.3-8.2-11 0-3.8 17.1-2.8 17 .9zm15.9 10.2c-4 .2-8.5-2.7-8.8-10.1-.2-3.8 16.9-4.7 17.1-.9.2 3.7-1.1 10.6-8.3 11z"/></g></g><path id="XMLID_2427_" class="st4" d="M84 69.3c-.2.1-.5.3-1 1.5-.8 2.1-6.6 14.7-8.2 15h-.1c-1.4-1.6-4.8-4.2-7-5.4-2.2-1.2-4.9-1.8-5-1.8h-.2c-.1 0-2.4.6-4.6 1.8-2.2 1.2-5.5 3.8-6.9 5.4h-.1c-1.6-.3-7.5-12.9-8.2-15-.5-1.3-.8-1.5-1-1.5-.1 0-.3 0-.3.1l-.1.1v.1c.1.7 3.5 16.2 6.9 19.8.7.7 1.5 1.7 2.4 2.7 4.5 5 8.4 9.2 10 9.4l2 .3h.4l2-.3c1.5-.2 5.4-4.4 10-9.4.9-1 1.7-1.9 2.4-2.7 3.4-3.6 6.7-19.1 6.9-19.8v-.1l-.1-.1c.1-.1 0-.2-.2-.1zM71.7 89.7c-.3.4-1 1.1-1.8 2-1.6 1.8-4.5 5.1-5.2 5.6-.2-.5-.2-2.6-.2-4.6.4.1 1.2.1 1.7-.3.2-.1.3-.4.3-.6.1-.5.1-1-.2-1.4-.2-.2-.6-.4-1.1-.4-.9-.1-1.9 0-2.2 0-.3 0-1.5-.1-2.4 0-.5 0-.8.2-1.1.4-.3.4-.3.9-.2 1.4 0 .2.2.5.3.6.5.3 1.3.3 1.7.3 0 2 0 4.1-.2 4.6-.7-.5-3.6-3.8-5.2-5.6-.8-.9-1.4-1.7-1.8-2-1-1-.4-2-.1-2.6.1-.1.1-.2.1-.2.2-.3 2.1-1.5 3.1-2.1.5-.3 1-.6 1.2-.7.6-.4 3-.7 4-.8h.6c1 .1 3.6.4 4.2.8.2.2.7.4 1.2.7 1 .6 2.9 1.7 3.1 2.1 0 .1.1.2.1.2.5.6 1.1 1.5.1 2.6z"/></g></svg>