<svg id="Capa_1" xmlns="http://www.w3.org/2000/svg" viewBox="0 0 127.8 127.8"><style>.st0{fill:#a57a5d}.st0,.st1,.st2,.st3,.st4,.st5,.st6{fill-rule:evenodd;clip-rule:evenodd}.st1{fill:#3e83d6}.st2{fill:#fff}.st3{fill:#d7ac6c}.st4{fill:#f0d6ac}.st5{fill:#010002}.st6{fill:#d27e41}</style><g id="XMLID_2488_"><path id="XMLID_2561_" class="st0" d="M90.5 68.2l-56.6 2.5c-1.7 1.8 3.2 24.6 3.2 24.7 1.3 1.8 1.9 10.8 33.8 8.3 2.9-.2 18.8-1.4 20.1-6.3 1.7-6.4 1.9-20.7-.5-29.2z"/><g id="XMLID_2553_"><path id="XMLID_2560_" class="st1" d="M58.5 97.2c6.1-.6 4.5-.6 11.9.5 22.5 1.7 22.3 20.8 24.8 32.5-24.3.2-32.1 0-56.4.2-.1-14.4 1.1-31.6 19.7-33.2z"/><path id="XMLID_2559_" class="st2" d="M69 93.5l-9 .8c-10.8 5.7-10.2 14.4-8.9 15.9 1.8 2.1 7.3-4.2 8.4-3.2 1.7 1.6-1.8 11.8 2.4 11.8 5.4 0 7.8.3 8.1-1 .3-1.2-.5-3.7-.3-9.9.2-3.5 9.8 8.3 9.8.5.1-6-5.6-12.4-10.5-14.9z"/><path id="XMLID_2558_" class="st3" d="M70 71l-12.8-1.2c-.1.5 1.8 26.6 2.1 29.7.3 3 2.3 3.8 4.4 3.9 2.2 0 4.4-.7 4.7-4.3L70 71z"/><path id="XMLID_2557_" class="st4" d="M92.4 115.3c.3 1.9 3.9 13.8 2.9 14.9l-6.9-.1c-.3-1.3-2.8-9.5-2.8-11.7 2-.2 3.1-.9 6.8-3.1z"/><path id="XMLID_2556_" class="st4" d="M39.2 115.3c-.3 1.9-1.8 13.8-.8 14.9l6.9-.1c.3-1.3.9-9.8.8-11.9-1.9-.3-3.2-.7-6.9-2.9z"/><path id="XMLID_2555_" class="st2" d="M84.9 119.4c.7.4 12-1.7 7.8-5.8-.7-.9-12.8 3.2-7.8 5.8z"/><path id="XMLID_2554_" class="st2" d="M38.2 116.9c.4.7 10.7 5.6 9.7-.2-.1-1-12.3-4.9-9.7.2z"/></g><path id="XMLID_2552_" class="st4" d="M92.2 74.2c.2-2.6-.2-8.2 0-10.8 1-.7 5.6-1.4 6.8 1.8 1.5 4.4-1.9 7.7-3.2 8.7-1.3.6-3.1.5-3.6.3z"/><path id="XMLID_2551_" class="st4" d="M34.1 20.2l59 9.5v37c0 21.3-19 29.5-28.8 30.2-10.4.7-32.4-15.4-31.8-33.2l1.6-43.5z"/><path id="XMLID_2550_" class="st0" d="M32.2 63.7c-8.8-1-12.9-37.9 2.1-47.4 14.2-9 57.3-8.7 63.7 10.6 4 11.6 6 29.1-5.5 38.6 0 0 3.8-32.3-19.6-33.8-7.3-.5-6.8 7.7-9 8-.9.1-.3-5.5-5.6-7.4C38.1 25 35.5 51.8 33.8 57c-.2.6-1.1 6.8-1.6 6.7z"/><path id="XMLID_2494_" class="st5" d="M90.3 59.5c0-.2-.1-.2-.3-.3-.1 0-.2-.1-.4-.1-1.7-.2-3.4-.5-5.1-.6-1.4-.1-2.7-.1-4.1-.2-2.6-.1-5.2-.1-7.8.2-1.6.2-3.2.4-4.7.9-.8.2-1.5.5-2.3.7-1.2.3-2.5.5-3.7.3-.8-.1-1.5-.3-2.2-.5-1.3-.4-2.6-.7-4-1-2.7-.4-5.4-.6-7.9-.6-2 0-3.9.1-5.7.3-1.5.2-3 .3-4.5.5-.3 0-.6.1-.9.2-.2 0-.3.1-.3.3 0 .8-.1 1.6-.1 2.3v.4c0 .1.1.2.2.2s.2.1.3.1c.5.3.7.8.9 1.2.1.3.2.7.3 1 .1.2.2.4.2.6.3 1 .5 2 .8 3.1.3 1 .6 1.9 1.1 2.8.6 1 1.4 1.8 2.6 2.2.7.3 1.5.4 2.2.5 1.4.2 2.8.2 4.1.1 1.4-.1 2.8-.3 4.1-.6 1-.3 2-.6 2.8-1.2 1.2-.9 2.2-2 3-3.3.8-1.3 1.3-2.6 1.8-4 .1-.4.3-.8.4-1.2.2-.6.7-.9 1.4-1h.7c.5 0 1 .1 1.3.5.1.2.3.3.4.5.2.4.4.8.5 1.1.6 1.7 1.4 3.3 2.4 4.8.8 1.3 1.9 2.3 3.4 3 1 .5 2.1.8 3.3 1 1.7.3 3.5.4 5.2.3 1.1 0 2.1-.2 3.1-.4 1-.3 2-.7 2.7-1.5.4-.5.8-1.1 1-1.6.6-1.2.9-2.5 1.3-3.8.2-.6.3-1.3.5-1.9.1-.3.2-.7.3-1 .1-.3.2-.6.4-.9.2-.3.4-.5.8-.6.2-.1.2-.1.3-.3 0-.1.1-.2.1-.3v-1.4c.2-.2.1-.5.1-.8zm-51.7 1.4c-.6 0-1-.1-1-.2s.5-.2 1-.2c.6 0 1 .1 1 .2s-.4.2-1 .2zm20 5c-.4 1.4-1 2.6-1.8 3.8-.4.7-.9 1.3-1.6 1.8-.8.7-1.8 1.1-2.9 1.4-2.2.5-4.5.6-6.7.3-.4-.1-.9-.2-1.3-.3-.9-.2-1.6-.7-2.1-1.4-.6-.8-.9-1.6-1.2-2.5-.3-1.1-.5-2.3-.6-3.5-.1-.7-.1-1.4 0-2 0-.3.1-.7.2-1 .3-1.2 1.1-1.9 2.5-2.2 1.2-.3 2.5-.4 3.7-.5.9-.1 1.9-.1 2.5-.1 2.1 0 3.9.1 5.7.5.7.1 1.5.3 2.1.6.3.1.6.3.9.5.5.3.7.8.8 1.3.2 1.2.1 2.2-.2 3.3zm27.7-.5c0 1.6-.4 3.3-1 4.8-.3.6-.6 1.2-1.2 1.7s-1.4.8-2.2 1c-1 .2-2.1.3-3.1.3-1.6 0-3.1-.2-4.7-.5-1.5-.3-2.8-1-3.7-2.1-1.2-1.4-2-2.9-2.5-4.6-.2-.8-.4-1.6-.4-2.4 0-.3.1-.7.1-1 .2-.9.8-1.4 1.7-1.7.9-.3 1.9-.5 2.8-.7 1.1-.2 2.1-.3 3.2-.4.8-.1 1.7-.1 2.3-.1 2.3.1 4.2.2 6.2.7.4.1.7.2 1 .4.3.1.6.3.7.6.2.3.4.6.5.9.2.4.2.8.2 1.2.1.6.1 1.2.1 1.9zm1.8-4.5c-.6 0-1-.1-1-.2s.5-.2 1-.2c.6 0 1 .1 1 .2s-.4.2-1 .2z"/><path id="XMLID_2493_" class="st6" d="M65.4 82c-1.1 0-1.5.6-1.5.6s-.5-.6-1.6-.6-4.6 2.6-5.8 3.6c.5.2 1.8.9 2.3 1.5.5.6 2.1 3 5 3s4.5-2.4 5-3c.5-.6 1.8-1.3 2.3-1.5-1.1-1-4.6-3.6-5.7-3.6z"/><path id="XMLID_2491_" class="st4" d="M35.5 75.6c-.3-2.8-1.5-9-1.8-11.8-1.1-.7-6.2-1.5-7.6 2-1.7 4.8 2.1 8.4 3.5 9.5 1.5.6 5.3.5 5.9.3z"/></g></svg>