<svg width="46" height="46" viewBox="0 0 46 46" xmlns="http://www.w3.org/2000/svg"><title>invision</title><g fill="none"><path d="M41.83 0H4.17A4.17 4.17 0 0 0 0 4.17v37.66A4.17 4.17 0 0 0 4.17 46h37.66A4.17 4.17 0 0 0 46 41.83V4.17A4.17 4.17 0 0 0 41.83 0" fill="#DC395F"/><path d="M15.373 14.473c1.53 0 2.81-1.199 2.81-2.77 0-1.57-1.28-2.768-2.81-2.768-1.529 0-2.81 1.199-2.81 2.769s1.281 2.769 2.81 2.769M9.547 29.3a9.51 9.51 0 0 0-.248 2.08c0 2.438 1.322 4.057 4.132 4.057 2.33 0 4.22-1.384 5.58-3.619l-.83 3.334h4.628l2.645-10.608c.66-2.686 1.942-4.08 3.884-4.08 1.53 0 2.48.95 2.48 2.52 0 .455-.042.95-.207 1.488l-1.364 4.876a7.33 7.33 0 0 0-.289 2.066c0 2.315 1.364 4.008 4.215 4.008 2.438 0 4.38-1.57 5.455-5.33l-1.818-.702c-.91 2.52-1.695 2.975-2.315 2.975-.62 0-.95-.413-.95-1.239 0-.372.083-.785.206-1.282l1.323-4.75a10.5 10.5 0 0 0 .455-3.014c0-3.554-2.15-5.408-4.753-5.408-2.438 0-4.917 2.199-6.157 4.513l.909-4.154h-7.066l-.992 3.66h3.306l-2.036 8.15c-1.598 3.554-4.535 3.611-4.904 3.529-.605-.137-.992-.367-.992-1.153 0-.454.083-1.105.29-1.891l3.1-12.295H9.38l-.991 3.66h3.264L9.547 29.3" fill="#FFF"/></g></svg>