<?xml version="1.0" encoding="utf-8"?>
<!-- Generator: Adobe Illustrator 19.0.0, SVG Export Plug-In . SVG Version: 6.00 Build 0)  -->
<svg version="1.1" id="Capa_1" xmlns="http://www.w3.org/2000/svg" xmlns:xlink="http://www.w3.org/1999/xlink" x="0px" y="0px"
	 viewBox="0 0 127.8 127.8" style="enable-background:new 0 0 127.8 127.8;" xml:space="preserve">
<style type="text/css">
	.st0{fill-rule:evenodd;clip-rule:evenodd;fill:#5A3608;}
	.st1{fill-rule:evenodd;clip-rule:evenodd;fill:#EFD8AA;}
	.st2{clip-path:url(#XMLID_2_);fill-rule:evenodd;clip-rule:evenodd;fill:#C6AA76;}
	.st3{fill-rule:evenodd;clip-rule:evenodd;fill:#BC7771;}
	.st4{fill-rule:evenodd;clip-rule:evenodd;fill:#CF7400;}
</style>
<g id="XMLID_76_">
	<path id="XMLID_87_" class="st0" d="M25.3,49.7c0,13.8,4,21.4,4,28.6c-8,0-18.3-1.8-13.3,15.2c3,10.2,9.8,4.6,4,9.1
		c-2.7,2.1-5.8,10,5.2,10c0.9,0,0.1,18.4,20.5,9.6c2.5-1.1,6.4-6.1,6.8-9.2c2.4-1.3,1.9-12.4,11.3-10.7c16,3,9,24,35.7,17.7
		c5.5-1.3,16.5-14.7,9.4-18.7c-0.1,0,6-4.2,3.5-10.7c-2.6-6.8-7.1-0.1-3.1-7.1c2.2-3.9-1.5-14.5-10.6-11.3c0-0.1,6-9.3,6.3-10.4
		c4.6-15.8,1.7-34.6-9.2-45.9c-4.4-4.6-9.7-6.8-15.4-8.2C48.9,0.1,25.3,10.7,25.3,49.7z"/>
	<path id="XMLID_86_" class="st1" d="M72.5,85.5l-11.7-0.9c-0.1,0.4,0.6,20,0.9,22.3c1,6.6,9.8,8.4,10.7-1.1L72.5,85.5z"/>
	<g id="XMLID_83_">
		<defs>
			<path id="XMLID_84_" d="M72.5,85.5l-11.7-0.9c-0.1,0.4,0.6,20,0.9,22.3c1,6.6,9.8,8.4,10.7-1.1L72.5,85.5z"/>
		</defs>
		<clipPath id="XMLID_2_">
			<use xlink:href="#XMLID_84_"  style="overflow:visible;"/>
		</clipPath>
		<path id="XMLID_85_" class="st2" d="M74,84.9l-14.7-0.3c-0.1,0.1,0.8,7.2,1.1,8.1c1.2,2.4,12.4,3,13.5-0.4L74,84.9z"/>
	</g>
	<path id="XMLID_82_" class="st1" d="M61.3,100c4.2-2,6.5-1,10.9,0.1c4.8,1.2,14.5,9.2,17.5,29.9H46.3C46.3,130,42.3,109.3,61.3,100
		z"/>
	<path id="XMLID_81_" class="st1" d="M83.7,37.3c5.9,5.8,5.5,17.5,3.4,25.3c-2.9,10.6-0.6,19.5-13.9,26c-10.2,5-18.7-1.7-22.4-8.9
		C47,72.6,47.9,66,46.6,63.9c-3-5.1,0.7-19.8,2.2-25.1c0,0,12.4-2.2,17.1-10.1C70.7,36.6,80.4,37.5,83.7,37.3z"/>
	<path id="XMLID_80_" class="st3" d="M69,73.7c-1.1,0-1.6,0.4-1.6,0.4s-0.5-0.4-1.6-0.4c-0.7,0-2.4,0.7-3.8,1.3
		c-0.8,0.4-2.5-0.1-2.9,0.1c0.5,0.2,2.7,1.5,3.2,1.9c0.5,0.4,2.1,1.9,5.1,1.9c2.9,0,4.5-1.5,5.1-1.9c0.5-0.4,2.5-1.1,2.6-1.7
		c-0.3-0.2-1.2,0.3-1.8,0C71.8,74.5,69.7,73.7,69,73.7z"/>
	<path id="XMLID_79_" class="st1" d="M86.1,66.1c1.5-1.2,10.6-2.6,6.3-5.6c-1.1-0.8,1.2-7.6-2.1-0.7C89.6,61.2,87.2,65.2,86.1,66.1z
		"/>
	<path id="XMLID_78_" class="st1" d="M47.5,66.2c-1.5-1.2-10.6-2.5-6.3-5.6c1.1-0.8-1.2-7.6,2.1-0.7C44,61.3,46.4,65.3,47.5,66.2z"
		/>
	<path id="XMLID_77_" class="st4" d="M52.1,130.6l30.5-0.2c0,0-0.3-8.4-2.4-10.5c-1-8.7-0.4-14.4-0.4-14.4l-1.1-1.3
		c0,0-0.6,6.8,0.1,15.7c-10,6.1-21.4,0.6-24.3-0.3c1-8.4,0-15,0-15s-0.1,0.1-1.2,1.1c0.5,5.3-0.8,13.4-0.8,13.4s-2.8,5.4-0.4,11"/>
</g>
</svg>
