<?xml version="1.0" encoding="utf-8"?>
<!-- Generator: Adobe Illustrator 19.0.0, SVG Export Plug-In . SVG Version: 6.00 Build 0)  -->
<svg version="1.1" id="Capa_1" xmlns="http://www.w3.org/2000/svg" xmlns:xlink="http://www.w3.org/1999/xlink" x="0px" y="0px"
	 viewBox="0 0 127.8 127.8" style="enable-background:new 0 0 127.8 127.8;" xml:space="preserve">
<style type="text/css">
	.st0{clip-path:url(#XMLID_2_);}
	.st1{fill-rule:evenodd;clip-rule:evenodd;fill:#D48454;}
	.st2{clip-path:url(#XMLID_2_);fill:#965626;}
	.st3{fill:#F0D6AC;}
	.st4{fill:#6D402B;}
</style>
<g id="XMLID_429_">
	<g id="XMLID_436_">
		<defs>
			<path id="XMLID_438_" d="M53.2,89.4c6.7-0.6,14.5-1,22.6,0.3c24.7,2,26.3,26.6,29,39.7c-27.7,0.2-54.3,0.4-80,0.5
				C24.8,113.7,32.8,91.2,53.2,89.4z"/>
		</defs>
		<clipPath id="XMLID_2_">
			<use xlink:href="#XMLID_438_"  style="overflow:visible;"/>
		</clipPath>
		<g id="XMLID_445_" class="st0">
			<path id="XMLID_446_" class="st1" d="M53.2,89.4c6.7-0.6,14.5-1,22.6,0.3c24.7,2,26.3,26.6,29,39.7c-26.7,0.2-53.3,0.4-80,0.5
				C24.8,113.7,32.8,91.2,53.2,89.4z"/>
		</g>
		<rect id="XMLID_444_" x="24.1" y="94.1" class="st2" width="80.8" height="4.1"/>
		<rect id="XMLID_443_" x="24.1" y="101.3" class="st2" width="80.8" height="4.1"/>
		<rect id="XMLID_442_" x="24.1" y="108.5" class="st2" width="80.8" height="4.1"/>
		<rect id="XMLID_441_" x="24.1" y="115.6" class="st2" width="80.8" height="4.1"/>
		<rect id="XMLID_440_" x="24.1" y="123.5" class="st2" width="80.8" height="4.1"/>
		<rect id="XMLID_439_" x="24.1" y="83.6" class="st2" width="80.8" height="8.5"/>
	</g>
	<g id="XMLID_430_">
		<path id="XMLID_435_" class="st3" d="M40,34.1l-3.4,29.1l8,17.5c0,0,6.5,13.8,8.5,15.3c1.9,1.5,12.8,3.6,13.8,3.4
			c1-0.2,7-3.2,7.8-4.4c0.7-1.2,5.6-10.9,5.6-10.9s3.6-6.3,4.4-7c0.7-0.7,5.1-9.2,5.6-12.1c0.5-2.9-1.9-23-1.9-23.8
			s-3.9-11.6-3.9-11.6l-37.8-2.2L40,34.1z"/>
		<g id="Capa_1_2_">
			<path id="XMLID_431_" class="st4" d="M100.5,56c-0.2-0.1-0.4-0.3-0.6-0.4c-1-0.7-0.9-0.8-0.2-2c0.5-0.7,1.2-1.8,2-3.6
				c0.6-1.4,0.7-2.3,0.4-2.8c-0.3-0.5-0.9-0.8-1.6-1c-0.8-0.3-1.8-0.6-2.7-1.5c-1.4-1.4-1-2.3-0.4-3.6c0.5-1,1.1-2.2,0.9-3.8
				c-0.3-3.6-1.2-3.9-3-4.6c-0.2-0.1-0.3-0.1-0.5-0.2c-0.9-0.3-1.3-0.6-1.4-0.9c-0.1-0.3,0-0.7,0.3-1.3l0.1-0.2
				c0.5-1.2-0.8-4-1.6-5.2c-0.4-0.6-0.7-0.8-0.8-0.8c0-0.1,0-0.2,0-0.3c0.2-1.7,0.1-2.7-0.2-3.2c-0.3-0.6-0.9-0.6-1.5-0.7
				c-0.8-0.1-1.8-0.2-2.9-1.4c-1.1-1.2-2-1.4-2.9-1.7c-0.8-0.2-1.7-0.4-3-1.4c-1.5-1.2-2.4-1.1-3.1-1.1c-0.5,0-0.8,0.1-1.2-0.5
				c-0.3-0.5-0.6-1-0.8-1.6c-0.5-1.2-1.1-2.6-3-3.7c-2.1-1.2-6-1.1-6.9-0.5c-0.3,0.2-0.3,0.3-0.3,0.5c0,0.3,0.4,0.5,0.5,0.5
				c0.9,0.4,1.5,1.9,1.9,3.2c-0.7-0.9-1.8-2.1-3.9-3.6C60.6,6.2,54,7.4,52.5,8.3c-0.3,0.2-0.4,0.4-0.3,0.6c0.1,0.3,0.4,0.4,0.8,0.4
				c2.7,0.3,5.7,4.1,6.3,6.5c0.2,0.6,0.1,1.1-0.1,1.2c-0.1,0.1-0.5,0.2-1.8-0.6c-5.2-3.3-11.1-2.6-16.1,1.8c-2.7,2.4-1.6,4-1,4.9
				c0.1,0.2,0.3,0.4,0.3,0.5c0,0-0.2,0.2-1.7,0.3c-3.9,0.2-5.2,3.8-6.2,6.4c-0.3,1-0.7,1.8-1,2.3c-0.8,1-0.1,1.7,0.3,2.2
				c0.3,0.3,0.5,0.5,0.4,0.7c0,0.1-0.2,0.4-0.9,0.8c-2,1-2,4.1-1.9,6.6c0,1.3,0.1,2.5-0.2,3.1c-0.6,1.6,0.8,3.1,2.3,4.8
				c0.5,0.6,1.1,1.2,1.5,1.8c0.8,1-0.3,2.4-1.6,4.1c-1.4,1.8-2.9,3.8-2.8,6.1c0.1,2.5,1.4,3.8,2.7,5.2c1,1.1,2.1,2.3,2.7,4.1
				c1,3.5,5.8,4.7,7.5,5.1c0.2,0.1,0.4,0.1,0.6,0.2c0.1,2.6,0.3,5.3,0.8,6.3c0.2,0.4,0.4,1.2,0.7,2.2c1.1,4.2,3.1,12,8.9,15.7
				c6.7,4.3,10.7,6.1,11.1,6.3c0.1,0.1,0.4,0.3,0.9,0.3c0.2,0,0.4-0.1,0.7-0.2c0,0,4.2-2.1,11.1-7c5.6-4,7.3-11.9,8.1-16.1
				c0.2-1,0.4-1.8,0.5-2.3c0.1-0.3,0.2-0.8,0.3-1.4c0,0.2,0,0.4,0.1,0.5c0.1,0.3,0.2,0.5,0.5,0.6c0.2,0.1,0.4,0.1,0.6,0.1
				c0.9,0,2.2-0.6,3.8-1.4c1-0.5,2.1-1,3.2-1.4c3.7-1.3,2.5-5.6,2.5-5.7l-0.2-0.6l-0.3,0.5c0,0.1-1,1.6-2.3,1
				c-0.1,0-0.2-0.1-0.2-0.2c-0.4-1.4,2.8-6.3,6.2-11.4l0-0.1c2-3.1,2.7-4.7,2.5-5.7C101.8,56.8,101.2,56.4,100.5,56z M86.1,68.9
				L86.1,68.9c0,0.1-2.1,6.2-2.7,8c-0.3,0.9-1.3,2-2.8,3.1c-0.7,0.5-1.5,0.7-2.3,0.5c-1.3-0.3-2.9-0.8-3.9-1.6
				c-0.6-0.5-1.3-1.2-1.9-2C71.2,75.6,70,74.3,69,74c-1.7-0.5-3.4,0.1-4.2,0.7c-0.4,0.3-0.7,0.6-0.9,1c-0.2-0.3-0.5-0.7-0.9-1
				c-0.9-0.6-2.6-1.1-4.3-0.5c-1,0.3-2.1,1.7-3.2,3.1c-0.7,0.8-1.3,1.5-1.9,2.1c-0.9,0.8-2.5,1.5-3.7,1.8c-0.8,0.2-1.7,0.1-2.4-0.4
				c-1.6-1.1-2.6-2.1-3-2.9c-0.5-1.2-1.1-3.5-1.5-5.1c-0.2-0.9-0.4-1.6-0.4-1.6l-0.2-0.9c-0.1-1-0.2-2.2,0-3.8
				c0.4-2.8,0.1-3.7-0.3-5.3c-0.2-0.7-0.4-1.4-0.6-2.4c-0.4-2-0.1-4,0.1-6c0.2-1.6,0.4-3.2,0.3-4.7c-0.2-2.6,1.4-5.1,2.6-6.9
				c0.4-0.6,0.7-1,0.9-1.5c0.6-1.1,2.4-2,3.9-2.7c0.5-0.3,1-0.5,1.4-0.7c0.4,0.8,0.9,1.4,1.5,1.9c0.2,0.2,0.4,0.3,0.5,0.4
				c1.5,1.3,1.6,1.3,4.6,1.2c1.3,0,3-0.1,5.6-0.1c8.2,0,16.4-0.7,19.7-1.6c0.1,0.7,0.5,2.5,1.8,4.9c1.6,3.1,2,16.6,1.3,18.3
				c-0.5,1.2-0.3,2.1-0.1,3.1c0.1,0.6,0.2,1.2,0.2,1.9c0,0.9,0,1.6,0.1,2.2C86.1,68.6,86.1,68.7,86.1,68.9L86.1,68.9z M68.2,93.2
				c-0.2,0.1-0.6,0.1-0.8-0.1c-0.1-0.1-0.1-0.3,0-0.7c0.2-0.6,0.9-1.1,1.5-1.6c0.8-0.6,1.7-1.3,1.5-2.2c-0.3-1.1-4.9-1.1-6.3-1.1
				c-1.4,0-6,0.2-6.2,1.4c-0.2,0.9,0.8,1.5,1.6,2.1c0.7,0.5,1.4,1,1.6,1.6c0.1,0.3,0.1,0.5,0,0.7c-0.2,0.2-0.5,0.1-0.8,0.1
				c-0.6-0.4-5.3-4.1-7.3-5.1c-3.3-1.5-4.2-3.3-4.4-4c0.8,0.1,2.5-0.1,3.7-0.8c1.4-0.9,3.1-1.3,6.5-1.6c3.8-0.4,4.7-2,4.9-2.6
				c0.1-0.1,0.2-0.1,0.2-0.1c0,0,0,0,0,0c0.4,0.8,1.6,2.2,5.1,2.4c3.4,0.1,5.1,0.5,6.6,1.3c1.1,0.6,2.7,0.7,3.5,0.7
				c-0.5,1-2.3,3.9-3.9,4.1C73.1,88.1,68.7,92.6,68.2,93.2z"/>
		</g>
	</g>
</g>
</svg>
