<?xml version="1.0" encoding="utf-8"?>
<!-- Generator: Adobe Illustrator 19.0.0, SVG Export Plug-In . SVG Version: 6.00 Build 0)  -->
<svg version="1.1" id="Capa_1" xmlns="http://www.w3.org/2000/svg" xmlns:xlink="http://www.w3.org/1999/xlink" x="0px" y="0px"
	 viewBox="0 0 127.8 127.8" style="enable-background:new 0 0 127.8 127.8;" xml:space="preserve">
<style type="text/css">
	.st0{fill:#7AB3AB;}
	.st1{clip-path:url(#XMLID_2_);}
	.st2{fill-rule:evenodd;clip-rule:evenodd;fill:#55453C;}
	.st3{fill-rule:evenodd;clip-rule:evenodd;fill:#F0D6AC;}
	.st4{fill-rule:evenodd;clip-rule:evenodd;fill:#D27E41;}
	.st5{fill-rule:evenodd;clip-rule:evenodd;fill:#010002;}
</style>
<g id="XMLID_41_">
	<path id="XMLID_58_" class="st0" d="M127.8,105.4c0,12.4-10,22.4-22.4,22.4H22.4C10,127.8,0,117.8,0,105.4V22.4C0,10,10,0,22.4,0
		h83.1c12.4,0,22.4,10,22.4,22.4V105.4z"/>
	<g id="XMLID_42_">
		<defs>
			<path id="XMLID_43_" d="M127.8,105.4c0,12.4-10,22.4-22.4,22.4H22.4C10,127.8,0,117.8,0,105.4V22.4C0,10,10,0,22.4,0h83.1
				c12.4,0,22.4,10,22.4,22.4V105.4z"/>
		</defs>
		<clipPath id="XMLID_2_">
			<use xlink:href="#XMLID_43_"  style="overflow:visible;"/>
		</clipPath>
		<g id="XMLID_44_" class="st1">
			<path id="XMLID_57_" class="st2" d="M61.3,95.3c5.8-0.6,4.3-0.6,11.4,0.6c21.5,1.9,21.3,22.6,23.6,35.3
				c-23.2,0.2-33.4,0-56.6,0.2C39.7,115.7,43.6,97,61.3,95.3z"/>
			<path id="XMLID_56_" class="st3" d="M52.6,98.1c-0.1,4.4,8.6,18.1,15.4,15.1c7.7-3.4,12.8-9,12.8-15.9
				C71.8,94.7,62.2,92.5,52.6,98.1z"/>
			<path id="XMLID_55_" class="st3" d="M72.8,66.8l-13.9-1.3c-0.1,0.6,2,29,2.3,32.4c0.4,3.3,2.5,4.2,4.8,4.2c2.4,0,4.8-0.8,5.1-4.6
				L72.8,66.8z"/>
			<path id="XMLID_54_" class="st3" d="M94.8,71.4c0.3-2.8-0.3-8.9,0-11.7c1.1-0.7,6.1-1.5,7.5,2c1.6,4.8-2.1,8.4-3.5,9.5
				C97.3,71.7,95.4,71.6,94.8,71.4z"/>
			<path id="XMLID_53_" class="st3" d="M31.9,39L95.2,39l0.6,22.2c0.6,23.2-20.7,32.1-31.4,32.9C53,94.9,27.7,77.3,29.8,57.9
				L31.9,39z"/>
			<path id="XMLID_52_" class="st4" d="M66.3,79c-0.9,0-1.3,0.5-1.3,0.5S64.7,79,63.8,79c-0.9,0-3.8,2.1-4.8,3
				c0.4,0.2,1.5,0.7,1.9,1.3c0.4,0.5,1.7,2.5,4.1,2.5c2.4,0,3.7-2,4.1-2.5c0.4-0.5,1.5-1.1,1.9-1.3C70.1,81.1,67.2,79,66.3,79z"/>
			<path id="XMLID_51_" class="st5" d="M84.2,19.5c9,19.9-17.1,27.2-30.7,31.9C35.9,57.3,32.9,69,42.4,84c4.5,7,5.2,3.5-3.3,1.9
				c-8.5-1.6-15.8-23-16.5-31.5c-2.9-35.1,27.2-52.2,57-37.4C81,17.8,83.5,18.1,84.2,19.5z"/>
			<path id="XMLID_50_" class="st5" d="M56.5,11.4c48.1-2.2,55.5,30.5,47.1,44.6c-7.9,13.3-12.7,16.2-19.5,16.9
				C84.1,73,105,43.9,71.9,43.9c-0.4,0-0.8,0-1.2,0L56.5,11.4z"/>
			<path id="XMLID_48_" class="st3" d="M33.1,71c-0.3-3-1.7-9.8-2-12.8c-1.2-0.8-6.8-1.7-8.3,2.1c-1.8,5.3,2.3,9.2,3.8,10.3
				C28.3,71.3,32.5,71.2,33.1,71z"/>
			<path id="XMLID_46_" class="st3" d="M40.5,118.6c-0.2,1.7-1.7,11.9-1.1,13H47c-0.7-1.3,0.6-7.9,0.6-9.9
				C43.2,121.7,42.8,120.6,40.5,118.6z"/>
			<path id="XMLID_45_" class="st3" d="M94.8,118.4c0.2,1.7,1.7,11.9,1.1,13h-7.6c0.7-1.3-0.6-7.9-0.6-9.9
				C92.1,121.5,92.5,120.4,94.8,118.4z"/>
		</g>
	</g>
</g>
</svg>
