<?xml version="1.0" encoding="utf-8"?>
<!-- Generator: Adobe Illustrator 19.0.0, SVG Export Plug-In . SVG Version: 6.00 Build 0)  -->
<svg version="1.1" id="Capa_1" xmlns="http://www.w3.org/2000/svg" xmlns:xlink="http://www.w3.org/1999/xlink" x="0px" y="0px"
	 viewBox="0 0 127.8 127.8" style="enable-background:new 0 0 127.8 127.8;" xml:space="preserve">
<style type="text/css">
	.st0{fill-rule:evenodd;clip-rule:evenodd;fill:#67462C;}
	.st1{fill-rule:evenodd;clip-rule:evenodd;fill:#432B14;}
	.st2{fill-rule:evenodd;clip-rule:evenodd;fill:#FFFFFF;}
	.st3{fill-rule:evenodd;clip-rule:evenodd;fill:#CBCBCB;}
	.st4{fill-rule:evenodd;clip-rule:evenodd;fill:#CCA263;}
	.st5{fill-rule:evenodd;clip-rule:evenodd;fill:#F0D6AC;}
	.st6{fill-rule:evenodd;clip-rule:evenodd;fill:#3F2A00;}
	.st7{fill:#67462C;}
	.st8{fill:#3F2A00;}
	.st9{fill:#C1A15B;}
</style>
<g id="XMLID_479_">
	<path id="XMLID_507_" class="st0" d="M52.9,109.6c6.1-0.5,13.2-0.8,20.6,0.2c22.6,1.7,24,22.5,26.4,33.6
		c-24.3,0.2-48.6,0.3-72.9,0.5C27,130.1,34.3,111.1,52.9,109.6z"/>
	<path id="XMLID_506_" class="st1" d="M63.4,140l8.8-30.5c0.6,2,10.1,6.8,8.7,8.2c-1.2,1.4-3.1,2.4-2.7,3c0.6,1,4.2,2.1,6.4,3.9
		c1,0.9-12.6,15.8-20.5,17.1l-0.8,0.5L63.4,140z"/>
	<path id="XMLID_505_" class="st1" d="M63,140l-8.8-30.5c-0.6,2-10.1,6.8-8.8,8.2c1.2,1.4,3.1,2.4,2.8,3c-0.6,1-4.3,2.1-6.4,3.9
		c-1,0.9,12.7,15.8,20.6,17.1l0.8,0.5L63,140z"/>
	<path id="XMLID_504_" class="st2" d="M66.7,113.2l-13.8-1.6c0.8,9.5,0.3,18.8,9,27.4c1.1,1,0.7,1.4,1.7,1c2.8-1.2,4.4-3.8,6.3-6.5
		c0.8-1,3.1-10,4-20L66.7,113.2z"/>
	<path id="XMLID_503_" class="st0" d="M67.2,112.6l-8,0.1c0.2,2.5,3.2,13.7,6.8,3.5C66.3,115.2,67.2,113.7,67.2,112.6z"/>
	<path id="XMLID_502_" class="st3" d="M71.4,109.5l-7.5,3.7c1,1.2,7.1,6.9,7.1,6.9C72.1,118.1,78,109.1,71.4,109.5z"/>
	<path id="XMLID_501_" class="st3" d="M55.4,108.8l7.5,3.7c-1,1.2-7.1,6.9-7.1,6.9C54.7,117.4,48.9,108.4,55.4,108.8z"/>
	<path id="XMLID_500_" class="st4" d="M72.6,98.1l-18.3-0.5c-0.1,0.2,1,11.4,1.4,12.8c1.5,3.8,15.4,4.8,16.8-0.6L72.6,98.1z"/>
	<path id="XMLID_499_" class="st0" d="M64,118.7l-2.3,0.8c-0.2,0.3-4.4,14.4-4,15.6c0.6,1.5,5,5.8,5.5,5.8c1.1,0,6.6-6,6.3-6.7
		L64,118.7z"/>
	<path id="XMLID_498_" class="st5" d="M81.9,79.7c1.5-4.5,3.1-14.7,4.6-19.2c1.8-0.9,9.3-0.9,9.9,5.2c0.5,8.4-6.2,13.2-8.6,14.6
		C85.3,80.8,82.6,80.1,81.9,79.7z"/>
	<path id="XMLID_497_" class="st5" d="M43.2,81c-1.5-4.5-3.1-14.7-4.6-19.2c-1.8-0.9-9.4-0.9-9.9,5.2c-0.5,8.4,6.2,13.2,8.6,14.6
		C39.7,82.1,42.5,81.4,43.2,81z"/>
	<path id="XMLID_496_" class="st5" d="M36.5,38.2l1,6.8c-3.5,6.6,2.2,51.7,12.3,57.8c3.4,2,8.3,7.9,16.5,4.4
		c11.1-4.7,16.3-11.7,18.7-22.8c2.1-10,7.1-34.8,1.9-44.6c-0.2-0.4-0.1-1.7-0.4-2L36.5,38.2z"/>
	<path id="XMLID_495_" class="st6" d="M31.3,40.4c-3.7,9.3-0.2,11.4,3.8,21.9c1.6,4.3,2.2-13.6,2.2-15.5c0-5.7,14,1,15.9-4.7
		c-0.1,0.2,5.8,7.3,8.5,3.8c2.2-2.9,0.1,0,3.5,0c17.2,0,14.2-5,17-5c4.2,5.9-1.3,6.3,5,18.1c2.5,4.7,6.7-7,6.7-18.6H31.3z"/>
	<path id="XMLID_491_" class="st7" d="M64.5,66.1c0,0,0,3.4,0.5,5.3c0.5,1.9,3.7,6.5,10.8,6.5c7.1,0,10.5-3.2,11-10.7
		c0.5-0.6,0.9-1.4,1.8-1.4c-0.2-2-0.5-3.4-0.5-3.4c-0.4-0.1-1.5,0-3.1-0.5c-1.9-0.6-4.2-1.6-9.1-1.6c-4.8,0-8.2,1.2-10.9,3.9
		c-3.7-0.8-6,0-6,0c-2.7-2.6-6.1-3.9-10.9-3.9c-4.8,0-7.1,1-9.1,1.6c-1.6,0.5-2.7,0.4-3.1,0.5c0,0-0.3,1.5-0.5,3.4
		c0.9,0,1.3,0.8,1.8,1.4c0.5,7.5,3.8,10.7,11,10.7c7.1,0,10.3-4.6,10.8-6.5c0.5-1.9,0.5-5.3,0.5-5.3C59.8,66,62,65.6,64.5,66.1z
		 M55.5,74.3c-2.7,2.7-7.3,2.5-7.3,2.5c-4.2,0.1-7.1-1.5-8.1-4.4c-1.1-2.9,0.1-6.7,0.1-6.7s3-2.3,7.5-2.3c4.5-0.1,9.3,1,10.3,2.3
		C58.4,68.9,58.2,71.6,55.5,74.3z M84.1,72.4c-1.1,2.9-3.9,4.5-8.1,4.4c0,0-4.6,0.2-7.3-2.5c-2.7-2.7-2.9-5.4-2.5-8.7
		c1-1.2,5.8-2.3,10.3-2.3c4.5,0.1,7.5,2.3,7.5,2.3S85.2,69.5,84.1,72.4z"/>
	<path id="XMLID_490_" class="st8" d="M84.3,89.1c-0.4-2.8-2.8-3.4-4.7-2c1.7-0.7,3.2-0.1,3.5,1.3c0.3,1.4-1.2,2.8-3.3,2.4
		c-2.1-0.4-5.5-2.7-9.6-6.9c-3.8-3.9-7.5-0.2-8,0.4c-0.6-0.6-4.3-4.3-8-0.4c-4.1,4.2-7.5,6.5-9.6,6.9c-2.1,0.4-3.6-1-3.3-2.4
		c0.3-1.4,1.8-2,3.5-1.3c-1.9-1.5-4.3-0.8-4.7,2c-0.4,2.8,1,8.2,9.6,9c8.7,0.8,12.4-5.3,12.4-5.3s0-0.2,0.1-0.4
		c0.1,0.3,0.1,0.4,0.1,0.4S66,99,74.7,98.1C83.3,97.3,84.7,91.9,84.3,89.1z"/>
	<g id="XMLID_480_">
		<path id="XMLID_489_" class="st7" d="M86.1,33.8l4,1.8l-0.4,11.2L55.5,54c0,0-18.8-7.6-18.9-7.9c-0.1-0.3-4.1-7.3-4.1-7.3l2.4-4.3
			c0,0,2.3-0.7,3.2-0.9c0.9-0.2,48.1-0.1,48.1-0.1L86.1,33.8z"/>
		<path id="XMLID_481_" class="st9" d="M98.8,42.4c-2.5-8.3-11.9-9.7-11.9-9.7s-2-10.5-4.6-17c-2.7-6.5-8-7.8-17.5-7.3
			c-9.4,0.5-19.2-2.7-24,10.5c-2.3,5.4-4.1,13.6-4.1,13.6s-11.9,3.2-12.5,11.4c-0.5,8.2,13.4,16.3,38.1,16.5
			C87,60.6,101.3,50.7,98.8,42.4z M63,49C47.5,49.5,31.8,46,36.3,34.9c0,0,0,7.8,26.9,8.2c12.6-0.2,22.3-1.9,23.7-8.7
			C88.8,39.8,88.8,47.3,63,49z"/>
	</g>
</g>
</svg>
