<?xml version="1.0" encoding="utf-8"?>
<!-- Generator: Adobe Illustrator 19.0.0, SVG Export Plug-In . SVG Version: 6.00 Build 0)  -->
<svg version="1.1" id="Capa_1" xmlns="http://www.w3.org/2000/svg" xmlns:xlink="http://www.w3.org/1999/xlink" x="0px" y="0px"
	 viewBox="0 0 127.8 127.8" style="enable-background:new 0 0 127.8 127.8;" xml:space="preserve">
<style type="text/css">
	.st0{fill-rule:evenodd;clip-rule:evenodd;fill:#3D3C3A;}
	.st1{fill-rule:evenodd;clip-rule:evenodd;fill:#191919;}
	.st2{fill-rule:evenodd;clip-rule:evenodd;fill:#FFFFFF;}
	.st3{fill-rule:evenodd;clip-rule:evenodd;fill:#010002;}
	.st4{fill-rule:evenodd;clip-rule:evenodd;fill:#CBCBCB;}
	.st5{fill-rule:evenodd;clip-rule:evenodd;fill:#CCA263;}
	.st6{fill:#F0D6AC;}
	.st7{fill:#211915;}
	.st8{fill:#911718;}
</style>
<g id="XMLID_372_">
	<path id="XMLID_396_" class="st0" d="M54.6,93.7c5.8-0.5,12.9-1.9,19.7,0.2c20.6,6.5,26.1,25.4,28.5,35.5
		c-23.2,0.1-51.4-0.1-74.6,0C28.1,117.1,41.7,98.1,54.6,93.7z"/>
	<g id="XMLID_387_">
		<path id="XMLID_395_" class="st1" d="M64.6,127.5L73,99.9c0.6,1.8,9.6,6.1,8.3,7.4c-1.2,1.2-2.9,2.2-2.6,2.7
			c0.6,0.9,4.1,1.9,6.1,3.5c1,0.8-12,14.3-19.6,15.5l-0.8,0.4L64.6,127.5z"/>
		<path id="XMLID_394_" class="st1" d="M64.2,127.5l-8.4-27.6c-0.6,1.8-9.7,6.1-8.4,7.4c1.2,1.2,3,2.2,2.6,2.7
			c-0.6,0.9-4.1,1.9-6.1,3.5c-1,0.8,12.1,14.3,19.7,15.5l0.8,0.4L64.2,127.5z"/>
		<path id="XMLID_393_" class="st2" d="M67.8,103.3l-13.2-1.5c0.7,8.6,0.3,17,8.6,24.8c1,0.9,0.7,1.2,1.6,0.9
			c2.7-1.1,4.2-3.4,6.1-5.9c0.7-0.9,3-9.1,3.8-18.1L67.8,103.3z"/>
		<path id="XMLID_392_" class="st3" d="M68.3,102.8l-7.6,0.1c0.2,2.3,3.1,12.4,6.5,3.1C67.4,105.1,68.3,103.8,68.3,102.8z"/>
		<path id="XMLID_391_" class="st4" d="M72.3,100l-7.2,3.3c0.9,1.1,6.8,6.2,6.8,6.2C73,107.8,78.6,99.6,72.3,100z"/>
		<path id="XMLID_390_" class="st4" d="M57,99.4l7.2,3.3c-0.9,1.1-6.8,6.2-6.8,6.2C56.4,107.1,50.8,99,57,99.4z"/>
		<path id="XMLID_389_" class="st5" d="M73.4,89.7l-17.5-0.5c-0.1,0.2,0.9,10.3,1.3,11.5c1.5,3.4,14.7,4.3,16-0.6L73.4,89.7z"/>
		<path id="XMLID_388_" class="st3" d="M65.2,108.3l-2.2,0.8c-0.2,0.3-4.2,13-3.8,14.1c0.5,1.4,4.8,5.3,5.3,5.3c1,0,6.3-5.4,6-6.1
			L65.2,108.3z"/>
	</g>
	<g id="XMLID_373_">
		<path id="XMLID_386_" class="st6" d="M40.8,45.6c0,0-2.5,9.4-0.6,12c1.8,2.6,4.6,20.9,5.3,22.3c0.7,1.3,18.1,10,18.8,9.6
			c0.7-0.4,12.8-2.9,12.8-2.9l3.7-4.8L86,63l-0.7-6.7c0,0,2.8-10.6,2.8-13.5c0-2.9-2.6-10.8-4.2-11c-1.6-0.2-13.2,0.8-14.2,1
			C68.9,32.9,40.8,45.6,40.8,45.6z"/>
		<path id="XMLID_385_" class="st6" d="M39.7,63.6c0,0-3.1,1.6-3.7-2.8c-0.6-4.4-2-11.3,2.7-10.6c4.8,0.6,4.5,7.4,4.5,7.4L39.7,63.6
			z"/>
		<path id="XMLID_384_" class="st6" d="M86.8,63.1c0,0,3.1,1.6,3.6-2.8c0.5-4.4,1.8-11.2-3-10.7C82.6,50.2,83,57,83,57L86.8,63.1z"
			/>
		<path id="XMLID_381_" class="st7" d="M89.5,70.4c0.9-3.6-0.5-4.6-0.1-6c0.5-1.4-1.7-5.3-2.1-6.8c-0.5-1.5-1.9-1.4-1.9-1.4
			s-1.5,7.4-1.8,9c-0.9,5.7-7.6,10.9-8.1,9.2c-1.1-4-10.2-4.4-11.4-3c-3.7-1.3-10.9-1.1-11.9,3c-0.5,1.8-7.2-3.4-8.1-9.2
			c-0.3-1.6-1.8-9-1.8-9s-1.5-0.1-1.9,1.4c-0.5,1.5-2.6,5.4-2.1,6.8c0.5,1.4-1,2.3-0.1,6c0.9,3.6-0.7,4.9-0.3,6.3
			c0.4,1.4,1.3,8,4,12.1c2.7,4.1,3.1,9.1,6.9,10.9c3.8,1.8,10.2,3.9,10.9,4.8c0.7,1,3.4,1.8,4,2.9c0.1,0.1,0.1-0.2,0.2-0.9
			c0,0.7,0.1,1,0.2,0.9c0.6-1.1,3.2-1.9,4-2.9c0.7-1,7.1-3,10.9-4.8c3.8-1.8,4.2-6.8,6.8-10.9c2.7-4.1,3.6-10.7,4-12.1
			C90.1,75.3,88.6,74,89.5,70.4z M71.6,79.4c-0.7,1.2-5.8,1.1-7.8,0.4c-2,0.7-7.1,0.8-7.8-0.4c-0.7-1.2-1.2-2.2,1.2-3.5
			c1.2-0.7,4.4-2,6.6-2.2c2.2,0.2,5.4,1.6,6.6,2.2C72.8,77.3,72.3,78.2,71.6,79.4z"/>
		<path id="XMLID_375_" class="st8" d="M88,50.3c0,0-1.7,0.1-4.1-0.6c-2.4-0.7-3.9-1-7.7-1.1c-3.7-0.1-8.5,2.4-8.7,2.6
			c-0.4-0.8-1.8-1.1-3.1-1.1c-1.3,0-2.7,0.3-3.1,1.1c-0.3-0.2-5-2.7-8.7-2.6c-3.7,0.1-5.3,0.4-7.7,1.1c-2.4,0.7-4.1,0.6-4.1,0.6
			c-0.1,1.4,0.3,2.3,1,2.8c0.7,0.5,1,1.8,1.2,3.4c0.6,5.7,7.2,6.1,7.2,6.1s5.9,0.9,9-1.9c4.1-3.4,2.7-7.2,2.6-7.5
			c-0.1-0.2-0.1-0.7,0.2-1.2c0.7-0.8,1.7-1.1,2.5-1.1c0.8,0,1.8,0.3,2.5,1.1c0.3,0.5,0.3,1,0.2,1.2c-0.2,0.2-1.5,4,2.6,7.5
			c3.1,2.8,9,1.9,9,1.9s6.6-0.4,7.1-6.1c0.2-1.6,0.5-2.9,1.2-3.4C87.7,52.6,88.1,51.7,88,50.3z M42.3,52.1c-0.5,0-0.4-0.7-0.5-0.8
			l0.8-0.1C42.6,51.2,42.8,52.1,42.3,52.1z M58.8,59.7c-2.4,2.6-8.6,3.1-12.6,0.7C44,59,43.6,54.8,43.7,54c0.1-1.2,1.2-4.5,8.4-4.5
			c0,0,4.2-0.3,7.1,2C61.1,53.1,61.1,57.2,58.8,59.7z M82.6,60.3c-4.1,2.4-10.2,1.9-12.6-0.7c-2.3-2.5-2.3-6.6-0.4-8.2
			c2.9-2.3,7.1-2,7.1-2c7.1,0,8.2,3.4,8.4,4.5C85.2,54.8,85,58.9,82.6,60.3z M86.3,52.1c-0.5,0-0.3-0.9-0.3-0.9l0.8,0.1
			C86.7,51.3,86.8,52.1,86.3,52.1z"/>
		<path id="XMLID_374_" class="st7" d="M66.8,45.2c-7.4,2.3-14.8,2.4-14.8,2.4l1.1-1.7l-8.1,3.2L43.5,47c-2.5,1.2-3.4,10.7-3.4,10.7
			l-1.4-7.7c0,0-2.8,1.2-2.2,0.4c0.6-0.7,0.2-6.5,0.2-6.5l-4.1,0c0,0,3.3-2.2,2.2-8.9c-1.1-6.7,9.8-16.2,14.4-19.3
			c4.6-3.1,18.6-4.2,22.4-2.6l0.7,0.3c0,0-0.7-2.9-2.6-3.1c-1.9-0.2,4.1-0.2,4.4,3.1c0.3,3.3,2.7-0.5,5.7-1.1c3-0.5,2.5,0.2,2.5,0.2
			s-4.9,1.4-3.6,2.2c0,0,5,0.5,7.4,3.5c2.4,2.9,5.7,8.8,6.6,9c0.9,0.1-2.4,0-2.4,0s1.7,1.1,2,4.7c0.4,3.6-3.2,13.2-3.9,14.3
			c-0.7,1.1-1.8,2.9-1.8,2.9s-1.3-1.2-1.1-4.2c0.2-3-1.6-5.6-1.6-5.6s-3.6,3-10.4,5.4c-5.7,1.9-7.7,2.2-9.9,2.1"/>
	</g>
</g>
</svg>
