<?xml version="1.0" encoding="utf-8"?>
<!-- Generator: Adobe Illustrator 19.0.0, SVG Export Plug-In . SVG Version: 6.00 Build 0)  -->
<svg version="1.1" id="Capa_1" xmlns="http://www.w3.org/2000/svg" xmlns:xlink="http://www.w3.org/1999/xlink" x="0px" y="0px"
	 viewBox="0 0 127.8 127.8" style="enable-background:new 0 0 127.8 127.8;" xml:space="preserve">
<style type="text/css">
	.st0{fill:#688E36;}
	.st1{clip-path:url(#XMLID_2_);}
	.st2{fill-rule:evenodd;clip-rule:evenodd;fill:#F1D44C;}
	.st3{fill-rule:evenodd;clip-rule:evenodd;fill:#94478A;}
	.st4{fill-rule:evenodd;clip-rule:evenodd;fill:#F5E9D2;}
	.st5{fill-rule:evenodd;clip-rule:evenodd;fill:#D1803F;}
</style>
<g id="XMLID_90_">
	<path id="XMLID_268_" class="st0" d="M127.8,105.4c0,12.4-10,22.4-22.4,22.4H22.4C10,127.8,0,117.8,0,105.4V22.4C0,10,10,0,22.4,0
		h83.1c12.4,0,22.4,10,22.4,22.4V105.4z"/>
	<g id="XMLID_131_">
		<defs>
			<path id="XMLID_132_" d="M127.8,105.4c0,12.4-10,22.4-22.4,22.4H22.4C10,127.8,0,117.8,0,105.4V22.4C0,10,10,0,22.4,0h83.1
				c12.4,0,22.4,10,22.4,22.4V105.4z"/>
		</defs>
		<clipPath id="XMLID_2_">
			<use xlink:href="#XMLID_132_"  style="overflow:visible;"/>
		</clipPath>
		<g id="XMLID_133_" class="st1">
			<path id="XMLID_267_" class="st2" d="M54.4,82.4c-13.8,9.9-28.5,9.5-21.6,33.7c0,0,0.9-10.3,2.8-10.3
				c3.8,12.2-16.1,20.6,6.5,13.9c2.6-0.8,32.6-20.3,19.6-33.4C59.4,84.1,57.7,82.4,54.4,82.4z"/>
			<path id="XMLID_266_" class="st3" d="M61.7,98.4c5.4-0.6,4-0.6,10.6,0.5c19.9,1.8,19.8,21,21.9,32.8c-21.5,0.2-31,0-52.5,0.2
				C41.7,117.3,45.2,100,61.7,98.4z"/>
			<path id="XMLID_265_" class="st4" d="M58.8,100.7c-0.1,6,4.8,24.7,8.6,20.6c4.3-4.6,7.2-12.3,7.2-21.7
				C69.5,96,64.1,93,58.8,100.7z"/>
			<path id="XMLID_141_" class="st4" d="M72.3,71.9l-12.9-1.2c-0.1,0.5,1.8,26.9,2.1,30c0.3,3.1,2.3,3.9,4.4,3.9
				c2.2,0,4.5-0.7,4.7-4.3L72.3,71.9z"/>
			<path id="XMLID_140_" class="st4" d="M34.4,46.1l58.7,0.1l0.5,20.6c0.6,21.5-19.2,29.8-29.1,30.5C54,98,30.4,81.6,32.4,63.7
				L34.4,46.1z"/>
			<path id="XMLID_139_" class="st5" d="M66.3,83.2c-0.8,0-1.2,0.4-1.2,0.4s-0.4-0.4-1.2-0.4c-0.8,0-3.5,2-4.4,2.7
				c0.4,0.2,1.4,0.7,1.8,1.2c0.4,0.5,1.6,2.3,3.8,2.3c2.2,0,3.4-1.8,3.8-2.3c0.4-0.5,1.4-1,1.8-1.2C69.9,85.2,67.2,83.2,66.3,83.2z"
				/>
			<path id="XMLID_138_" class="st4" d="M35.5,75.8c-0.3-2.8-1.6-9.1-1.8-11.9c-1.1-0.7-6.3-1.6-7.7,2c-1.7,4.9,2.1,8.5,3.6,9.6
				C31.1,76.1,34.9,76,35.5,75.8z"/>
			<path id="XMLID_137_" class="st4" d="M42.4,120c-0.2,1.6-1.6,11-1,12h7c-0.7-1.2,0.6-7.4,0.6-9.2C44.9,122.8,44.5,121.8,42.4,120
				z"/>
			<path id="XMLID_136_" class="st4" d="M92.7,119.8c0.2,1.6,1.6,11,1,12h-7c0.7-1.2-0.6-7.4-0.6-9.2
				C90.2,122.7,90.6,121.7,92.7,119.8z"/>
			<path id="XMLID_135_" class="st2" d="M81.9,46.3c6.8,7.2-16.4,19.7-16.4,12.9c0-9.2-0.4,2.9-10,5.5c-1.5,0.4,8.1-19.5,0.4-5.3
				c-9.9,18.3-3.7-9.1-6.1-4c-4.6,9.9-11.4,19.7-11.4,31c0-0.1-4.9-25-4.1-8.3c0.3,6.1-5.6-8.8-5.6-24.3c0-24.9,14.2-47.3,41.9-44.9
				c27.8,2.3,34.6,34.9,32,59.8c-1.4,13-14.9,15.3-12.8,14.1c0.3-0.1,4-15.4,2.1-13.6C81.4,78.8,92.1,57.3,81.9,46.3z"/>
			<path id="XMLID_134_" class="st4" d="M94,74.1c0.2-2.6-0.2-8.3,0-10.9c1-0.7,5.7-1.4,6.9,1.8c1.5,4.5-1.9,7.8-3.2,8.8
				C96.3,74.3,94.5,74.2,94,74.1z"/>
		</g>
	</g>
</g>
</svg>
