<?xml version="1.0" encoding="UTF-8" standalone="no"?>
<svg width="27px" height="19px" viewBox="0 0 27 19" version="1.1" xmlns="http://www.w3.org/2000/svg" xmlns:xlink="http://www.w3.org/1999/xlink">
    <!-- Generator: Sketch 46.2 (44496) - http://www.bohemiancoding.com/sketch -->
    <title>Combined Shape</title>
    <desc>Created with Sketch.</desc>
    <defs></defs>
    <g id="Page-1" stroke="none" stroke-width="1" fill="none" fill-rule="evenodd">
        <path d="M6.40591877,2.70343073 C6.53210833,2.63213436 6.67092005,2.55553159 6.82755896,2.47043669 C7.02069112,2.36551664 8.72527192,1.45579108 9.51143175,1.03092411 C9.99730203,0.768343621 10.6040413,0.949355761 10.8666218,1.43522604 C11.1292022,1.92109632 10.9481901,2.52783556 10.4623198,2.79041605 C9.66925194,3.21901636 7.96727652,4.12735144 7.78228293,4.22785017 C7.22537148,4.5303952 6.94401714,4.69851816 6.63300453,4.91539973 C6.60524253,4.93475928 6.52645062,4.99378749 6.40591877,5.08509227 L6.40591877,11.8201984 C6.40591877,12.3724832 5.95820352,12.8201984 5.40591877,12.8201984 C4.85363402,12.8201984 4.40591877,12.3724832 4.40591877,11.8201984 L4.40591877,6.60840827 C3.58397801,7.23308343 2.65293902,7.93697549 1.82741731,8.54931385 C1.38384111,8.87834059 0.757522674,8.78547991 0.428495928,8.34190371 C0.0994691822,7.89832751 0.192329862,7.27200908 0.635906062,6.94298233 C1.87946369,6.02056197 3.39840412,4.86225715 4.40591877,4.09442032 L4.40591877,1.32236371 C4.40591877,0.770078957 4.85363402,0.322363707 5.40591877,0.322363707 C5.95820352,0.322363707 6.40591877,0.770078957 6.40591877,1.32236371 L6.40591877,2.70343073 Z M23.1363185,7.27754596 C24.0960731,5.34064461 24.5233376,3.74814812 24.5233376,1.90100088 C24.5233376,1.34871613 24.9710528,0.90100088 25.5233376,0.90100088 C26.0756223,0.90100088 26.5233376,1.34871613 26.5233376,1.90100088 C26.5233376,4.64898454 25.734675,6.88077745 24.0027819,9.88107831 C23.8139972,10.2081257 23.6166645,10.5416369 23.3526916,10.9818231 C23.3540527,10.9795533 22.8398509,11.8347561 22.6931208,12.0807168 C21.3296303,14.3663083 20.5690712,15.8873368 19.9902305,17.6961626 C19.8219032,18.2221706 19.2590333,18.5121281 18.7330254,18.3438008 C18.2070174,18.1754735 17.9170599,17.6126035 18.0853872,17.0865956 C18.7209051,15.1006584 19.5404203,13.4617246 20.9755331,11.0560741 C21.1243657,10.806589 21.64041,9.94832203 21.6374671,9.9532294 C21.8220131,9.64549097 21.9727059,9.39199921 22.1100761,9.15737674 C22.0967664,9.15504297 22.0773183,9.12702201 22.0393143,9.07263179 C21.8691737,8.82913168 21.5505383,8.51048395 21.0879387,8.1353043 C20.0840336,7.32111269 18.4763172,6.29712866 16.2769767,5.07668089 C15.7940617,4.808704 15.61982,4.1999859 15.8877969,3.71707097 C16.1557738,3.23415604 16.7644919,3.05991433 17.2474068,3.32789122 C20.1110338,4.91696167 22.0617371,6.17867761 23.1363185,7.27754596 Z M22.1387124,9.10841009 C22.1408718,9.09974819 22.1431516,9.09108949 22.1455529,9.08243579 C22.1427122,9.09267304 22.1401516,9.10187305 22.1377661,9.11003007 C22.1380816,9.10948999 22.138397,9.10894999 22.1387124,9.10841009 Z M11.6093746,3.04359522 C11.951025,2.81206066 12.415263,2.80848071 12.7657248,3.06806575 C13.2599695,3.43415001 14.6337093,4.43890063 14.8644851,4.61313342 C15.3515073,4.98082886 15.6306153,5.22279415 15.9376809,5.5500471 C16.0215616,5.63944244 18.0276704,8.03168912 19.6374142,9.83880192 C20.0047682,10.2511968 19.9682554,10.8833081 19.5558605,11.250662 C19.1434657,11.618016 18.5113544,11.5815032 18.1440004,11.1691083 C16.4995413,9.32302392 14.5167345,6.95856435 14.4791979,6.91855999 C14.1709579,6.59005533 15.3880716,7.4951463 13.0716657,5.78251474 L13.0716657,11.8609734 C13.0716657,12.4132581 12.6239504,12.8609734 12.0716657,12.8609734 C11.5193809,12.8609734 11.0716657,12.4132581 11.0716657,11.8609734 L11.0716657,3.93055477 C11.0716657,3.54505359 11.2898016,3.21050079 11.6093746,3.04359522 Z M8.03546088,5.603399 C8.05993149,5.05165663 8.5270444,4.62421843 9.07878676,4.64868903 C9.63052912,4.67315964 10.0579673,5.14027255 10.0334967,5.69201491 L9.73934354,12.3243292 C9.71487293,12.8760716 9.24776002,13.3035098 8.69601766,13.2790392 C8.1442753,13.2545686 7.71683709,12.7874557 7.7413077,12.2357133 L8.03546088,5.603399 Z" id="Combined-Shape" fill="#000000" fill-rule="nonzero"></path>
    </g>
</svg>