<?xml version="1.0" encoding="utf-8"?>
<!-- Generator: Adobe Illustrator 19.0.0, SVG Export Plug-In . SVG Version: 6.00 Build 0)  -->
<svg version="1.1" id="Capa_1" xmlns="http://www.w3.org/2000/svg" xmlns:xlink="http://www.w3.org/1999/xlink" x="0px" y="0px"
	 viewBox="0 0 127.8 127.8" style="enable-background:new 0 0 127.8 127.8;" xml:space="preserve">
<style type="text/css">
	.st0{fill:#424242;}
	.st1{fill-rule:evenodd;clip-rule:evenodd;fill:#CEAA84;}
	.st2{fill-rule:evenodd;clip-rule:evenodd;fill:#1E1D1D;}
	.st3{fill-rule:evenodd;clip-rule:evenodd;}
	.st4{opacity:0.1;fill:#010002;}
</style>
<g id="XMLID_2359_">
	<g id="XMLID_2347_">
		<path id="XMLID_2357_" class="st0" d="M112.3,128.9c0,0-94.6,0.1-95.1-1.4c-8.3-27.4,34.1-39.1,34.1-39.1l26-0.4
			C77.8,88.2,118.3,102,112.3,128.9z"/>
		<g id="XMLID_2348_">
			<path id="XMLID_2356_" class="st1" d="M80.5,69.7c1.3-4.4,2.9-14.2,4.2-18.6c1.7-0.9,8.6-0.8,9.1,5.1c0.4,8.1-5.7,12.8-8,14.1
				C83.7,70.7,81.2,70.1,80.5,69.7z"/>
			<path id="XMLID_2355_" class="st1" d="M44.9,70.9c-1.3-4.4-2.9-14.2-4.2-18.6c-1.7-0.9-8.6-0.8-9.1,5.1c-0.4,8.1,5.7,12.8,8,14.1
				C41.7,72,44.2,71.3,44.9,70.9z"/>
			<path id="XMLID_2354_" class="st1" d="M38.7,29.6l0.9,6.6c-3.3,6.4,2,50,11.4,55.9c3.1,2,9.3,7.5,16.9,4.1
				C78.1,91.7,81.3,85,83.5,74.3c2-9.7,6.6-33.7,1.8-43.1c-0.2-0.4-0.1-1.6-0.4-2L38.7,29.6z"/>
			<path id="XMLID_2353_" class="st2" d="M54,33.3c-1.8,5.5-14.6-0.9-14.6,4.6c0,1.8,0.6,22.4-0.9,18.3c-4.7-13-10.5-18,0.4-33.2
				c6.3-8.8,7.6-14,23.1-12.6c7.1,0.6,0.2,0.3,5.5-0.7c4.7-0.9,3,3.3,9.1,2.7c5.3-0.6,4.4,2.4,7.9,4.3c14.8,8.3,2.5,40.6-1.1,33.5
				c-5.8-11.4,1.4-12.3-2.5-17.9c-2.6,0,0.3,4.8-15.7,4.8c-3.1,0-1.1-2.9-3.2,0C59.4,40.4,54,33.6,54,33.3z"/>
			<path id="XMLID_2349_" class="st3" d="M86.1,52.2c-0.7-0.2-3.5-0.7-5-0.9c-1.8-0.3-3.6-0.4-5.4-0.4c-1.8,0-3.5,0.1-5.3,0.5
				c-1.7,0.3-3.4,0.8-5.1,1.2c-1,0.2-1.9,0.3-2.8,0.3c-0.9,0-1.9-0.1-2.8-0.3c-1.7-0.4-3.4-0.9-5.1-1.2c-1.7-0.3-3.5-0.5-5.3-0.5
				c-1.8,0-3.6,0.2-5.4,0.4c-1.5,0.2-4.3,0.8-5,0.9c-0.1,0-0.2,0.1-0.2,0.2c0,0.7,0.1,3,0.1,3.3l0,0c0.1,0,0.3,0.1,0.4,0.2
				c0.7,0.4,0.8,1.2,0.9,1.9c0.1,0.8,0.2,1.6,0.3,2.3c0.6,2.7,2.4,5.2,4.8,6.6c1.6,0.9,3.5,1.3,5.4,1.3c1.4-0.1,2.9-0.4,4.1-1.1
				c0.8-0.4,1.5-0.9,2.1-1.5c1-0.9,1.9-2.1,2.5-3.4c0.5-1.1,0.7-2.3,0.9-3.5c0.1-0.9,0.4-2,1.2-2.6c0.3-0.2,0.6-0.3,0.9-0.3
				c0.3,0,0.6,0.1,0.9,0.3c0.8,0.6,1.1,1.7,1.2,2.6c0.2,1.2,0.4,2.4,0.9,3.5c0.6,1.3,1.4,2.4,2.5,3.4c0.6,0.6,1.3,1.1,2.1,1.5
				c1.3,0.7,2.7,1,4.1,1.1c1.9,0.1,3.7-0.4,5.4-1.3c2.5-1.4,4.2-3.9,4.8-6.6c0.2-0.8,0.3-1.6,0.3-2.3c0.1-0.7,0.2-1.5,0.9-1.9
				c0.1-0.1,0.4-0.2,0.4-0.2l0,0c0-0.3,0.1-2.6,0.1-3.3C86.3,52.3,86.2,52.2,86.1,52.2z M59,56.2L59,56.2
				c-0.4,7.4-4.9,10.3-8.8,10.1c-7.2-0.3-8.4-7.3-8.2-11C42,51.5,59.1,52.5,59,56.2z M74.9,66.4L74.9,66.4c-4,0.2-8.5-2.7-8.8-10.1
				c-0.2-3.8,16.9-4.7,17.1-0.9C83.4,59.1,82.1,66,74.9,66.4z"/>
		</g>
	</g>
	<path id="XMLID_2427_" class="st4" d="M84,69.3c-0.2,0.1-0.5,0.3-1,1.5c-0.8,2.1-6.6,14.7-8.2,15c-0.1,0-0.1,0-0.1,0
		c-1.4-1.6-4.8-4.2-7-5.4c-2.2-1.2-4.9-1.8-5-1.8l-0.1,0l-0.1,0c-0.1,0-2.4,0.6-4.6,1.8c-2.2,1.2-5.5,3.8-6.9,5.4c0,0,0,0-0.1,0
		c-1.6-0.3-7.5-12.9-8.2-15c-0.5-1.3-0.8-1.5-1-1.5c-0.1,0-0.3,0-0.3,0.1l-0.1,0.1l0,0.1c0.1,0.7,3.5,16.2,6.9,19.8
		c0.7,0.7,1.5,1.7,2.4,2.7c4.5,5,8.4,9.2,10,9.4l2,0.3h0.4l2-0.3c1.5-0.2,5.4-4.4,10-9.4c0.9-1,1.7-1.9,2.4-2.7
		c3.4-3.6,6.7-19.1,6.9-19.8l0-0.1l-0.1-0.1C84.3,69.3,84.2,69.2,84,69.3z M71.7,89.7c-0.3,0.4-1,1.1-1.8,2
		c-1.6,1.8-4.5,5.1-5.2,5.6c-0.2-0.5-0.2-2.6-0.2-4.6c0.4,0.1,1.2,0.1,1.7-0.3c0.2-0.1,0.3-0.4,0.3-0.6c0.1-0.5,0.1-1-0.2-1.4
		c-0.2-0.2-0.6-0.4-1.1-0.4c-0.9-0.1-1.9,0-2.2,0c-0.3,0-1.5-0.1-2.4,0c-0.5,0-0.8,0.2-1.1,0.4c-0.3,0.4-0.3,0.9-0.2,1.4
		c0,0.2,0.2,0.5,0.3,0.6c0.5,0.3,1.3,0.3,1.7,0.3c0,2,0,4.1-0.2,4.6c-0.7-0.5-3.6-3.8-5.2-5.6c-0.8-0.9-1.4-1.7-1.8-2
		c-1-1-0.4-2-0.1-2.6c0.1-0.1,0.1-0.2,0.1-0.2c0.2-0.3,2.1-1.5,3.1-2.1c0.5-0.3,1-0.6,1.2-0.7c0.6-0.4,3-0.7,4-0.8l0.6,0
		c1,0.1,3.6,0.4,4.2,0.8c0.2,0.2,0.7,0.4,1.2,0.7c1,0.6,2.9,1.7,3.1,2.1c0,0.1,0.1,0.2,0.1,0.2C72.1,87.7,72.7,88.6,71.7,89.7z"/>
</g>
</svg>
