<?xml version="1.0" encoding="utf-8"?>
<!-- Generator: Adobe Illustrator 19.0.0, SVG Export Plug-In . SVG Version: 6.00 Build 0)  -->
<svg version="1.1" id="Capa_1" xmlns="http://www.w3.org/2000/svg" xmlns:xlink="http://www.w3.org/1999/xlink" x="0px" y="0px"
	 viewBox="0 0 127.8 127.8" style="enable-background:new 0 0 127.8 127.8;" xml:space="preserve">
<style type="text/css">
	.st0{fill-rule:evenodd;clip-rule:evenodd;fill:#010002;}
	.st1{fill:#010002;}
	.st2{fill-rule:evenodd;clip-rule:evenodd;fill:#C23C41;}
	.st3{fill-rule:evenodd;clip-rule:evenodd;fill:#F0D6AC;}
	.st4{fill-rule:evenodd;clip-rule:evenodd;fill:#A33534;}
</style>
<path id="XMLID_2340_" class="st0" d="M80.6,83.1L71.4,8.9c34.8,0.8,25,38.4,31.8,38.4c0.5,0-0.3,2.1-4.8,2.1
	c0.6,2.5,10.8,4.9-0.2,16.3c-1.8,1.9,4,12.6-9.5,16.3C87.4,82.2,80.6,83.1,80.6,83.1z"/>
<path id="XMLID_2339_" class="st1" d="M80.6,83.1l0.2,0L71.6,8.8l-0.2,0l0,0.2c8.7,0.2,14.5,2.7,18.6,6.3c6.1,5.4,8.1,13.4,9.1,20
	c0.6,3.3,0.9,6.3,1.4,8.5c0.3,1.1,0.6,2,1,2.6c0.4,0.6,1,1,1.7,1v0l0,0l0,0v0l0,0l0-0.1l-0.1,0l0,0l0-0.1l-0.1,0l0,0l0,0l0,0l0,0
	l0,0v0c0,0,0,0.2-0.2,0.4c-0.5,0.5-1.8,1.3-4.5,1.3h0l-0.2,0l0.1,0.2c0.1,0.5,0.5,0.9,1,1.3c0.7,0.7,1.7,1.4,2.5,2.4
	c0.8,0.9,1.4,2.1,1.4,3.6c0,2.1-1.2,4.9-5,8.8c-0.4,0.4-0.4,1-0.4,1.8c0,1,0.2,2.4,0.2,3.8c0,1.9-0.3,4-1.5,5.9
	c-1.3,1.9-3.5,3.6-7.6,4.7c-0.7,0.2-2.7,0.5-4.6,0.7c-0.9,0.1-1.8,0.2-2.5,0.3c-0.3,0-0.6,0.1-0.8,0.1c-0.1,0-0.2,0-0.2,0l-0.1,0
	l0,0l0,0h0l0,0l-0.1,0L80.6,83.1l0.2,0L80.6,83.1l0.1,0.1L80.6,83.1l0.1,0.2l0.1,0L80.6,83.1l0.1,0.2L80.6,83.1l0,0.2l0,0L80.6,83.1
	l0,0.2c0,0,0.5-0.1,1.1-0.2c1-0.1,2.5-0.3,3.9-0.5c1.4-0.2,2.6-0.4,3.2-0.5c4.1-1.1,6.4-2.9,7.8-4.9c1.3-2,1.6-4.2,1.6-6.1
	c0-1.5-0.2-2.8-0.2-3.8c0-0.7,0.1-1.3,0.3-1.5c3.8-4,5.1-6.9,5.1-9.1c0-2.1-1.2-3.6-2.4-4.7c-0.6-0.6-1.2-1-1.7-1.5
	c-0.5-0.4-0.8-0.8-0.9-1.2l-0.2,0l0,0.2h0c1.9,0,3.2-0.4,4-0.8c0.4-0.2,0.7-0.5,0.9-0.7c0.2-0.2,0.3-0.4,0.3-0.6
	c0-0.1,0-0.2-0.1-0.2c-0.1-0.1-0.2-0.1-0.2-0.1c-0.4,0-0.7-0.1-1-0.4c-0.5-0.5-0.9-1.4-1.3-2.7c-1.1-4.5-1.3-13.2-4.8-20.8
	c-1.8-3.8-4.3-7.4-8.3-10c-3.9-2.6-9.2-4.4-16.4-4.5l-0.2,0l9.2,74.8l0.3-0.2L80.6,83.1z"/>
<path id="XMLID_2338_" class="st0" d="M47.2,83.1l-3.9-66c-14.7-1.9-11.9,30.1-18.7,30.1c-0.5,0,0.3,2.1,4.8,2.1
	c-0.6,2.5-10.8,4.9,0.2,16.3c1.8,1.9-4,12.6,9.5,16.3C40.4,82.2,47.2,83.1,47.2,83.1z"/>
<path id="XMLID_2337_" class="st1" d="M47.2,83.1l0.2,0l-3.9-66.1l-0.2,0c-0.4-0.1-0.8-0.1-1.2-0.1c-3.4,0-5.8,1.9-7.6,4.8
	c-2.7,4.3-3.9,10.7-5.2,16c-0.6,2.7-1.2,5-2,6.7c-0.4,0.9-0.8,1.5-1.3,2c-0.5,0.5-0.9,0.7-1.5,0.7c-0.1,0-0.2,0-0.2,0.1
	c-0.1,0.1-0.1,0.2-0.1,0.2c0,0.2,0.1,0.4,0.3,0.6c0.6,0.7,2,1.5,4.8,1.5l0,0l0-0.2l-0.2,0c-0.1,0.3-0.4,0.7-0.9,1.2
	c-0.7,0.7-1.7,1.4-2.5,2.4c-0.8,1-1.5,2.2-1.5,3.8c0,2.2,1.3,5.1,5.1,9.1c0.2,0.2,0.3,0.8,0.3,1.5c0,1-0.2,2.3-0.2,3.8
	c0,1.9,0.3,4.1,1.6,6.1c1.3,2,3.7,3.8,7.8,4.9c0.7,0.2,2.8,0.5,4.6,0.8c0.9,0.1,1.8,0.2,2.5,0.3c0.3,0,0.6,0.1,0.8,0.1
	c0.1,0,0.2,0,0.2,0l0.1,0l0,0l0,0l0,0l0,0l0,0l0,0L47.2,83.1l0,0.2l0,0L47.2,83.1l0,0.2L47.2,83.1l-0.1,0.2l0,0L47.2,83.1l-0.1,0.2
	L47.2,83.1l-0.1,0.1l0.1,0L47.2,83.1l-0.1,0.1l0.3,0.3l0-0.4L47.2,83.1l0.1-0.1l-0.1,0l0,0c-0.1,0-0.5-0.1-1.2-0.2
	c-1-0.1-2.5-0.3-3.9-0.5c-1.4-0.2-2.6-0.4-3.1-0.5c-4-1.1-6.3-2.8-7.6-4.7c-1.3-1.9-1.5-4-1.5-5.9c0-1.5,0.2-2.8,0.2-3.8
	c0-0.8-0.1-1.4-0.4-1.8c-3.8-3.9-5-6.8-5-8.8c0-2,1.1-3.3,2.2-4.4c0.6-0.5,1.2-1,1.7-1.5c0.5-0.4,0.9-0.9,1-1.3l0.1-0.2l-0.2,0h0
	c-1.9,0-3.1-0.4-3.8-0.7c-0.4-0.2-0.6-0.4-0.8-0.6c-0.2-0.2-0.2-0.3-0.2-0.4l0,0l-0.1,0l0,0l0,0l-0.1,0l0,0l0,0v0.1l0,0l0,0v0.1
	c0.9,0,1.7-0.5,2.3-1.4c1.1-1.5,1.8-4,2.6-7c1.1-4.5,2.1-10,4-14.3c0.9-2.2,2-4.1,3.5-5.4c1.4-1.3,3.1-2.1,5.3-2.1
	c0.4,0,0.8,0,1.2,0.1l0-0.2l-0.2,0l3.9,66L47.2,83.1l0.1-0.1L47.2,83.1z"/>
<path id="XMLID_2336_" class="st2" d="M55.9,94.4c5.3-0.5,11.6-0.9,18.1,0.2c19.8,1.7,21.1,23.2,23.2,34.6
	c-21.4,0.2-42.8,0.3-64.2,0.5C33.1,115.6,39.5,96,55.9,94.4z"/>
<path id="XMLID_2335_" class="st3" d="M71.9,80.7L58,80c-0.1,0.3,0.7,16.9,1.1,18.9c1.2,5.6,11.6,7.1,12.7-0.9L71.9,80.7z"/>
<path id="XMLID_2334_" class="st3" d="M92.6,71.8c0.3-3.8-0.3-12,0-15.8c1.4-1,8.2-2.1,10,2.6c2.2,6.5-2.8,11.3-4.6,12.7
	C95.9,72.1,93.3,72,92.6,71.8z"/>
<path id="XMLID_2333_" class="st3" d="M91.2,23.6c-6.6-14.5-50.9-13.4-55.9,3.1c-3.4,16.6-3.7,34.6,0.4,47.6
	C40.7,86.5,52,91.9,60.1,95.9c3.5,1.3,11.3,0.5,13.9-0.9c9.5-4.9,17.9-15.6,19.8-23.4C95.9,55.2,96.9,39.4,91.2,23.6z"/>
<path id="XMLID_2332_" class="st3" d="M36,72.5c-0.3-3.7,0.3-11.8,0-15.5c-1.4-1-8.2-2-10,2.6c-2.2,6.4,2.8,11.1,4.7,12.5
	C32.6,72.9,35.2,72.8,36,72.5z"/>
<path id="XMLID_2331_" class="st3" d="M34.6,117c-0.3,1.7-2.4,11.9-1.6,12.9h10.7c-1-1.3,0.9-7.9,0.9-9.8
	C38.5,120.1,37.8,119,34.6,117z"/>
<path id="XMLID_2330_" class="st3" d="M95.1,116.8c0.4,1.7,2.4,11.9,1.6,12.9H85.9c1-1.3-0.9-7.9-0.9-9.8
	C91.3,119.9,91.9,118.9,95.1,116.8z"/>
<path id="XMLID_2329_" class="st0" d="M41.7,17.3C41.4,28.9,61.3,31.8,70,30.5c10.8-1.7,10.6-11.8,7.9-9.9c-0.8,0.6-7.4,0.7-8.8-1.3
	c-2.4-5.4,19.5-3.3,22.4,5.1c0.7,2.1,1.6-3.8-1.4-7.2c-4.3-4.8-13.3-8.7-22.3-8.7C48.2,8.5,45.7,10.9,41.7,17.3z"/>
<path id="XMLID_2328_" class="st0" d="M54.9,88.7c-0.7-0.3,4.4,3.8,5.1,4.2c1.9,1.2,4.4,1.4,6.1,1.4c6.6,0.1,11.2-6.6,10.5-6.1
	c-2.7,1.7-6.2,2.2-8.3,1.8c-1.6-0.3-1.3-2-1.2-2.6c0.2-1.1,1.6-1.1,1.5-2.1c0-0.5-5.8-0.7-5.8,0.2c0,0.6,1.4,1.2,1.6,1.8
	c0.5,1.4-0.1,2.4-0.8,2.8C61.1,91.3,57,89.6,54.9,88.7z"/>
<path id="XMLID_2310_" class="st0" d="M41.8,52.7c2.4-0.7,5.9-1,9.5-1c3.6,0,7.2,0.3,9.9,1c0.7,0.2,1.3,0.5,1.7,0.9
	c0.2,0.2,0.4,0.5,0.6,0.8H66c0.1-0.3,0.3-0.6,0.6-0.9c0.4-0.4,1-0.7,1.7-0.9c2.7-0.7,6.3-1,9.9-1c3.5,0,7,0.3,9.5,1
	c0.7,0.2,1.3,0.5,1.8,1c0.5,0.5,0.7,1,0.7,1.8c0,0.8-0.2,1.6-0.5,2.5c-0.3,0.8-0.6,1.6-1,2.4l0,0l0,0c-0.6,1.1-1.1,2.1-2.5,2.3
	c-2.5,0.4-5.8,0.6-8.9,0.6c-2.8,0-5.5-0.2-7.5-0.6c-0.6-0.1-1.2-0.4-1.6-0.8h0c-0.4-0.4-0.8-0.8-1.1-1.3c-0.5-0.8-0.8-1.6-1-2.5
	c-0.1-0.5-0.2-1.1-0.2-1.6h-2c0,0.6-0.1,1.2-0.2,1.7c-0.2,0.9-0.6,1.8-1,2.5c-0.3,0.5-0.7,1-1.1,1.3l0,0c-0.5,0.4-1,0.7-1.6,0.8
	c-2,0.4-4.7,0.6-7.5,0.6c-3.1,0-6.4-0.2-8.9-0.6c-1.4-0.2-1.9-1.2-2.5-2.3l0,0l0,0c-0.4-0.8-0.8-1.6-1-2.4c-0.3-0.8-0.5-1.7-0.5-2.5
	c0-0.7,0.2-1.3,0.7-1.8C40.5,53.2,41.2,52.9,41.8,52.7z M87.2,54.3c-2.3-0.6-5.6-1-9-1c-3.4,0-6.9,0.3-9.5,1
	c-0.4,0.1-0.7,0.2-0.9,0.5c-0.2,0.2-0.3,0.4-0.3,0.7c-0.1,0.8-0.1,1.5,0.1,2.1c0.2,0.7,0.4,1.4,0.8,2c0.2,0.4,0.5,0.7,0.7,0.9v0
	c0.3,0.2,0.6,0.4,0.9,0.4c1.8,0.4,4.4,0.6,7.1,0.6c3.1,0,6.3-0.2,8.7-0.6c0.6-0.1,0.9-0.7,1.2-1.4l0,0l0,0c0.4-0.7,0.7-1.5,0.9-2.2
	c0.2-0.7,0.4-1.4,0.4-2c0-0.2-0.1-0.3-0.2-0.5C88,54.6,87.6,54.4,87.2,54.3z M51.3,53.4c-3.4,0-6.7,0.3-9,1
	c-0.4,0.1-0.8,0.3-1.1,0.5c-0.1,0.1-0.2,0.3-0.2,0.5c0,0.6,0.2,1.3,0.4,2c0.2,0.7,0.6,1.5,0.9,2.2l0,0l0,0c0.4,0.7,0.7,1.3,1.2,1.4
	c2.4,0.4,5.6,0.6,8.7,0.6c2.7,0,5.3-0.2,7.1-0.6c0.4-0.1,0.7-0.2,0.9-0.4v0c0.3-0.2,0.5-0.5,0.7-0.9c0.4-0.6,0.6-1.3,0.8-2
	c0.1-0.7,0.2-1.4,0.1-2.1c0-0.3-0.2-0.5-0.3-0.7c-0.2-0.2-0.5-0.4-0.9-0.5C58.3,53.7,54.8,53.4,51.3,53.4z"/>
<path id="XMLID_2308_" class="st4" d="M60.6,98.8c-6.5-4.3-5.2,7.7,7.1,6.6c5.4-0.5,9.3-6.2,5.5-7.1C70.6,97.8,69.3,102.8,60.6,98.8
	z"/>
<path id="XMLID_2307_" class="st4" d="M36.5,115.3c-5.3-4.9-5.9,6.2,5.5,7.1c5,0.4,9.4-4.3,6.1-5.6
	C45.9,115.8,43.9,120.2,36.5,115.3z"/>
<path id="XMLID_2306_" class="st4" d="M83.8,117.1c-6.9-2.2-2.7,8.2,8,4.1c4.7-1.8,6.7-7.9,3.1-7.7
	C92.5,113.6,92.6,118.4,83.8,117.1z"/>
<path id="XMLID_2305_" class="st0" d="M97.5,54.4l-2.2-15.8c0.1,16.3-5.8,25.6-5,26.2c5.3,4.3,3.8,2.5,6.5-7.8
	C96.9,57,97.4,54.8,97.5,54.4z"/>
<path id="XMLID_2304_" class="st0" d="M31.4,52.6l2.2-15.8c-0.1,16.3,5.8,25.6,5,26.2c-5.3,4.3-3.8,2.4-6.5-7.8
	C32,55.2,31.6,52.9,31.4,52.6z"/>
</svg>
