<?xml version="1.0" encoding="utf-8"?>
<!-- Generator: Adobe Illustrator 19.0.0, SVG Export Plug-In . SVG Version: 6.00 Build 0)  -->
<svg version="1.1" id="Capa_1" xmlns="http://www.w3.org/2000/svg" xmlns:xlink="http://www.w3.org/1999/xlink" x="0px" y="0px"
	 viewBox="0 0 127.8 127.8" style="enable-background:new 0 0 127.8 127.8;" xml:space="preserve">
<style type="text/css">
	.st0{fill-rule:evenodd;clip-rule:evenodd;fill:#A57A5D;}
	.st1{fill-rule:evenodd;clip-rule:evenodd;fill:#3E83D6;}
	.st2{fill-rule:evenodd;clip-rule:evenodd;fill:#FFFFFF;}
	.st3{fill-rule:evenodd;clip-rule:evenodd;fill:#D7AC6C;}
	.st4{fill-rule:evenodd;clip-rule:evenodd;fill:#F0D6AC;}
	.st5{fill-rule:evenodd;clip-rule:evenodd;fill:#010002;}
	.st6{fill-rule:evenodd;clip-rule:evenodd;fill:#D27E41;}
</style>
<g id="XMLID_2488_">
	<path id="XMLID_2561_" class="st0" d="M90.5,68.2l-56.6,2.5c-1.7,1.8,3.2,24.6,3.2,24.7c1.3,1.8,1.9,10.8,33.8,8.3
		c2.9-0.2,18.8-1.4,20.1-6.3C92.7,91,92.9,76.7,90.5,68.2z"/>
	<g id="XMLID_2553_">
		<path id="XMLID_2560_" class="st1" d="M58.5,97.2c6.1-0.6,4.5-0.6,11.9,0.5c22.5,1.7,22.3,20.8,24.8,32.5
			c-24.3,0.2-32.1,0-56.4,0.2C38.7,116,39.9,98.8,58.5,97.2z"/>
		<path id="XMLID_2559_" class="st2" d="M69,93.5L60,94.3c-10.8,5.7-10.2,14.4-8.9,15.9c1.8,2.1,7.3-4.2,8.4-3.2
			c1.7,1.6-1.8,11.8,2.4,11.8c5.4,0,7.8,0.3,8.1-1c0.3-1.2-0.5-3.7-0.3-9.9c0.2-3.5,9.8,8.3,9.8,0.5C79.6,102.4,73.9,96,69,93.5z"/>
		<path id="XMLID_2558_" class="st3" d="M70,71l-12.8-1.2c-0.1,0.5,1.8,26.6,2.1,29.7c0.3,3,2.3,3.8,4.4,3.9c2.2,0,4.4-0.7,4.7-4.3
			L70,71z"/>
		<path id="XMLID_2557_" class="st4" d="M92.4,115.3c0.3,1.9,3.9,13.8,2.9,14.9l-6.9-0.1c-0.3-1.3-2.8-9.5-2.8-11.7
			C87.6,118.2,88.7,117.5,92.4,115.3z"/>
		<path id="XMLID_2556_" class="st4" d="M39.2,115.3c-0.3,1.9-1.8,13.8-0.8,14.9l6.9-0.1c0.3-1.3,0.9-9.8,0.8-11.9
			C44.2,117.9,42.9,117.5,39.2,115.3z"/>
		<path id="XMLID_2555_" class="st2" d="M84.9,119.4c0.7,0.4,12-1.7,7.8-5.8C92,112.7,79.9,116.8,84.9,119.4z"/>
		<path id="XMLID_2554_" class="st2" d="M38.2,116.9c0.4,0.7,10.7,5.6,9.7-0.2C47.8,115.7,35.6,111.8,38.2,116.9z"/>
	</g>
	<path id="XMLID_2552_" class="st4" d="M92.2,74.2c0.2-2.6-0.2-8.2,0-10.8c1-0.7,5.6-1.4,6.8,1.8c1.5,4.4-1.9,7.7-3.2,8.7
		C94.5,74.5,92.7,74.4,92.2,74.2z"/>
	<path id="XMLID_2551_" class="st4" d="M34.1,20.2l59,9.5v37c0,21.3-19,29.5-28.8,30.2c-10.4,0.7-32.4-15.4-31.8-33.2L34.1,20.2z"/>
	<path id="XMLID_2550_" class="st0" d="M32.2,63.7c-8.8-1-12.9-37.9,2.1-47.4c14.2-9,57.3-8.7,63.7,10.6C102,38.5,104,56,92.5,65.5
		c0,0,3.8-32.3-19.6-33.8c-7.3-0.5-6.8,7.7-9,8c-0.9,0.1-0.3-5.5-5.6-7.4C38.1,25,35.5,51.8,33.8,57C33.6,57.6,32.7,63.8,32.2,63.7z
		"/>
	<path id="XMLID_2494_" class="st5" d="M90.3,59.5c0-0.2-0.1-0.2-0.3-0.3c-0.1,0-0.2-0.1-0.4-0.1c-1.7-0.2-3.4-0.5-5.1-0.6
		c-1.4-0.1-2.7-0.1-4.1-0.2c-2.6-0.1-5.2-0.1-7.8,0.2c-1.6,0.2-3.2,0.4-4.7,0.9c-0.8,0.2-1.5,0.5-2.3,0.7c-1.2,0.3-2.5,0.5-3.7,0.3
		c-0.8-0.1-1.5-0.3-2.2-0.5c-1.3-0.4-2.6-0.7-4-1c-2.7-0.4-5.4-0.6-7.9-0.6c-2,0-3.9,0.1-5.7,0.3c-1.5,0.2-3,0.3-4.5,0.5
		c-0.3,0-0.6,0.1-0.9,0.2c-0.2,0-0.3,0.1-0.3,0.3c0,0.8-0.1,1.6-0.1,2.3c0,0.1,0,0.2,0,0.4c0,0.1,0.1,0.2,0.2,0.2
		c0.1,0,0.2,0.1,0.3,0.1c0.5,0.3,0.7,0.8,0.9,1.2c0.1,0.3,0.2,0.7,0.3,1c0.1,0.2,0.2,0.4,0.2,0.6c0.3,1,0.5,2,0.8,3.1
		c0.3,1,0.6,1.9,1.1,2.8c0.6,1,1.4,1.8,2.6,2.2c0.7,0.3,1.5,0.4,2.2,0.5c1.4,0.2,2.8,0.2,4.1,0.1c1.4-0.1,2.8-0.3,4.1-0.6
		c1-0.3,2-0.6,2.8-1.2c1.2-0.9,2.2-2,3-3.3c0.8-1.3,1.3-2.6,1.8-4c0.1-0.4,0.3-0.8,0.4-1.2c0.2-0.6,0.7-0.9,1.4-1c0.2,0,0.4,0,0.7,0
		c0.5,0,1,0.1,1.3,0.5c0.1,0.2,0.3,0.3,0.4,0.5c0.2,0.4,0.4,0.8,0.5,1.1c0.6,1.7,1.4,3.3,2.4,4.8c0.8,1.3,1.9,2.3,3.4,3
		c1,0.5,2.1,0.8,3.3,1c1.7,0.3,3.5,0.4,5.2,0.3c1.1,0,2.1-0.2,3.1-0.4c1-0.3,2-0.7,2.7-1.5c0.4-0.5,0.8-1.1,1-1.6
		c0.6-1.2,0.9-2.5,1.3-3.8c0.2-0.6,0.3-1.3,0.5-1.9c0.1-0.3,0.2-0.7,0.3-1c0.1-0.3,0.2-0.6,0.4-0.9c0.2-0.3,0.4-0.5,0.8-0.6
		c0.2-0.1,0.2-0.1,0.3-0.3c0-0.1,0.1-0.2,0.1-0.3c0-0.5,0-0.9,0-1.4C90.4,60.1,90.3,59.8,90.3,59.5z M38.6,60.9L38.6,60.9
		c-0.6,0-1-0.1-1-0.2c0-0.1,0.5-0.2,1-0.2c0.6,0,1,0.1,1,0.2C39.6,60.8,39.2,60.9,38.6,60.9z M58.6,65.9L58.6,65.9
		c-0.4,1.4-1,2.6-1.8,3.8c-0.4,0.7-0.9,1.3-1.6,1.8c-0.8,0.7-1.8,1.1-2.9,1.4c-2.2,0.5-4.5,0.6-6.7,0.3c-0.4-0.1-0.9-0.2-1.3-0.3
		c-0.9-0.2-1.6-0.7-2.1-1.4c-0.6-0.8-0.9-1.6-1.2-2.5c-0.3-1.1-0.5-2.3-0.6-3.5c-0.1-0.7-0.1-1.4,0-2c0-0.3,0.1-0.7,0.2-1
		c0.3-1.2,1.1-1.9,2.5-2.2c1.2-0.3,2.5-0.4,3.7-0.5c0.9-0.1,1.9-0.1,2.5-0.1c2.1,0,3.9,0.1,5.7,0.5c0.7,0.1,1.5,0.3,2.1,0.6
		c0.3,0.1,0.6,0.3,0.9,0.5c0.5,0.3,0.7,0.8,0.8,1.3C59,63.8,58.9,64.8,58.6,65.9z M86.3,65.4L86.3,65.4c0,1.6-0.4,3.3-1,4.8
		c-0.3,0.6-0.6,1.2-1.2,1.7c-0.6,0.5-1.4,0.8-2.2,1c-1,0.2-2.1,0.3-3.1,0.3c-1.6,0-3.1-0.2-4.7-0.5c-1.5-0.3-2.8-1-3.7-2.1
		c-1.2-1.4-2-2.9-2.5-4.6c-0.2-0.8-0.4-1.6-0.4-2.4c0-0.3,0.1-0.7,0.1-1c0.2-0.9,0.8-1.4,1.7-1.7c0.9-0.3,1.9-0.5,2.8-0.7
		c1.1-0.2,2.1-0.3,3.2-0.4c0.8-0.1,1.7-0.1,2.3-0.1c2.3,0.1,4.2,0.2,6.2,0.7c0.4,0.1,0.7,0.2,1,0.4c0.3,0.1,0.6,0.3,0.7,0.6
		c0.2,0.3,0.4,0.6,0.5,0.9c0.2,0.4,0.2,0.8,0.2,1.2C86.3,64.1,86.3,64.7,86.3,65.4z M88.1,60.9L88.1,60.9c-0.6,0-1-0.1-1-0.2
		c0-0.1,0.5-0.2,1-0.2c0.6,0,1,0.1,1,0.2C89.1,60.8,88.7,60.9,88.1,60.9z"/>
	<path id="XMLID_2493_" class="st6" d="M65.4,82c-1.1,0-1.5,0.6-1.5,0.6S63.4,82,62.3,82c-1.1,0-4.6,2.6-5.8,3.6
		c0.5,0.2,1.8,0.9,2.3,1.5c0.5,0.6,2.1,3,5,3c2.9,0,4.5-2.4,5-3c0.5-0.6,1.8-1.3,2.3-1.5C70,84.6,66.5,82,65.4,82z"/>
	<path id="XMLID_2491_" class="st4" d="M35.5,75.6c-0.3-2.8-1.5-9-1.8-11.8c-1.1-0.7-6.2-1.5-7.6,2c-1.7,4.8,2.1,8.4,3.5,9.5
		C31.1,75.9,34.9,75.8,35.5,75.6z"/>
</g>
</svg>
