<?xml version="1.0" encoding="utf-8"?>
<!-- Generator: Adobe Illustrator 19.0.0, SVG Export Plug-In . SVG Version: 6.00 Build 0)  -->
<svg version="1.1" id="Capa_1" xmlns="http://www.w3.org/2000/svg" xmlns:xlink="http://www.w3.org/1999/xlink" x="0px" y="0px"
	 viewBox="0 0 127.8 127.8" style="enable-background:new 0 0 127.8 127.8;" xml:space="preserve">
<style type="text/css">
	.st0{fill:#434248;}
	.st1{fill:#282729;}
	.st2{fill:#343137;}
	.st3{fill:#F5F3E1;}
	.st4{fill:#DAD9CE;}
	.st5{fill:#BCB9AF;}
	.st6{fill:#FCFBF1;}
</style>
<path id="XMLID_606_" class="st0" d="M39.7,38.7c5.2-1.8,6.9-6.3,3.8-9.9l-6.7-7.9c-3.1-3.6-7.4-5.7-9.5-4.5
	c-2.2,1.2-3.9,5.7-3.9,10v10.1c0,4.3,4.2,6.4,9.4,4.6L39.7,38.7z"/>
<path id="XMLID_605_" class="st0" d="M86.5,38.7c-5.2-1.8-6.9-6.3-3.8-9.9l6.7-7.9c3.1-3.6,7.4-5.7,9.5-4.5c2.2,1.2,3.9,5.7,3.9,10
	v10.1c0,4.3-4.2,6.4-9.4,4.6L86.5,38.7z"/>
<polygon id="XMLID_601_" class="st1" points="30.5,21 30.5,41.8 40.4,31.4 "/>
<polygon id="XMLID_598_" class="st1" points="95.7,21 95.7,41.8 85.7,31.4 "/>
<path id="XMLID_571_" class="st0" d="M102.8,78c-16.9,0-38.3,0-39.7,0c0,0,0,0-0.1,0c-1.4,0-22.8,0-39.7,0
	c-12.6,5.7-35.5,51.8-35.5,51.8H63h0.1h75.2C138.3,129.8,115.4,83.8,102.8,78z"/>
<path id="XMLID_570_" class="st2" d="M96.1,44.4c-7.6-9.4-19.6-15.5-33-15.5c-13.5,0-25.4,6.1-33,15.5c-9.6,11.9-12,42.5-12,43.4
	c0,14.5,20.2,19.6,45,19.6c24.9,0,45-5.2,45-19.6C108.1,86.9,105.7,56.2,96.1,44.4z"/>
<path id="XMLID_567_" class="st3" d="M96.1,39.1c-7.6-9.4-19.6-15.5-33-15.5c-13.5,0-25.4,6.1-33,15.5c-9.6,11.9-12,42.5-12,43.4
	c0,14.5,20.2,19.6,45,19.6c24.9,0,45-5.2,45-19.6C108.1,81.6,105.7,51,96.1,39.1z"/>
<path id="XMLID_564_" class="st4" d="M79,60.6H47.2L19.8,89.2c5.4,9.4,22.7,12.9,43.3,12.9c20.5,0,37.9-3.5,43.3-12.9L79,60.6z"/>
<polygon id="XMLID_561_" class="st4" points="72.9,49.1 82.9,59.5 82.9,38.7 "/>
<polygon id="XMLID_558_" class="st4" points="43.6,38.7 43.6,59.5 53.5,49.1 "/>
<polygon id="XMLID_555_" class="st5" points="47.7,81.4 47.7,71 37.7,71 "/>
<polygon id="XMLID_552_" class="st5" points="78.5,81.4 78.5,71 88.4,71 "/>
<path id="XMLID_550_" class="st0" d="M41.5,72.4c-1.1,0-2.2-0.3-3.2-1c-2.7-1.8-3.5-5.6-1.7-8.5l8.1-13.1c1.8-2.8,5.4-3.6,8.1-1.8
	c2.7,1.8,3.5,5.6,1.7,8.5l-8.1,13.1C45.3,71.4,43.4,72.4,41.5,72.4z"/>
<path id="XMLID_548_" class="st0" d="M85.3,72.4c-1.9,0-3.8-1-4.9-2.8l-8.1-13.1c-1.8-2.8-1-6.6,1.7-8.5c2.7-1.8,6.3-1,8.1,1.8
	L90.2,63c1.8,2.8,1,6.6-1.7,8.5C87.4,72.1,86.3,72.4,85.3,72.4z"/>
<ellipse id="XMLID_546_" class="st1" cx="49.3" cy="53.7" rx="2.9" ry="3.1"/>
<ellipse id="XMLID_545_" class="st1" cx="77.9" cy="53.7" rx="2.9" ry="3.1"/>
<path id="XMLID_542_" class="st6" d="M80.4,84.2c0,8.7-6.7,15.8-15.1,15.8h-4.6c-8.3,0-15.1-7.1-15.1-15.8V71.9
	c0-8.7,6.7-15.8,15.1-15.8h4.6c8.3,0,15.1,7.1,15.1,15.8V84.2z"/>
<path id="XMLID_541_" class="st2" d="M74.8,90.8c-3.6,1-7.3,1.4-10.7,1.4v-3.2h-1c1.4,0,2.9-0.3,3.9-1l5.5-3.3
	c1.1-0.7,1.7-1.6,1.6-2.4c-3.1-0.7-7.6-0.7-10.4,0.2l-0.7,0.2l-0.7-0.2c-2.8-0.8-7.4-0.9-10.4-0.2c0,0.9,0.5,1.8,1.6,2.4l5.5,3.3
	c1.1,0.7,2.5,1,3.9,1h-0.9v3.2C56,92,51.4,90.8,51.3,90.8l-0.5,2c0.3,0.1,5.8,1.5,12.8,1.5c3.6,0,7.7-0.4,11.6-1.5L74.8,90.8z"/>
</svg>
