<svg id="Capa_1" xmlns="http://www.w3.org/2000/svg" xmlns:xlink="http://www.w3.org/1999/xlink" viewBox="0 0 127.8 127.8"><style>.st0{fill:#688e36}.st1{clip-path:url(#XMLID_2_)}.st2{fill:#f1d44c}.st2,.st3,.st4,.st5{fill-rule:evenodd;clip-rule:evenodd}.st3{fill:#94478a}.st4{fill:#f5e9d2}.st5{fill:#d1803f}</style><g id="XMLID_90_"><path id="XMLID_268_" class="st0" d="M127.8 105.4c0 12.4-10 22.4-22.4 22.4h-83C10 127.8 0 117.8 0 105.4v-83C0 10 10 0 22.4 0h83.1c12.4 0 22.4 10 22.4 22.4v83z"/><g id="XMLID_131_"><defs><path id="XMLID_132_" d="M127.8 105.4c0 12.4-10 22.4-22.4 22.4h-83C10 127.8 0 117.8 0 105.4v-83C0 10 10 0 22.4 0h83.1c12.4 0 22.4 10 22.4 22.4v83z"/></defs><clipPath id="XMLID_2_"><use xlink:href="#XMLID_132_" overflow="visible"/></clipPath><g id="XMLID_133_" class="st1"><path id="XMLID_267_" class="st2" d="M54.4 82.4c-13.8 9.9-28.5 9.5-21.6 33.7 0 0 .9-10.3 2.8-10.3 3.8 12.2-16.1 20.6 6.5 13.9 2.6-.8 32.6-20.3 19.6-33.4-2.3-2.2-4-3.9-7.3-3.9z"/><path id="XMLID_266_" class="st3" d="M61.7 98.4c5.4-.6 4-.6 10.6.5 19.9 1.8 19.8 21 21.9 32.8-21.5.2-31 0-52.5.2 0-14.6 3.5-31.9 20-33.5z"/><path id="XMLID_265_" class="st4" d="M58.8 100.7c-.1 6 4.8 24.7 8.6 20.6 4.3-4.6 7.2-12.3 7.2-21.7-5.1-3.6-10.5-6.6-15.8 1.1z"/><path id="XMLID_141_" class="st4" d="M72.3 71.9l-12.9-1.2c-.1.5 1.8 26.9 2.1 30 .3 3.1 2.3 3.9 4.4 3.9 2.2 0 4.5-.7 4.7-4.3l1.7-28.4z"/><path id="XMLID_140_" class="st4" d="M34.4 46.1l58.7.1.5 20.6c.6 21.5-19.2 29.8-29.1 30.5C54 98 30.4 81.6 32.4 63.7l2-17.6z"/><path id="XMLID_139_" class="st5" d="M66.3 83.2c-.8 0-1.2.4-1.2.4s-.4-.4-1.2-.4c-.8 0-3.5 2-4.4 2.7.4.2 1.4.7 1.8 1.2.4.5 1.6 2.3 3.8 2.3 2.2 0 3.4-1.8 3.8-2.3.4-.5 1.4-1 1.8-1.2-.8-.7-3.5-2.7-4.4-2.7z"/><path id="XMLID_138_" class="st4" d="M35.5 75.8c-.3-2.8-1.6-9.1-1.8-11.9-1.1-.7-6.3-1.6-7.7 2-1.7 4.9 2.1 8.5 3.6 9.6 1.5.6 5.3.5 5.9.3z"/><path id="XMLID_137_" class="st4" d="M42.4 120c-.2 1.6-1.6 11-1 12h7c-.7-1.2.6-7.4.6-9.2-4.1 0-4.5-1-6.6-2.8z"/><path id="XMLID_136_" class="st4" d="M92.7 119.8c.2 1.6 1.6 11 1 12h-7c.7-1.2-.6-7.4-.6-9.2 4.1.1 4.5-.9 6.6-2.8z"/><path id="XMLID_135_" class="st2" d="M81.9 46.3c6.8 7.2-16.4 19.7-16.4 12.9 0-9.2-.4 2.9-10 5.5-1.5.4 8.1-19.5.4-5.3-9.9 18.3-3.7-9.1-6.1-4-4.6 9.9-11.4 19.7-11.4 31 0-.1-4.9-25-4.1-8.3.3 6.1-5.6-8.8-5.6-24.3 0-24.9 14.2-47.3 41.9-44.9 27.8 2.3 34.6 34.9 32 59.8-1.4 13-14.9 15.3-12.8 14.1.3-.1 4-15.4 2.1-13.6-10.5 9.6.2-11.9-10-22.9z"/><path id="XMLID_134_" class="st4" d="M94 74.1c.2-2.6-.2-8.3 0-10.9 1-.7 5.7-1.4 6.9 1.8 1.5 4.5-1.9 7.8-3.2 8.8-1.4.5-3.2.4-3.7.3z"/></g></g></g></svg>